<svg width="40" height="40" viewBox="0 0 40 40" fill="none" xmlns="http://www.w3.org/2000/svg">
<circle cx="20" cy="20" r="19.5" stroke="#757373"/>
<path d="M14.0051 16.6797L16.6199 23.8447C16.8359 24.4366 17.3988 24.8304 18.029 24.8304H25.9268C26.5536 24.8304 27.1143 24.4407 27.3328 23.8532L29.2479 18.7025C29.6123 17.7225 28.8875 16.6797 27.8419 16.6797H14.2753" stroke="#757373" stroke-miterlimit="10" stroke-linecap="round" stroke-linejoin="round"/>
<path d="M8 13H12.3214C12.4898 13 12.7143 13.1132 12.7704 13.283L14.0051 16.6792L16.5482 23.649" stroke="#757373" stroke-miterlimit="10"/>
<path d="M19.2366 29.359C19.8386 29.359 20.3267 28.8668 20.3267 28.2596C20.3267 27.6524 19.8386 27.1602 19.2366 27.1602C18.6345 27.1602 18.1465 27.6524 18.1465 28.2596C18.1465 28.8668 18.6345 29.359 19.2366 29.359Z" fill="#757373"/>
<path d="M24.7684 29.359C25.3705 29.359 25.8585 28.8668 25.8585 28.2596C25.8585 27.6524 25.3705 27.1602 24.7684 27.1602C24.1664 27.1602 23.6783 27.6524 23.6783 28.2596C23.6783 28.8668 24.1664 29.359 24.7684 29.359Z" fill="#757373"/>
</svg>
