<svg width="40" height="40" viewBox="0 0 40 40" fill="none" xmlns="http://www.w3.org/2000/svg">
<path fill-rule="evenodd" clip-rule="evenodd" d="M20 2.50065C10.2883 2.50065 2.41544 10.3357 2.41544 20.0007C2.41544 29.6656 10.2883 37.5007 20 37.5007C29.7117 37.5007 37.5845 29.6656 37.5845 20.0007C37.5845 18.9131 37.4849 17.8494 37.2946 16.8179C37.211 16.3652 37.512 15.9308 37.9669 15.8477C38.4217 15.7645 38.8582 16.0641 38.9417 16.5168C39.1503 17.6471 39.2592 18.8116 39.2592 20.0007C39.2592 30.5861 30.6366 39.1673 20 39.1673C9.36339 39.1673 0.740723 30.5861 0.740723 20.0007C0.740723 9.41519 9.36339 0.833984 20 0.833984C23.8744 0.833984 27.4839 1.97341 30.5056 3.93414C30.893 4.18551 31.0023 4.70182 30.7497 5.08735C30.4971 5.47288 29.9783 5.58163 29.591 5.33026C26.833 3.5407 23.5398 2.50065 20 2.50065ZM35.6646 9.4114C35.9916 9.73683 35.9916 10.2645 35.6646 10.5899L20.5921 25.5899C20.2651 25.9153 19.7349 25.9153 19.4079 25.5899L12.709 18.9232C12.382 18.5978 12.382 18.0702 12.709 17.7447C13.036 17.4193 13.5662 17.4193 13.8932 17.7447L20 23.8221L34.4803 9.4114C34.8074 9.08596 35.3375 9.08596 35.6646 9.4114Z" fill="#FCC670"/>
</svg>
