<svg width="18" height="18" viewBox="0 0 18 18" fill="none" xmlns="http://www.w3.org/2000/svg">
<path d="M13.4444 1H4.55556C2.59188 1 1 2.59188 1 4.55556V13.4444C1 15.4081 2.59188 17 4.55556 17H13.4444C15.4081 17 17 15.4081 17 13.4444V4.55556C17 2.59188 15.4081 1 13.4444 1Z" stroke="#757373" stroke-width="1.5"/>
<path d="M8.99989 12.5564C10.9636 12.5564 12.5554 10.9646 12.5554 9.00087C12.5554 7.03718 10.9636 5.44531 8.99989 5.44531C7.0362 5.44531 5.44434 7.03718 5.44434 9.00087C5.44434 10.9646 7.0362 12.5564 8.99989 12.5564Z" stroke="#757373" stroke-width="1.5"/>
<path d="M13.8889 5.00043C14.3798 5.00043 14.7778 4.60248 14.7778 4.11155C14.7778 3.62061 14.3798 3.22266 13.8889 3.22266C13.398 3.22266 13 3.62061 13 4.11155C13 4.60248 13.398 5.00043 13.8889 5.00043Z" fill="#757373"/>
</svg>
