<svg width="22" height="18" viewBox="0 0 22 18" fill="none" xmlns="http://www.w3.org/2000/svg">
<path d="M6.00513 4.67969L8.61987 11.8447C8.83589 12.4366 9.39885 12.8304 10.029 12.8304H17.9268C18.5536 12.8304 19.1143 12.4407 19.3328 11.8532L21.2479 6.70245C21.6123 5.72247 20.8875 4.67969 19.8419 4.67969H6.27526" stroke="white" stroke-miterlimit="10" stroke-linecap="round" stroke-linejoin="round"/>
<path d="M0 1H4.32143C4.48979 1 4.71428 1.1132 4.7704 1.28301L6.0051 4.67916L8.54822 11.649" stroke="white" stroke-miterlimit="10"/>
<path d="M11.2366 17.359C11.8386 17.359 12.3267 16.8668 12.3267 16.2596C12.3267 15.6524 11.8386 15.1602 11.2366 15.1602C10.6345 15.1602 10.1465 15.6524 10.1465 16.2596C10.1465 16.8668 10.6345 17.359 11.2366 17.359Z" fill="white"/>
<path d="M16.7686 17.359C17.3706 17.359 17.8586 16.8668 17.8586 16.2596C17.8586 15.6524 17.3706 15.1602 16.7686 15.1602C16.1665 15.1602 15.6785 15.6524 15.6785 16.2596C15.6785 16.8668 16.1665 17.359 16.7686 17.359Z" fill="white"/>
</svg>
