<svg width="22" height="18" viewBox="0 0 22 18" fill="none" xmlns="http://www.w3.org/2000/svg">
<path d="M6.00488 4.67969L8.61963 11.8447C8.83565 12.4366 9.3986 12.8304 10.0287 12.8304H17.9266C18.5534 12.8304 19.1141 12.4407 19.3325 11.8532L21.2477 6.70245C21.612 5.72247 20.8872 4.67969 19.8417 4.67969H6.27501" stroke="#464646" stroke-miterlimit="10" stroke-linecap="round" stroke-linejoin="round"/>
<path d="M0 1H4.32143C4.48979 1 4.71428 1.1132 4.7704 1.28301L6.0051 4.67916L8.54822 11.649" stroke="#464646" stroke-miterlimit="10"/>
<path d="M11.2366 17.359C11.8386 17.359 12.3267 16.8668 12.3267 16.2596C12.3267 15.6524 11.8386 15.1602 11.2366 15.1602C10.6345 15.1602 10.1465 15.6524 10.1465 16.2596C10.1465 16.8668 10.6345 17.359 11.2366 17.359Z" fill="#464646"/>
<path d="M16.7688 17.359C17.3708 17.359 17.8589 16.8668 17.8589 16.2596C17.8589 15.6524 17.3708 15.1602 16.7688 15.1602C16.1668 15.1602 15.6787 15.6524 15.6787 16.2596C15.6787 16.8668 16.1668 17.359 16.7688 17.359Z" fill="#464646"/>
</svg>
