<svg width="32" height="32" viewBox="0 0 32 32" fill="none" xmlns="http://www.w3.org/2000/svg">
<path d="M9.5859 9.69001L9.58582 9.68992L9.58201 9.6938C9.21104 10.0711 8.71151 10.3048 8.18573 10.2714L8.18574 10.2711H8.1778C7.67549 10.2711 7.13953 10.0659 6.7736 9.6938L6.77368 9.69372L6.7697 9.69001C6.37221 9.31946 6.16947 8.77608 6.16947 8.22665C6.16947 7.68055 6.37018 7.16976 6.7736 6.75951C7.13953 6.38737 7.63995 6.18216 8.21334 6.18216C8.71339 6.18216 9.21454 6.38581 9.58201 6.75951C9.98543 7.16976 10.1861 7.68055 10.1861 8.22665C10.1861 8.77608 9.98339 9.31946 9.5859 9.69001ZM8.21334 5.20898C7.39913 5.20898 6.65542 5.51067 6.09755 6.07799C5.50562 6.67996 5.20834 7.4346 5.20834 8.22661C5.20834 9.0567 5.54255 9.81086 6.09755 10.3753C6.65139 10.9385 7.43011 11.2814 8.18093 11.2443H8.18097H8.18104H8.18111H8.18118H8.18125H8.18132H8.18139H8.18146H8.18153H8.1816H8.18168H8.18175H8.18183H8.1819H8.18198H8.18206H8.18213H8.18221H8.18229H8.18237H8.18245H8.18253H8.18261H8.1827H8.18278H8.18286H8.18295H8.18303H8.18312H8.1832H8.18329H8.18338H8.18346H8.18355H8.18364H8.18373H8.18382H8.18391H8.184H8.18409H8.18419H8.18428H8.18437H8.18447H8.18456H8.18466H8.18476H8.18485H8.18495H8.18505H8.18515H8.18525H8.18535H8.18545H8.18555H8.18565H8.18575H8.18585H8.18596H8.18606H8.18617H8.18627H8.18638H8.18648H8.18659H8.1867H8.1868H8.18691H8.18702H8.18713H8.18724H8.18735H8.18746H8.18757H8.18769H8.1878H8.18791H8.18803H8.18814H8.18826H8.18837H8.18849H8.18861H8.18872H8.18884H8.18896H8.18908H8.1892H8.18932H8.18944H8.18956H8.18968H8.1898H8.18992H8.19005H8.19017H8.1903H8.19042H8.19055H8.19067H8.1908H8.19092H8.19105H8.19118H8.19131H8.19144H8.19156H8.19169H8.19182H8.19196H8.19209H8.19222H8.19235H8.19248H8.19262H8.19275H8.19288H8.19302H8.19315H8.19329H8.19343H8.19356H8.1937H8.19384H8.19397H8.19411H8.19425H8.19439H8.19453H8.19467H8.19481H8.19495H8.1951H8.19524H8.19538H8.19552H8.19567H8.19581H8.19596H8.1961H8.19625H8.19639H8.19654H8.19668H8.19683H8.19698H8.19713H8.19728H8.19742H8.19757H8.19772H8.19787H8.19802H8.19818H8.19833H8.19848H8.19863H8.19878H8.19894H8.19909H8.19924H8.1994H8.19955H8.19971H8.19986H8.20002H8.20018H8.20033H8.20049H8.20065H8.20081H8.20097H8.20112H8.20128H8.20144H8.2016H8.20176H8.20192H8.20209H8.20225H8.20241H8.20257H8.20273H8.2029H8.20306H8.20322H8.20339H8.20355H8.20372H8.20388H8.20405H8.20422H8.20438H8.20455H8.20472H8.20488H8.20505H8.20522H8.20539H8.20556H8.20573H8.2059H8.20607H8.20624H8.20641H8.20658H8.20675H8.20692H8.20709H8.20727H8.20744H8.20761H8.20779H8.20796H8.20813H8.20831H8.20848H8.20866H8.20883H8.20901H8.20919H8.20936H8.20954H8.20972H8.20989H8.21007H8.21025H8.21043H8.21061H8.21079H8.21096H8.21114H8.21132H8.2115H8.21168H8.21186H8.21205H8.21223H8.21241H8.21259H8.21277H8.21296H8.21314H8.21332H8.2135H8.21369H8.21387H8.21406H8.21424H8.21443H8.21461H8.2148H8.21498H8.21517H8.21535H8.21554H8.21573H8.21591H8.2161H8.21629H8.21648H8.21666H8.21685H8.21704H8.21723H8.21742H8.21761H8.2178H8.21799H8.21818H8.21837H8.21856H8.21875H8.21894H8.21913H8.21932H8.21951H8.2197H8.21989H8.22009H8.22028H8.22047H8.22067H8.22086H8.22105H8.22125H8.22144H8.22163H8.22183H8.22202H8.22222H8.22241H8.22261H8.2228H8.223H8.22319H8.22339H8.22358H8.22378H8.22398H8.22417H8.22437H8.22457H8.22477H8.22496H8.22516H8.22536H8.22556H8.22575H8.22595H8.22615H8.22635H8.22655H8.22675H8.22695H8.22715H8.22735H8.22755H8.22775H8.22795H8.22815H8.22835H8.22855H8.22875H8.22895H8.22915H8.22935H8.22955H8.22975H8.22995H8.23016H8.23036H8.23056H8.23076H8.23097H8.23117H8.23137H8.23157H8.23178H8.23198H8.23218H8.23239H8.23259H8.23279H8.233H8.2332H8.2334H8.23361H8.23381H8.23402H8.23422H8.23443H8.23463H8.23483H8.23504H8.23524H8.23545H8.23565H8.23586H8.23606H8.23627H8.23648H8.23668H8.23689H8.23709H8.2373H8.2375H8.23771H8.23792H8.23812H8.23833H8.23854H8.23874H8.23895H8.23916H8.23936H8.23957H8.23978H8.23998H8.24019H8.2404H8.2406H8.24081H8.24102H8.24123H8.24143H8.24164H8.24185H8.24206H8.24226H8.24247H8.24268H8.24289H8.24309H8.2433H8.24351H8.24372H8.24393H8.24413H8.24434H8.24455H8.24476H8.24497H8.24518H8.24538H8.24559H8.2458H8.24601H8.24622H8.24643H8.24663H8.24684H8.24705H8.24726H8.24747H8.24768H8.24788H8.24809H8.2483H8.24851H8.24872H8.24893C8.99549 11.2443 9.7026 10.9401 10.2581 10.3753C10.8124 9.81152 11.1465 9.05847 11.1473 8.22953C11.1837 7.43236 10.8476 6.67822 10.295 6.11553C9.73713 5.51121 8.99273 5.20898 8.21334 5.20898Z" fill="#007947" stroke="#007947" stroke-width="0.25"/>
<path d="M9.59999 11.7188H6.72C6.07739 11.7188 5.56387 12.2496 5.56387 12.9285V25.5839C5.56387 26.2294 6.11566 26.7936 6.75554 26.7936H9.59999C10.2372 26.7936 10.7917 26.2322 10.7917 25.62V12.9285C10.7917 12.2829 10.2399 11.7188 9.59999 11.7188ZM9.83053 25.62C9.83053 25.6678 9.80702 25.7169 9.76177 25.7568C9.71611 25.797 9.65608 25.8204 9.59999 25.8204H6.75554C6.70805 25.8204 6.64956 25.795 6.60023 25.7448C6.55102 25.6948 6.525 25.6343 6.525 25.5839V12.9285C6.525 12.8696 6.54874 12.8076 6.58846 12.761C6.62793 12.7147 6.67535 12.6919 6.72 12.6919H9.59999C9.64748 12.6919 9.70597 12.7174 9.7553 12.7676C9.80451 12.8176 9.83053 12.878 9.83053 12.9285V25.62Z" fill="#007947" stroke="#007947" stroke-width="0.25"/>
<path d="M20.9422 11.3555C19.6333 11.3555 18.3859 11.8889 17.5116 12.7559V12.5652C17.5116 12.3445 17.4043 12.1337 17.2535 11.9804C17.1029 11.8272 16.8947 11.717 16.6755 11.717H13.12C12.9251 11.717 12.7187 11.8036 12.5615 11.9428C12.403 12.0832 12.2838 12.2871 12.2838 12.529V26.016C12.2838 26.2594 12.4043 26.4554 12.5651 26.5873C12.7242 26.7177 12.9297 26.7919 13.12 26.7919H17.0311C17.2214 26.7919 17.4269 26.7177 17.5859 26.5873C17.7467 26.4554 17.8672 26.2594 17.8672 26.016V18.2059C17.8672 17.0708 18.6749 16.1975 19.6978 16.1975C20.2345 16.1975 20.7353 16.402 21.102 16.7748L21.1018 16.775L21.1067 16.7794C21.4241 17.07 21.5639 17.5329 21.5639 18.1697V25.9437C21.5639 26.1644 21.6712 26.3752 21.822 26.5286C21.9726 26.6818 22.1808 26.7919 22.4 26.7919H25.9556C26.1747 26.7919 26.3829 26.6818 26.5336 26.5286C26.6844 26.3752 26.7917 26.1645 26.7917 25.9437V16.6149C26.7916 13.657 24.5705 11.3555 21.6888 11.3555H20.9422ZM19.7333 15.2244L19.7303 15.2244C18.1647 15.2623 16.9416 16.5516 16.9416 18.2059V25.8187H13.2805V12.6902H16.5861V14.8793V15.1847L16.8002 14.967L17.7602 13.9907L17.7957 13.9546L17.803 13.9472L17.8089 13.9388C18.496 12.9605 19.7018 12.3286 20.9777 12.3286H21.7244C24.0322 12.3286 25.8305 14.2198 25.8305 16.615V25.8187H22.5599L22.525 18.1697H22.4L22.525 18.1692L22.525 18.1694C22.5249 17.2813 22.3061 16.5943 21.8136 16.0934C21.2563 15.5267 20.5128 15.2244 19.7333 15.2244Z" fill="#007947" stroke="#007947" stroke-width="0.25"/>
</svg>
