<svg width="32" height="32" viewBox="0 0 32 32" fill="none" xmlns="http://www.w3.org/2000/svg">
<path fill-rule="evenodd" clip-rule="evenodd" d="M16.5737 25.8202C14.794 25.8202 13.0736 25.3614 11.5312 24.5012L11.1753 24.2718L7.43786 25.2467L8.44637 21.6911L8.20907 21.347C7.20057 19.7987 6.66666 18.0782 6.66666 16.2431C6.66666 10.9671 11.1159 6.66602 16.5737 6.66602C19.2433 6.66602 21.7349 7.64093 23.5739 9.47606C25.4129 11.3112 26.4808 13.7198 26.4808 16.2431C26.4808 21.5191 22.0315 25.8202 16.5737 25.8202Z" stroke="#007947" stroke-width="1.5" stroke-miterlimit="10"/>
<path fill-rule="evenodd" clip-rule="evenodd" d="M20.964 18.0787C20.7267 17.964 19.5403 17.3905 19.303 17.3331C19.0657 17.2758 18.947 17.2184 18.7691 17.4478C18.5911 17.6772 18.1758 18.1934 17.9978 18.3654C17.8792 18.5374 17.7012 18.5374 17.4639 18.4227C17.2266 18.3081 16.4554 18.0787 15.5656 17.2758C14.8537 16.645 14.3791 15.8994 14.2604 15.6701C14.1418 15.4407 14.2605 15.326 14.3791 15.2113C14.6164 14.9245 14.913 14.5805 14.9723 14.4084C15.0317 14.2364 15.0317 14.1217 14.9723 14.007C14.913 13.8923 14.4384 12.7453 14.2604 12.2865C14.0825 11.8278 13.8452 11.8851 13.7265 11.8851C13.6079 11.8851 13.4299 11.8851 13.2519 11.8851C13.074 11.8851 12.8367 11.9425 12.5994 12.1718C12.3028 12.4012 11.7095 12.9747 11.7095 14.1217C11.7095 15.2686 12.5401 16.3582 12.6587 16.5303C12.7774 16.7023 14.3198 18.9962 16.752 20.0285C17.3453 20.2579 17.7605 20.4299 18.1165 20.4873C18.7097 20.6593 19.1843 20.6593 19.5996 20.602C20.0742 20.5446 21.0234 20.0285 21.2013 19.5124C21.3793 18.9962 21.3793 18.5374 21.32 18.4227C21.32 18.2507 21.2013 18.1934 20.964 18.0787Z" fill="#007947"/>
</svg>
