<svg width="32" height="32" viewBox="0 0 32 32" fill="none" xmlns="http://www.w3.org/2000/svg">
<path d="M22.807 9.35048C22.807 9.48855 22.6951 9.60048 22.557 9.60048H20.1397H19.4314C18.8216 9.60048 18.3272 10.0949 18.3272 10.7047V14.3288C18.3272 14.4669 18.4391 14.5788 18.5772 14.5788H22.5156C22.6688 14.5788 22.786 14.7154 22.7627 14.8669L22.1835 18.6318C22.1648 18.7537 22.0598 18.8438 21.9364 18.8438H18.5772C18.4391 18.8438 18.3272 18.9557 18.3272 19.0938V26.4173C18.3272 26.5554 18.2153 26.6673 18.0772 26.6673H13.6508C13.5127 26.6673 13.4008 26.5554 13.4008 26.4173V19.0938C13.4008 18.9557 13.2888 18.8438 13.1508 18.8438H9.58334C9.44527 18.8438 9.33334 18.7318 9.33334 18.5938V14.8288C9.33334 14.6908 9.44527 14.5788 9.58334 14.5788H13.1014C13.2382 14.5788 13.3496 14.4689 13.3514 14.3321L13.4008 10.5305L13.3933 9.79551C13.3687 7.35626 15.326 5.35888 17.7653 5.33421C17.7802 5.33406 17.795 5.33398 17.8099 5.33398H22.557C22.6951 5.33398 22.807 5.44591 22.807 5.58398V9.35048Z" stroke="#007947" stroke-width="1.25"/>
</svg>
