<svg width="20" height="16" viewBox="0 0 20 16" fill="none" xmlns="http://www.w3.org/2000/svg">
<path d="M6.6714 3.22727L6.69201 3.3H6.76761H17.1179C18.6008 3.3 19.691 4.70532 19.3307 6.15801L18.1402 10.958C17.8862 11.9823 16.9735 12.7 15.9274 12.7H9.63384C8.61598 12.7 7.72067 12.0198 7.4407 11.0321L4.92394 2.15295C4.81452 1.76693 4.46415 1.5 4.06461 1.5H1.29365C0.911309 1.5 0.6 1.18735 0.6 0.8C0.6 0.412648 0.911309 0.1 1.29365 0.1H4.06461C5.08247 0.1 5.97778 0.780198 6.25775 1.76794L6.6714 3.22727ZM7.22112 4.7H7.08884L7.12491 4.82727L8.77451 10.647C8.88393 11.0331 9.2343 11.3 9.63384 11.3H15.9274C16.338 11.3 16.6951 11.0184 16.7944 10.6181L17.9849 5.8181C18.1255 5.25112 17.7002 4.7 17.1179 4.7H7.22112ZM8.53653 15.2C8.53653 14.8126 8.84784 14.5 9.23019 14.5H10.0238C10.4062 14.5 10.7175 14.8126 10.7175 15.2C10.7175 15.5874 10.4062 15.9 10.0238 15.9H9.23019C8.84784 15.9 8.53653 15.5874 8.53653 15.2ZM14.8858 15.2C14.8858 14.8126 15.1971 14.5 15.5794 14.5H16.3731C16.7554 14.5 17.0667 14.8126 17.0667 15.2C17.0667 15.5874 16.7554 15.9 16.3731 15.9H15.5794C15.1971 15.9 14.8858 15.5874 14.8858 15.2Z" fill="white" stroke="white" stroke-width="0.2"/>
</svg>
