<svg width="19" height="16" viewBox="0 0 19 16" fill="none" xmlns="http://www.w3.org/2000/svg">
<path d="M6.1714 3.22727L6.19201 3.3H6.26761H16.6179C18.1008 3.3 19.191 4.70532 18.8307 6.15801L17.6402 10.958C17.3862 11.9823 16.4735 12.7 15.4274 12.7H9.13384C8.11598 12.7 7.22067 12.0198 6.9407 11.0321L4.42394 2.15295C4.31452 1.76693 3.96415 1.5 3.56461 1.5H0.793653C0.411309 1.5 0.1 1.18735 0.1 0.8C0.1 0.412648 0.411309 0.1 0.793653 0.1H3.56461C4.58247 0.1 5.47778 0.780198 5.75775 1.76794L6.1714 3.22727ZM6.72112 4.7H6.58884L6.62491 4.82727L8.27451 10.647C8.38393 11.0331 8.7343 11.3 9.13384 11.3H15.4274C15.838 11.3 16.1951 11.0184 16.2944 10.6181L17.4849 5.8181C17.6255 5.25112 17.2002 4.7 16.6179 4.7H6.72112ZM8.03653 15.2C8.03653 14.8126 8.34784 14.5 8.73019 14.5H9.52384C9.90618 14.5 10.2175 14.8126 10.2175 15.2C10.2175 15.5874 9.90618 15.9 9.52384 15.9H8.73019C8.34784 15.9 8.03653 15.5874 8.03653 15.2ZM14.3858 15.2C14.3858 14.8126 14.6971 14.5 15.0794 14.5H15.8731C16.2554 14.5 16.5667 14.8126 16.5667 15.2C16.5667 15.5874 16.2554 15.9 15.8731 15.9H15.0794C14.6971 15.9 14.3858 15.5874 14.3858 15.2Z" fill="#757373" stroke="white" stroke-width="0.2"/>
</svg>
