<svg width="14" height="14" viewBox="0 0 14 14" fill="none" xmlns="http://www.w3.org/2000/svg">
<path fill-rule="evenodd" clip-rule="evenodd" d="M0.857267 0.856656C1.02812 0.685802 1.30513 0.685802 1.47599 0.856656L6.99996 6.38063L12.5239 0.856656C12.6948 0.685802 12.9718 0.685802 13.1427 0.856656C13.3135 1.02751 13.3135 1.30452 13.1427 1.47537L7.61868 6.99935L13.1427 12.5233C13.3135 12.6942 13.3135 12.9712 13.1427 13.142C12.9718 13.3129 12.6948 13.3129 12.5239 13.142L6.99996 7.61807L1.47599 13.142C1.30513 13.3129 1.02812 13.3129 0.857267 13.142C0.686412 12.9712 0.686412 12.6942 0.857267 12.5233L6.38124 6.99935L0.857267 1.47537C0.686412 1.30452 0.686412 1.02751 0.857267 0.856656Z" fill="#757373" stroke="#757373" stroke-width="0.5"/>
</svg>
