<svg width="40" height="40" viewBox="0 0 40 40" fill="none" xmlns="http://www.w3.org/2000/svg">
<path d="M26.7021 28.7172C26.2331 28.7172 25.7731 28.5942 25.3678 28.3574L20.8685 25.7434C20.0442 25.2653 19.5342 24.3772 19.5342 23.4209V18.1929C19.5342 17.2366 20.0442 16.3486 20.8685 15.875L25.3678 13.261C26.1921 12.7828 27.2122 12.7828 28.0365 13.261L32.5358 15.875C33.3601 16.3531 33.8701 17.2412 33.8701 18.1975V23.4255C33.8701 24.3772 33.3601 25.2698 32.5404 25.748L28.0365 28.362C27.6312 28.5942 27.1712 28.7172 26.7021 28.7172ZM26.7021 13.8166C26.397 13.8166 26.0965 13.894 25.8232 14.0534L21.3193 16.6674C20.7774 16.9816 20.4404 17.569 20.4404 18.1975V23.4255C20.4404 24.0539 20.7774 24.6414 21.3193 24.9602L25.8187 27.5741C26.3515 27.8838 27.0437 27.8838 27.572 27.5741L32.0759 24.9602C32.6178 24.6459 32.9548 24.0585 32.9548 23.4255V18.1975C32.9548 17.5645 32.6178 16.9816 32.0759 16.6674L27.5765 14.0534C27.3078 13.894 27.0073 13.8166 26.7021 13.8166Z" fill="#FCC670" stroke="#FCC670"/>
<path d="M35.2369 33.7121H31.0016V32.8013H35.2369C36.4619 32.8013 37.4637 31.804 37.4637 30.5744V6.1377C37.4637 4.90812 36.4664 3.9108 35.2369 3.9108H4.1377C2.91267 3.9108 1.9108 4.91267 1.9108 6.1377V30.5789C1.9108 31.8039 2.90812 32.8058 4.1377 32.8058H22.3992V33.7166H4.1377C2.40718 33.7166 1 32.3094 1 30.5789V6.1377C1 4.40718 2.40718 3 4.1377 3H35.2369C36.9674 3 38.3745 4.40718 38.3745 6.1377V30.5789C38.3745 32.3049 36.9674 33.7121 35.2369 33.7121Z" fill="#007947" stroke="#007947"/>
<path d="M30.4915 36.936C30.3321 36.936 30.1727 36.895 30.0225 36.813L26.7299 34.9778C26.7117 34.9686 26.6935 34.9686 26.6753 34.9778L23.3827 36.8085C23.0822 36.977 22.7224 36.9724 22.4264 36.7948C22.1304 36.6172 21.9482 36.3075 21.9482 35.9614L21.9756 26.7305H22.8864L22.859 35.9614C22.859 35.9705 22.859 35.9933 22.8864 36.0115C22.9137 36.0297 22.9319 36.0161 22.941 36.0115L26.2335 34.1763C26.5296 34.0169 26.8757 34.0169 27.1671 34.1763L30.4642 36.0115C30.4688 36.0161 30.4915 36.0252 30.5188 36.0115C30.5462 35.9933 30.5462 35.9705 30.5462 35.9614L30.5735 26.7305H31.4843L31.457 35.9614C31.457 36.3075 31.2794 36.6172 30.9788 36.7948C30.8285 36.8904 30.66 36.936 30.4915 36.936Z" fill="#FCC670" stroke="#FCC670"/>
<path d="M31.0029 8.82031H7.14453V9.73111H31.0029V8.82031Z" fill="#007947" stroke="#007947"/>
<path d="M15.4865 17.9004H7.14355V18.8112H15.4865V17.9004Z" fill="#007947" stroke="#007947"/>
<path d="M17.0576 26.9824H7.14355V27.8932H17.0576V26.9824Z" fill="#007947" stroke="#007947"/>
</svg>
