<svg width="40" height="40" viewBox="0 0 40 40" fill="none" xmlns="http://www.w3.org/2000/svg">
<path d="M25.3166 24.8542L24.832 25.6895L32.5768 30.1943L33.0613 29.3591L25.3166 24.8542Z" fill="#007947" stroke="#007947"/>
<path d="M19.7313 29.1139L19.2471 29.9492L26.1811 33.928L26.6654 33.0927L19.7313 29.1139Z" fill="#007947" stroke="#007947"/>
<path d="M20 37.0007C18.9003 37.0007 17.8199 36.711 16.8746 36.1556L5.13022 29.3363C4.05949 28.7085 3.20579 27.7909 2.65595 26.6801C2.22186 25.7915 2 24.8497 2 23.879V10.2211C2 7.98026 3.20096 5.89391 5.13022 4.77347L6.02733 4.25188C6.60129 3.91864 7.31029 3.91864 7.88907 4.25188L20.246 11.4334L20.0048 11.8439L19.9228 12.0976L19.7639 12.2411L14.6849 9.31803L7.40675 5.08738C7.13183 4.92801 6.78457 4.92801 6.50965 5.08738L5.61254 5.60897C3.97749 6.55555 2.96463 8.32315 2.96463 10.2211V23.879C2.96463 24.7 3.15273 25.4969 3.52412 26.2503C3.98714 27.192 4.71061 27.9696 5.61736 28.5008L17.3617 35.3249C18.963 36.257 21.0466 36.257 22.6479 35.3249L34.3971 28.5008C36.0273 27.5494 37.0402 25.777 37.0402 23.879V22.0293H38.0048V23.879C38.0048 26.1199 36.8087 28.211 34.8794 29.3315L23.1254 36.1604C22.1801 36.711 21.0997 37.0007 20 37.0007Z" fill="#007947" stroke="#007947"/>
<path d="M37.9992 22.8677L25.0732 15.353L17.8288 19.5691C16.8449 20.1438 15.6198 20.1438 14.6359 19.5691L11.7805 17.9078C11.4477 17.7194 11.25 17.3717 11.25 16.9902C11.25 16.6038 11.4477 16.2609 11.7805 16.0677L32.115 4.24993C32.6889 3.91669 33.3979 3.91669 33.9767 4.24993L34.8738 4.77151C35.7082 5.25446 36.4268 5.94025 36.9526 6.75161C37.6326 7.78512 37.9944 8.98767 37.9944 10.224V21.9941L37.9992 22.8677ZM25.0732 14.2325L37.0346 21.187V10.2192C37.0346 9.17602 36.7307 8.157 36.1519 7.27803C35.7034 6.59224 35.0957 6.0127 34.3915 5.60219L33.4944 5.08543C33.2195 4.92606 32.8722 4.92606 32.5973 5.08543L25.3047 9.32091L12.2629 16.9032C12.2291 16.9225 12.2146 16.9515 12.2146 16.9902C12.2146 17.0288 12.2291 17.0578 12.2629 17.0723L15.1182 18.7336C15.8031 19.1345 16.6568 19.1345 17.3465 18.7336L25.0732 14.2325Z" fill="#FCC670"/>
<path d="M25.3047 9.32091L32.5973 5.08543C32.8722 4.92606 33.2195 4.92606 33.4944 5.08543L34.3915 5.60219C35.0957 6.0127 35.7034 6.59224 36.1519 7.27803C36.7307 8.157 37.0346 9.17602 37.0346 10.2192V21.187L25.0732 14.2325L17.3465 18.7336C16.6568 19.1345 15.8031 19.1345 15.1182 18.7336L12.2629 17.0723C12.2291 17.0578 12.2146 17.0288 12.2146 16.9902C12.2146 16.9515 12.2291 16.9225 12.2629 16.9032L25.3047 9.32091ZM25.3047 9.32091L25.0635 8.90557M37.9992 22.8677L25.0732 15.353L17.8288 19.5691C16.8449 20.1438 15.6198 20.1438 14.6359 19.5691L11.7805 17.9078C11.4477 17.7194 11.25 17.3717 11.25 16.9902C11.25 16.6038 11.4477 16.2609 11.7805 16.0677L32.115 4.24993C32.6889 3.91669 33.3979 3.91669 33.9767 4.24993L34.8738 4.77151C35.7082 5.25446 36.4268 5.94025 36.9526 6.75161C37.6326 7.78512 37.9944 8.98767 37.9944 10.224V21.9941L37.9992 22.8677Z" stroke="#FCC670"/>
</svg>
