<svg width="40" height="40" viewBox="0 0 40 40" fill="none" xmlns="http://www.w3.org/2000/svg">
<path d="M19.9903 13.199C17.4766 13.199 15.0037 12.7937 12.6402 11.9967C10.4042 11.2453 8.29116 10.1478 6.36483 8.73153L5.80469 8.32167L17.0394 1.79581C17.727 1.39506 18.5103 1.13548 19.3027 1.0444C19.7444 0.9852 20.2226 0.9852 20.6917 1.0444C21.4841 1.13548 22.2446 1.38595 22.9504 1.79581L34.176 8.31256L33.6204 8.72242C31.7078 10.1387 29.5947 11.2362 27.345 11.9922C24.9815 12.7937 22.5087 13.199 19.9903 13.199ZM7.476 8.39909C9.17008 9.56491 11.0053 10.4848 12.9317 11.1315C17.472 12.6662 22.5224 12.6662 27.0536 11.1315C28.9936 10.4803 30.8243 9.56035 32.5093 8.39453L22.4905 2.5791C21.8985 2.233 21.2564 2.01896 20.5824 1.9461C20.1771 1.896 19.79 1.896 19.412 1.9461C18.738 2.02351 18.0777 2.2421 17.4993 2.5791L7.476 8.39909Z" fill="#FCC670" stroke="#FCC670"/>
<path d="M19.9903 38.624C19.7581 38.624 19.5213 38.6104 19.2936 38.5785C18.5012 38.4874 17.7407 38.237 17.0394 37.8271L5.80469 31.3103L6.36483 30.9005C8.29116 29.4796 10.4042 28.3821 12.6448 27.6307C17.3718 26.0323 22.6271 26.0368 27.3496 27.6307C29.5901 28.3821 31.6986 29.4842 33.625 30.9005L34.1851 31.3103L22.9459 37.8271C22.2491 38.2324 21.4886 38.4874 20.6826 38.5785C20.5596 38.5967 20.4139 38.6058 20.2681 38.6149C20.1998 38.624 20.0905 38.624 19.9903 38.624ZM7.47145 31.2238L17.4948 37.0393C18.0868 37.3854 18.7289 37.5948 19.4029 37.6723C19.6124 37.6996 19.8173 37.7087 20.0268 37.7087C20.086 37.7087 20.1452 37.7087 20.2044 37.7041C20.3456 37.6996 20.4549 37.6905 20.5642 37.6768C21.2564 37.5994 21.8985 37.3854 22.4859 37.0438L32.5093 31.2284C30.8152 30.058 28.9845 29.1426 27.0536 28.4914C22.5178 26.9567 17.472 26.9567 12.9317 28.4914C11.0008 29.1381 9.16553 30.058 7.47145 31.2238Z" fill="#FCC670" stroke="#FCC670"/>
<path d="M20.446 1.45508H19.5352V38.1693H20.446V1.45508Z" fill="#FCC670" stroke="#FCC670"/>
<path d="M36.5316 19.3535H3.45605V20.2643H36.5316V19.3535Z" fill="#FCC670" stroke="#FCC670"/>
<path d="M19.4763 38.6023L19.2987 38.5841C18.5018 38.493 17.7367 38.2425 17.0354 37.8326L5.95098 31.3933C5.46371 31.1064 5.02197 30.7557 4.64399 30.355C3.58291 29.2484 3 27.7866 3 26.2519V13.3732C3 11.2601 4.12939 9.28827 5.95098 8.2363L17.0399 1.79697C17.7276 1.39622 18.5109 1.13664 19.3033 1.04556L19.4809 1.02734L19.622 1.13208C19.7997 1.26415 19.9818 1.39622 20.1594 1.53284L20.2778 1.61936C23.5658 4.16049 26.1069 7.54409 27.628 11.4013C28.5251 13.6829 29.0488 16.0874 29.1854 18.5511C29.2082 18.9518 29.2173 19.3662 29.2173 19.8171C29.2173 22.7225 28.6845 25.5551 27.628 28.2328C26.1069 32.0901 23.5658 35.4737 20.2778 38.0148L20.1503 38.1104C19.9773 38.2425 19.7997 38.3746 19.622 38.5021L19.4763 38.6023ZM19.2304 1.97002C18.6202 2.0611 18.0236 2.27058 17.4953 2.58025L6.40638 9.01959C4.86713 9.91672 3.9108 11.5835 3.9108 13.3732V26.2519C3.9108 27.5543 4.40718 28.7884 5.30432 29.7311C5.62765 30.0727 5.99652 30.3687 6.40638 30.61L17.4953 37.0448C18.0373 37.359 18.6202 37.564 19.2304 37.655C19.3898 37.5366 19.5492 37.4182 19.7086 37.2953L19.8361 37.1996C22.9373 34.7678 25.3327 31.5527 26.7718 27.8958C27.7828 25.3274 28.2974 22.6087 28.2974 19.8171C28.2974 19.3845 28.2883 18.9883 28.2655 18.6057C28.1334 16.2377 27.6325 13.9288 26.7718 11.7383C25.3327 8.08147 22.9328 4.86635 19.8361 2.43452L19.7086 2.33889C19.5537 2.21138 19.3943 2.08843 19.2304 1.97002Z" fill="#FCC670" stroke="#FCC670"/>
<path d="M20.5095 38.6016L20.3684 38.4969C20.1907 38.3694 20.0177 38.2373 19.8401 38.1052H19.5395L19.535 37.8684C16.3335 35.3455 13.8516 32.0166 12.3579 28.2231C11.3014 25.5453 10.7686 22.7173 10.7686 19.8073C10.7686 19.3519 10.7777 18.9375 10.8004 18.5413C10.9371 16.0776 11.4608 13.6731 12.3579 11.3916C13.8516 7.60264 16.329 4.26912 19.5304 1.75077V1.51852L19.831 1.51397C20.004 1.3819 20.1816 1.24984 20.3592 1.12232L20.5004 1.01758L20.6735 1.0358C21.4704 1.12688 22.2309 1.37734 22.9368 1.7872L34.0258 8.22654C34.9229 8.74569 35.6697 9.50166 36.1843 10.4079C36.6989 11.3096 36.9722 12.3297 36.9722 13.3634V26.2421C36.9722 28.3551 35.8428 30.327 34.0212 31.3836L22.9459 37.8274C22.2492 38.2327 21.4886 38.4878 20.6826 38.5788L20.5095 38.6016ZM20.4458 37.4221C20.546 37.4995 20.6507 37.577 20.7554 37.6544C21.3702 37.5633 21.9531 37.3584 22.4905 37.0442L33.5795 30.6094C35.1187 29.7122 36.075 28.0409 36.075 26.2558V13.3771C36.075 12.5027 35.8428 11.6329 35.4056 10.8724C34.9684 10.1028 34.3354 9.46523 33.5795 9.02804L22.4905 2.5796C21.9486 2.26537 21.3657 2.06045 20.7554 1.96937C20.6097 2.07866 20.4594 2.18796 20.3183 2.30181L20.2727 2.33824C17.1168 4.77462 14.6759 8.02161 13.214 11.7331C12.3533 13.9236 11.8524 16.2324 11.7203 18.6005C11.6976 18.9785 11.6885 19.3747 11.6885 19.8119C11.6885 22.6035 12.2031 25.3222 13.214 27.8906C14.6759 31.5976 17.1168 34.8446 20.2727 37.2855L20.4458 37.4221Z" fill="#FCC670" stroke="#FCC670"/>
<path d="M19.9909 38.6239C19.7587 38.6239 19.5219 38.6102 19.2942 38.5784C18.5018 38.4873 17.7412 38.2368 17.0399 37.8269L5.95098 31.3922C5.46371 31.1053 5.02197 30.7546 4.64399 30.3538C3.58291 29.2472 3 27.7854 3 26.2507V13.372C3 11.259 4.12939 9.28712 5.95098 8.23515L17.0399 1.79581C17.7276 1.39506 18.5109 1.13548 19.3033 1.0444C19.745 0.9852 20.2232 0.9852 20.6922 1.0444C21.4846 1.13548 22.2451 1.38595 22.951 1.79581L34.04 8.23515C34.9371 8.7543 35.6839 9.51026 36.1985 10.4165C36.7131 11.3182 36.9864 12.3383 36.9864 13.372V26.2507C36.9864 28.3638 35.857 30.3356 34.0354 31.3922L22.9465 37.8269C22.2497 38.2322 21.4892 38.4873 20.6831 38.5784C20.5602 38.5966 20.4144 38.6057 20.2687 38.6148C20.2004 38.6239 20.0911 38.6239 19.9909 38.6239ZM19.9909 1.90966C19.7951 1.90966 19.6038 1.92333 19.4126 1.9461C18.7386 2.02351 18.0782 2.2421 17.4999 2.5791L6.40638 9.01843C4.86713 9.91557 3.9108 11.5823 3.9108 13.372V26.2507C3.9108 27.5531 4.40718 28.7873 5.30432 29.73C5.62765 30.0715 5.99652 30.3675 6.40638 30.6089L17.4953 37.0437C18.0873 37.3898 18.7295 37.5992 19.4035 37.6767C19.6129 37.704 19.8133 37.7131 20.0319 37.7131C20.0911 37.7131 20.1503 37.7131 20.2095 37.7085C20.3507 37.704 20.46 37.6949 20.5693 37.6812C21.2615 37.6038 21.9036 37.3898 22.4911 37.0482L33.58 30.6134C35.1193 29.7163 36.0756 28.045 36.0756 26.2598V13.3812C36.0756 12.5068 35.8433 11.637 35.4062 10.8765C34.969 10.1068 34.336 9.46928 33.58 9.03209L22.4911 2.5791C21.899 2.233 21.2569 2.01896 20.5829 1.9461C20.3826 1.92333 20.1822 1.90966 19.9909 1.90966Z" fill="#007947" stroke="#007947"/>
</svg>
