<svg width="40" height="43" viewBox="0 0 40 43" fill="none" xmlns="http://www.w3.org/2000/svg">
<path d="M19.9955 41.7904C18.9572 41.7904 17.9371 41.5172 17.0399 40.998L5.95098 34.5587C4.12939 33.4976 3 31.5303 3 29.4172V16.5385C3 14.4255 4.12939 12.4536 5.95098 11.4016L17.0399 4.96232C18.8615 3.90579 21.1249 3.90579 22.951 4.96232L34.04 11.4016C35.8616 12.4582 36.9955 14.4255 36.9909 16.5385V29.4172C36.9909 31.5303 35.8616 33.4976 34.04 34.5587L22.9465 40.998C22.0539 41.5172 21.0338 41.7904 19.9955 41.7904ZM19.9955 5.07616C19.1302 5.07616 18.2695 5.29931 17.4999 5.7456L6.40638 12.1895C4.86714 13.0821 3.90625 14.7488 3.90625 16.5385V29.4172C3.90625 31.2069 4.86258 32.8737 6.40638 33.7708L17.4953 40.2102C19.0073 41.0891 20.9791 41.0891 22.4865 40.2102L33.58 33.7708C35.1193 32.8737 36.0756 31.2069 36.0756 29.4172V16.5385C36.0756 14.7488 35.1193 13.0821 33.58 12.1895L22.4911 5.75015C21.7214 5.29931 20.8562 5.07616 19.9955 5.07616Z" fill="#007947" stroke="#007947"/>
<path d="M14.585 31.5126C13.9474 31.5126 13.3645 31.3988 12.8272 31.1756C12.2898 30.9479 11.8298 30.6246 11.4427 30.2056C11.0557 29.7867 10.7733 29.2857 10.5957 28.7028L11.8435 28.3294C12.0575 28.9669 12.4082 29.4497 12.9 29.773C13.3918 30.1009 13.9474 30.2557 14.5622 30.2466C15.1315 30.233 15.6233 30.1054 16.0377 29.8641C16.4521 29.6182 16.7664 29.2812 16.9895 28.8485C17.2081 28.4159 17.3219 27.9104 17.3219 27.3412C17.3219 26.4668 17.0669 25.7655 16.5569 25.2327C16.0468 24.6999 15.3774 24.4357 14.544 24.4357C14.3118 24.4357 14.0704 24.4676 13.8108 24.5314C13.5512 24.5951 13.319 24.6817 13.0958 24.7955L12.4355 23.7526L17.4312 19.1395L17.6453 19.6768H11.0966V18.4199H18.5196V19.695L14.166 23.8528L14.1478 23.3337C15.0404 23.2198 15.8237 23.32 16.5022 23.6388C17.1808 23.953 17.7136 24.4357 18.0961 25.0778C18.4787 25.7245 18.6699 26.4805 18.6699 27.3503C18.6699 28.17 18.4923 28.8941 18.1371 29.5225C17.7819 30.151 17.2946 30.6428 16.6798 30.9935C16.0741 31.335 15.3728 31.5126 14.585 31.5126Z" fill="#FCC670"/>
<path d="M25.1955 31.5215C24.4031 31.5215 23.6927 31.3348 23.0597 30.9705C22.4267 30.6062 21.9258 30.1007 21.5569 29.4677C21.188 28.8347 21.0059 28.1197 21.0059 27.3319V22.3361C21.0059 21.5438 21.188 20.8333 21.5569 20.2003C21.9258 19.5673 22.4267 19.0664 23.0597 18.6975C23.6927 18.3286 24.4077 18.1465 25.1955 18.1465C25.9879 18.1465 26.6983 18.3332 27.3313 18.6975C27.9643 19.0664 28.4653 19.5673 28.8342 20.2003C29.203 20.8333 29.3852 21.5483 29.3852 22.3361V27.3319C29.3852 28.1243 29.203 28.8347 28.8342 29.4677C28.4653 30.1007 27.9643 30.6016 27.3313 30.9705C26.6983 31.3394 25.9879 31.5215 25.1955 31.5215ZM25.1955 30.2555C25.7238 30.2555 26.2065 30.128 26.6391 29.8684C27.0718 29.6089 27.4179 29.2628 27.6729 28.8301C27.9279 28.3975 28.0554 27.9193 28.0554 27.3956V22.2724C28.0554 21.7441 27.9279 21.2614 27.6729 20.8288C27.4179 20.3962 27.0718 20.0501 26.6391 19.7905C26.2065 19.5309 25.7238 19.4034 25.1955 19.4034C24.6673 19.4034 24.1845 19.5309 23.7519 19.7905C23.3193 20.0501 22.9732 20.3962 22.7182 20.8288C22.4631 21.2614 22.3356 21.7441 22.3356 22.2724V27.3956C22.3356 27.9193 22.4631 28.3975 22.7182 28.8301C22.9732 29.2628 23.3193 29.6089 23.7519 29.8684C24.1845 30.1235 24.6673 30.2555 25.1955 30.2555Z" fill="#FCC670"/>
<path d="M10.9427 13.7785C10.6922 13.7785 10.4873 13.5736 10.4873 13.3231V1.4554C10.4873 1.20493 10.6922 1 10.9427 1C11.1932 1 11.3981 1.20493 11.3981 1.4554V13.3231C11.3981 13.5736 11.1932 13.7785 10.9427 13.7785Z" fill="#007947" stroke="#007947"/>
<path d="M29.0452 13.7785C28.7948 13.7785 28.5898 13.5736 28.5898 13.3231V1.4554C28.5898 1.20493 28.7948 1 29.0452 1C29.2957 1 29.5006 1.20493 29.5006 1.4554V13.3231C29.5006 13.5736 29.2957 13.7785 29.0452 13.7785Z" fill="#007947" stroke="#007947"/>
</svg>
