<svg width="16" height="16" viewBox="0 0 16 16" fill="none" xmlns="http://www.w3.org/2000/svg">
<path fill-rule="evenodd" clip-rule="evenodd" d="M8 16C12.4183 16 16 12.4183 16 8C16 3.58173 12.4183 0 8 0C3.58172 0 0 3.58173 0 8C0 12.4183 3.58172 16 8 16ZM6.83881 3.54541H9.16089L8.94854 10.1054H7.05116L6.83881 3.54541ZM9.20244 11.9336C9.19321 12.5983 8.63461 13.1338 8.00216 13.1338C7.33738 13.1338 6.79264 12.5983 6.80187 11.9336C6.79264 11.278 7.33738 10.7471 8.00216 10.7471C8.63461 10.7471 9.19321 11.278 9.20244 11.9336Z" fill="#EE0004"/>
</svg>
