<svg width="12" height="18" viewBox="0 0 12 18" fill="none" xmlns="http://www.w3.org/2000/svg">
<path d="M11.1053 3.94987C11.1053 4.08795 10.9933 4.19987 10.8553 4.19987H9.1048H8.57352C8.11617 4.19987 7.74539 4.57065 7.74539 5.02804V7.68364C7.74539 7.82171 7.85732 7.93364 7.99539 7.93364H10.8139C10.9671 7.93364 11.0843 8.07022 11.061 8.22165L10.6458 10.9204C10.627 11.0423 10.5221 11.1323 10.3987 11.1323H7.99539C7.85732 11.1323 7.74539 11.2443 7.74539 11.3823V16.75C7.74539 16.8881 7.63346 17 7.49539 17H4.30057C4.1625 17 4.05057 16.8881 4.05057 16.75V11.3823C4.05057 11.2443 3.93864 11.1323 3.80057 11.1323H1.25C1.11193 11.1323 1 11.0204 1 10.8823V8.18364C1 8.04557 1.11193 7.93364 1.25 7.93364H3.76438C3.90119 7.93364 4.01259 7.82368 4.01436 7.68689L4.05057 4.89739L4.04497 4.34615C4.02648 2.51671 5.49453 1.01867 7.32396 1.00017C7.33512 1.00005 7.34627 1 7.35743 1H10.8553C10.9933 1 11.1053 1.11193 11.1053 1.25V3.94987Z" stroke="#757373" stroke-width="1.25"/>
</svg>
