<svg width="18" height="18" viewBox="0 0 18 18" fill="none" xmlns="http://www.w3.org/2000/svg">
<path d="M4.16811 4.24416L4.16803 4.24408L4.16422 4.24795C3.89103 4.52577 3.52483 4.69624 3.14127 4.67187L3.14129 4.67162H3.13334C2.76437 4.67162 2.37062 4.52065 2.10247 4.24795L2.10256 4.24787L2.09858 4.24416C1.80776 3.97305 1.65834 3.5743 1.65834 3.1695C1.65834 2.76803 1.80572 2.39283 2.10247 2.09105C2.37062 1.81836 2.73771 1.66738 3.16 1.66738C3.52671 1.66738 3.89453 1.8168 4.16422 2.09105C4.46097 2.39283 4.60834 2.76803 4.60834 3.1695C4.60834 3.5743 4.45893 3.97305 4.16811 4.24416ZM3.16 0.875C2.54134 0.875 1.97541 1.10436 1.55087 1.5361C1.10116 1.99343 0.875 2.56729 0.875 3.16947C0.875 3.8007 1.12921 4.37406 1.55087 4.80288C1.97138 5.23051 2.56343 5.492 3.13646 5.46397H3.13648H3.13654H3.13659H3.13665H3.13671H3.13677H3.13683H3.13689H3.13695H3.13701H3.13708H3.13714H3.1372H3.13727H3.13733H3.13739H3.13746H3.13752H3.13759H3.13766H3.13772H3.13779H3.13786H3.13793H3.13799H3.13806H3.13813H3.1382H3.13827H3.13834H3.13842H3.13849H3.13856H3.13863H3.13871H3.13878H3.13885H3.13893H3.139H3.13908H3.13915H3.13923H3.13931H3.13938H3.13946H3.13954H3.13962H3.1397H3.13977H3.13985H3.13993H3.14001H3.1401H3.14018H3.14026H3.14034H3.14042H3.14051H3.14059H3.14067H3.14076H3.14084H3.14093H3.14101H3.1411H3.14119H3.14127H3.14136H3.14145H3.14153H3.14162H3.14171H3.1418H3.14189H3.14198H3.14207H3.14216H3.14225H3.14234H3.14244H3.14253H3.14262H3.14271H3.14281H3.1429H3.143H3.14309H3.14319H3.14328H3.14338H3.14347H3.14357H3.14367H3.14376H3.14386H3.14396H3.14406H3.14416H3.14426H3.14435H3.14445H3.14455H3.14466H3.14476H3.14486H3.14496H3.14506H3.14516H3.14527H3.14537H3.14547H3.14558H3.14568H3.14579H3.14589H3.146H3.1461H3.14621H3.14631H3.14642H3.14653H3.14663H3.14674H3.14685H3.14696H3.14707H3.14718H3.14729H3.1474H3.14751H3.14762H3.14773H3.14784H3.14795H3.14806H3.14817H3.14828H3.1484H3.14851H3.14862H3.14874H3.14885H3.14897H3.14908H3.14919H3.14931H3.14943H3.14954H3.14966H3.14977H3.14989H3.15001H3.15013H3.15024H3.15036H3.15048H3.1506H3.15072H3.15084H3.15095H3.15107H3.15119H3.15131H3.15144H3.15156H3.15168H3.1518H3.15192H3.15204H3.15217H3.15229H3.15241H3.15253H3.15266H3.15278H3.15291H3.15303H3.15315H3.15328H3.1534H3.15353H3.15366H3.15378H3.15391H3.15403H3.15416H3.15429H3.15442H3.15454H3.15467H3.1548H3.15493H3.15506H3.15518H3.15531H3.15544H3.15557H3.1557H3.15583H3.15596H3.15609H3.15622H3.15636H3.15649H3.15662H3.15675H3.15688H3.15701H3.15715H3.15728H3.15741H3.15755H3.15768H3.15781H3.15795H3.15808H3.15822H3.15835H3.15849H3.15862H3.15876H3.15889H3.15903H3.15916H3.1593H3.15944H3.15957H3.15971H3.15985H3.15998H3.16012H3.16026H3.1604H3.16053H3.16067H3.16081H3.16095H3.16109H3.16123H3.16137H3.16151H3.16165H3.16179H3.16193H3.16207H3.16221H3.16235H3.16249H3.16263H3.16277H3.16291H3.16306H3.1632H3.16334H3.16348H3.16362H3.16377H3.16391H3.16405H3.1642H3.16434H3.16448H3.16463H3.16477H3.16491H3.16506H3.1652H3.16535H3.16549H3.16564H3.16578H3.16593H3.16607H3.16622H3.16636H3.16651H3.16665H3.1668H3.16695H3.16709H3.16724H3.16739H3.16753H3.16768H3.16783H3.16798H3.16812H3.16827H3.16842H3.16857H3.16871H3.16886H3.16901H3.16916H3.16931H3.16946H3.16961H3.16975H3.1699H3.17005H3.1702H3.17035H3.1705H3.17065H3.1708H3.17095H3.1711H3.17125H3.1714H3.17155H3.1717H3.17185H3.17201H3.17216H3.17231H3.17246H3.17261H3.17276H3.17291H3.17306H3.17322H3.17337H3.17352H3.17367H3.17382H3.17398H3.17413H3.17428H3.17443H3.17459H3.17474H3.17489H3.17505H3.1752H3.17535H3.1755H3.17566H3.17581H3.17596H3.17612H3.17627H3.17643H3.17658H3.17673H3.17689H3.17704H3.1772H3.17735H3.1775H3.17766H3.17781H3.17797H3.17812H3.17828H3.17843H3.17859H3.17874H3.17889H3.17905H3.1792H3.17936H3.17951H3.17967H3.17982H3.17998H3.18014H3.18029H3.18045H3.1806H3.18076H3.18091H3.18107H3.18122H3.18138H3.18153H3.18169H3.18185H3.182H3.18216H3.18231H3.18247H3.18263H3.18278H3.18294H3.18309H3.18325H3.18341H3.18356H3.18372H3.18387H3.18403H3.18419H3.18434H3.1845H3.18466H3.18481H3.18497H3.18512H3.18528H3.18544H3.18559H3.18575H3.18591H3.18606H3.18622H3.18637H3.18653H3.18669C3.75547 5.46397 4.2937 5.23215 4.71582 4.80288C5.13683 4.37472 5.3909 3.80246 5.39169 3.17238C5.41921 2.56505 5.16317 1.99171 4.74388 1.56461C4.31933 1.10491 3.75272 0.875 3.16 0.875Z" fill="#757373" stroke="#757373" stroke-width="0.25"/>
<path d="M4.19994 5.75708H2.03994C1.53955 5.75708 1.1416 6.17037 1.1416 6.69564V16.1872C1.1416 16.6881 1.56894 17.1257 2.0666 17.1257H4.19994C4.6949 17.1257 5.12494 16.6908 5.12494 16.2143V6.69564C5.12494 6.19467 4.6976 5.75708 4.19994 5.75708ZM4.3416 16.2143C4.3416 16.2395 4.32919 16.2682 4.30061 16.2934C4.27161 16.3189 4.23381 16.3334 4.19994 16.3334H2.0666C2.04133 16.3334 2.00507 16.3192 1.9724 16.286C1.93986 16.2529 1.92494 16.215 1.92494 16.1872V6.69564C1.92494 6.65938 1.9398 6.61994 1.96508 6.59028C1.99011 6.56091 2.01752 6.54946 2.03994 6.54946H4.19994C4.22521 6.54946 4.26147 6.56362 4.29414 6.59685C4.32669 6.62995 4.3416 6.66777 4.3416 6.69564V16.2143Z" fill="#757373" stroke="#757373" stroke-width="0.25"/>
<path d="M12.7066 5.48511C11.743 5.48511 10.8234 5.86733 10.165 6.49281V6.42367C10.165 6.24816 10.0799 6.08259 9.96245 5.96314C9.84513 5.84383 9.68139 5.75628 9.50664 5.75628H6.83998C6.68512 5.75628 6.52317 5.82477 6.40043 5.93347C6.27633 6.04339 6.18164 6.20428 6.18164 6.39653V16.5118C6.18164 16.7054 6.2777 16.8607 6.40405 16.9644C6.52863 17.0665 6.68968 17.1249 6.83998 17.1249H9.77333C9.92363 17.1249 10.0847 17.0665 10.2093 16.9644C10.3356 16.8607 10.4317 16.7054 10.4317 16.5118V10.6541C10.4317 9.81743 11.0261 9.17913 11.7733 9.17913C12.1678 9.17913 12.5353 9.32934 12.8042 9.6028L12.8041 9.60292L12.8089 9.60737C13.0375 9.81655 13.1417 10.153 13.1417 10.627V16.4576C13.1417 16.6331 13.2268 16.7986 13.3442 16.9181C13.4615 17.0374 13.6253 17.1249 13.8 17.1249H16.4667C16.6414 17.1249 16.8051 17.0374 16.9225 16.9181C17.0399 16.7986 17.125 16.6331 17.125 16.4576V9.46094C17.125 7.22619 15.4461 5.48511 13.2666 5.48511H12.7066ZM16.3416 9.46098V16.3326H13.9511L13.925 10.6271C13.925 10.627 13.925 10.6269 13.925 10.6268C13.9249 9.95565 13.7595 9.43131 13.3825 9.04791C12.9585 8.61676 12.3928 8.38681 11.8 8.38678L11.797 8.38685C10.6048 8.41571 9.67498 9.39757 9.67498 10.6542V16.3326H6.99164V6.54867H9.4083V8.15925V8.46465L9.62243 8.24689L10.3424 7.51469L10.3691 7.48758L10.3763 7.48023L10.3822 7.47179C10.8916 6.74666 11.7863 6.27749 12.7333 6.27749H13.2933C15.0056 6.27749 16.3416 7.6805 16.3416 9.46098Z" fill="#757373" stroke="#757373" stroke-width="0.25"/>
</svg>
