<svg width="18" height="18" viewBox="0 0 18 18" fill="none" xmlns="http://www.w3.org/2000/svg">
<path d="M8.91971 16.3549C10.388 16.3549 11.7228 16.3118 13.013 16.2258C13.9474 16.1828 14.7483 15.8817 15.3712 15.3656C15.9941 14.8925 16.3945 14.2473 16.617 13.4301C16.8394 12.6129 16.8394 11.7527 16.8394 10.8925C16.8394 10.2473 16.8394 9.47313 16.8394 8.65592C16.8394 7.88173 16.8394 7.06452 16.8394 6.41936C16.8394 5.55915 16.7949 4.69893 16.617 3.88172C16.3945 3.06452 15.9941 2.41936 15.3712 1.94624C14.7038 1.43011 13.9029 1.12903 13.013 1.08602C11.6783 1.04301 10.3435 1 8.91971 1C7.45145 1 6.11667 1.04301 4.82638 1.12903C3.89203 1.17204 3.09116 1.47312 2.46826 1.98925C1.84536 2.46237 1.44493 3.10753 1.22246 3.92474C1 4.74194 1 5.60216 1 6.46237C1 7.10753 1 7.92474 1 8.69893C1 9.47313 1 10.2903 1 10.9355C1 11.7957 1.04449 12.6559 1.22246 13.4731C1.44493 14.2903 1.84536 14.9355 2.46826 15.4086C3.13565 15.9248 3.93652 16.2258 4.82638 16.2688C6.11667 16.3118 7.45145 16.3549 8.91971 16.3549Z" stroke="#757373" stroke-width="1.5" stroke-miterlimit="10"/>
<path d="M8.87524 11.6665C10.5953 11.6665 11.9897 10.3186 11.9897 8.65578C11.9897 6.99298 10.5953 5.64502 8.87524 5.64502C7.15515 5.64502 5.76074 6.99298 5.76074 8.65578C5.76074 10.3186 7.15515 11.6665 8.87524 11.6665Z" stroke="#757373" stroke-width="1.5" stroke-miterlimit="10"/>
<path d="M13.3667 5.51944C13.981 5.51944 14.479 5.03802 14.479 4.44417C14.479 3.85031 13.981 3.3689 13.3667 3.3689C12.7524 3.3689 12.2544 3.85031 12.2544 4.44417C12.2544 5.03802 12.7524 5.51944 13.3667 5.51944Z" fill="#757373"/>
</svg>
