<svg width="44" height="51" viewBox="0 0 44 51" fill="none" xmlns="http://www.w3.org/2000/svg">
<path d="M7.74444 39.6146H2.30812C1.58327 39.6146 1 39.0007 1 38.2378L1 16.7987C1 14.2477 2.30245 11.8636 4.39204 10.5881L18.1811 2.16031C20.2706 0.878855 22.8699 0.878855 24.9595 2.16031L38.7485 10.5881C40.8381 11.8636 42.1405 14.2477 42.1349 16.7987L42.1349 38.2378C42.1349 39.0007 41.5516 39.6146 40.8267 39.6146H35.3904" stroke="#FCC670" stroke-width="2" stroke-miterlimit="10"/>
<path d="M28.7874 49.2157H14.3471C13.1466 49.2157 12.1726 48.1905 12.1726 46.9269L12.1726 25.1481C12.1726 23.8845 13.1466 22.8594 14.3471 22.8594L28.7874 22.8594C29.9879 22.8594 30.9619 23.8845 30.9619 25.1481L30.9619 46.9269C30.9619 48.1905 29.9879 49.2157 28.7874 49.2157Z" stroke="white" stroke-width="2" stroke-miterlimit="10"/>
<path d="M22.9262 42.8581C19.3076 43.9727 15.0661 38.7157 22.0937 30.2402C21.7709 32.6065 23.232 34.8118 24.625 36.6654C26.2276 38.7992 25.4065 42.0952 22.9262 42.8581Z" stroke="white" stroke-width="2" stroke-miterlimit="10" stroke-linecap="round" stroke-linejoin="round"/>
</svg>
