<svg width="44" height="42" viewBox="0 0 44 42" fill="none" xmlns="http://www.w3.org/2000/svg">
<path d="M4.91302 37.8988H2.30812C1.58327 37.8988 1 37.3155 1 36.5907L1 16.2215C1 13.7978 2.30245 11.5326 4.39204 10.3208L18.1811 2.31352C20.2706 1.09601 22.8699 1.09601 24.9595 2.31352L38.7485 10.3208C40.8381 11.5326 42.1405 13.7978 42.1349 16.2215L42.1349 36.5907C42.1349 37.3155 41.5516 37.8988 40.8267 37.8988H38.2218" stroke="#FCC670" stroke-width="2" stroke-miterlimit="10"/>
<path d="M16.4539 37.8984H23.9345V27.8072V25.089C23.9345 24.4548 23.4192 23.9395 22.7849 23.9395L9.40932 23.9395C8.77508 23.9395 8.25977 24.4548 8.25977 25.089L8.25977 36.7545C8.25977 37.3887 8.77508 37.904 9.40932 37.904H11.2328" stroke="white" stroke-width="2" stroke-miterlimit="10"/>
<path d="M26.794 37.8978H23.9399V27.8066H28.7817C29.1837 27.8066 29.5801 27.9425 29.8972 28.1974L34.0651 31.5158C34.5804 31.9235 34.8806 32.5464 34.8806 33.2033V36.9635C34.8806 37.4788 34.4615 37.8922 33.9518 37.8922H32.0265" stroke="white" stroke-width="2" stroke-miterlimit="10"/>
<path d="M13.843 40.5137C15.2879 40.5137 16.4593 39.3424 16.4593 37.8975C16.4593 36.4526 15.2879 35.2812 13.843 35.2812C12.3981 35.2812 11.2268 36.4526 11.2268 37.8975C11.2268 39.3424 12.3981 40.5137 13.843 40.5137Z" stroke="white" stroke-width="2" stroke-miterlimit="10"/>
<path d="M29.4046 40.5137C30.8495 40.5137 32.0208 39.3424 32.0208 37.8975C32.0208 36.4526 30.8495 35.2812 29.4046 35.2812C27.9597 35.2812 26.7883 36.4526 26.7883 37.8975C26.7883 39.3424 27.9597 40.5137 29.4046 40.5137Z" stroke="white" stroke-width="2" stroke-miterlimit="10"/>
</svg>
