<svg width="44" height="40" viewBox="0 0 44 40" fill="none" xmlns="http://www.w3.org/2000/svg">
<path d="M21.5603 29.5868V37.0312C21.5603 37.7568 20.9771 38.3408 20.2523 38.3408H2.30802C1.58323 38.3408 1 37.7568 1 37.0312L1 16.6387C1 14.2123 2.30236 11.9446 4.3918 10.7313L18.1798 2.71495C20.2693 1.49606 22.8684 1.49606 24.9578 2.71495L38.7458 10.7313C40.8353 11.9446 42.1376 14.2123 42.132 16.6387L42.132 37.0312C42.132 37.7568 41.5487 38.3408 40.824 38.3408H27.2964" stroke="#FCC670" stroke-width="2" stroke-miterlimit="10"/>
<path d="M28.6498 24.9673C26.7925 26.8268 24.1708 27.4334 21.8039 26.8041C21.1697 24.44 21.7813 21.8038 23.6385 19.9499C25.4958 18.0904 28.1232 17.4838 30.4844 18.1131C31.113 20.4828 30.5014 23.1077 28.6498 24.9673Z" stroke="white" stroke-width="2" stroke-miterlimit="10"/>
<path d="M19.5539 23.3787C21.4112 25.3029 22.0171 28.0191 21.3885 30.4713C19.0273 31.1283 16.3943 30.4947 14.5426 28.5705C12.6854 26.6463 12.0795 23.9243 12.708 21.478C15.0749 20.8268 17.7023 21.4604 19.5539 23.3787Z" stroke="white" stroke-width="2" stroke-miterlimit="10"/>
</svg>
