<svg width="44" height="46" viewBox="0 0 44 46" fill="none" xmlns="http://www.w3.org/2000/svg">
<path d="M8.56135 38.0955H3.12541C2.40061 38.0955 1.81738 37.5122 1.81738 36.7874L1.81738 16.4196C1.81738 13.9961 3.11974 11.7311 5.20919 10.5194L18.9972 2.51268C21.0867 1.29525 23.6857 1.29525 25.7752 2.51268L39.5632 10.5194C41.6527 11.7311 42.955 13.9961 42.9494 16.4196L42.9494 36.7874C42.9494 37.5122 42.3661 38.0955 41.6413 38.0955H36.2054" stroke="#FCC670" stroke-width="2" stroke-miterlimit="10"/>
<path fill-rule="evenodd" clip-rule="evenodd" d="M24.892 40.4445C25.0505 40.1388 25.1807 39.8217 25.2883 39.4933C25.3959 39.1592 25.7074 38.927 26.0471 38.927H26.4038C26.8512 38.927 27.2136 38.5646 27.2136 38.1173V36.9905C27.2136 36.5431 26.8512 36.1807 26.4038 36.1807H26.0528C25.7017 36.1807 25.3959 35.9486 25.2883 35.6145C25.1807 35.2861 25.0505 34.969 24.892 34.6632C24.7277 34.3461 24.7844 33.9667 25.0335 33.7176L25.2827 33.4684C25.5998 33.1513 25.5998 32.6417 25.2827 32.3246L24.4843 31.5262C24.1672 31.2091 23.6575 31.2091 23.3404 31.5262L23.0913 31.7754C22.8422 32.0245 22.4571 32.0811 22.1457 31.9169C21.8399 31.7584 21.5228 31.6281 21.1944 31.5205C20.8603 31.413 20.6281 31.1015 20.6281 30.7504V30.3937C20.6281 29.9464 20.2657 29.584 19.8184 29.584H18.6859C18.2386 29.584 17.8762 29.9464 17.8762 30.3937V30.7504C17.8762 31.1072 17.644 31.413 17.3099 31.5205C16.9759 31.6281 16.6588 31.7584 16.3587 31.9169C16.0416 32.0811 15.6622 32.0245 15.413 31.7754L15.1639 31.5262C14.8468 31.2091 14.3372 31.2091 14.0201 31.5262L13.2217 32.3246C12.9046 32.6417 12.9046 33.1513 13.2217 33.4684L13.4708 33.7176C13.72 33.9667 13.7766 34.3518 13.6124 34.6632C13.4538 34.9633 13.3236 35.2861 13.216 35.6145C13.1084 35.9486 12.8026 36.1807 12.4516 36.1807H12.1005C11.6532 36.1807 11.2908 36.5431 11.2908 36.9905V38.1173C11.2908 38.5646 11.6532 38.927 12.1005 38.927H12.4516C12.8083 38.927 13.1141 39.1592 13.2217 39.4933C13.3236 39.8217 13.4538 40.1388 13.6124 40.4445C13.7766 40.7616 13.72 41.141 13.4708 41.3902L13.2217 41.6393C12.9046 41.9564 12.9046 42.466 13.2217 42.7831L14.0201 43.5815C14.3372 43.8986 14.8468 43.8986 15.1639 43.5815L15.413 43.3324C15.6622 43.0832 16.0472 43.0266 16.3587 43.1908C16.6644 43.3437 16.9815 43.474 17.3099 43.5815C17.644 43.6891 17.8762 44.0006 17.8762 44.3516V44.7084C17.8762 45.1557 18.2386 45.5181 18.6859 45.5181H19.8184C20.2657 45.5181 20.6281 45.1557 20.6281 44.7084V44.3573C20.6281 44.0006 20.8603 43.6948 21.1944 43.5872C21.5228 43.4796 21.8399 43.3494 22.1457 43.1908C22.4628 43.0266 22.8422 43.0832 23.0913 43.3324L23.3404 43.5815C23.6575 43.8986 24.1672 43.8986 24.4843 43.5815L25.2827 42.7831C25.5998 42.466 25.5998 41.9564 25.2827 41.6393L25.0335 41.3902C24.7844 41.141 24.7277 40.756 24.892 40.4445ZM23.7824 37.5569C23.7824 40.0525 21.7593 42.0756 19.2637 42.0756C16.7681 42.0756 14.745 40.0525 14.745 37.5569C14.745 35.0613 16.7681 33.0382 19.2637 33.0382C21.7593 33.0382 23.7824 35.0613 23.7824 37.5569Z" fill="white"/>
<path fill-rule="evenodd" clip-rule="evenodd" d="M35.622 32.0981C35.7975 31.7923 35.9334 31.4639 36.0297 31.1128C36.058 30.9996 36.1599 30.9203 36.2618 30.9203H36.9923C37.1395 30.9203 37.2528 30.8014 37.2528 30.6598V29.3461C37.2528 29.1989 37.1339 29.0857 36.9923 29.0857H36.2675C36.1486 29.0857 36.0467 29.0064 36.0184 28.8931C35.9278 28.5477 35.7862 28.2136 35.6107 27.9079C35.554 27.8059 35.5654 27.6814 35.6503 27.5964L36.1656 27.0812C36.2675 26.9849 36.2675 26.8207 36.1656 26.7188L35.2369 25.7901C35.1407 25.6882 34.9765 25.6882 34.8745 25.7901L34.3593 26.3054C34.28 26.3903 34.1498 26.4017 34.0478 26.345C33.7421 26.1695 33.4136 26.0336 33.0626 25.9373C32.9493 25.9034 32.87 25.8071 32.87 25.6882V24.9577C32.87 24.8105 32.7511 24.6973 32.6096 24.6973H31.2902C31.143 24.6973 31.0297 24.8162 31.0297 24.9577V25.6882C31.0297 25.8071 30.9505 25.909 30.8372 25.9373C30.4862 26.0279 30.1577 26.1695 29.852 26.345C29.75 26.4017 29.6255 26.3903 29.5405 26.3054L29.0252 25.7901C28.929 25.6882 28.7648 25.6882 28.6628 25.7901L27.7342 26.7188C27.6323 26.815 27.6323 26.9792 27.7342 27.0812L28.2438 27.5964C28.3288 27.6814 28.3401 27.8059 28.2835 27.9079C28.1079 28.2136 27.972 28.5421 27.8758 28.8931C27.8418 29.0064 27.7455 29.0857 27.6266 29.0857H26.9018C26.7546 29.0857 26.6414 29.2046 26.6414 29.3461V30.6711C26.6414 30.8184 26.7603 30.9316 26.9018 30.9316H27.6436C27.7625 30.9316 27.8644 31.0109 27.8928 31.1241C27.9834 31.4695 28.1249 31.8036 28.3005 32.1094C28.3571 32.2113 28.3458 32.3359 28.2608 32.4208L27.7455 32.9361C27.6436 33.0324 27.6436 33.1966 27.7455 33.2985L28.6742 34.2272C28.7704 34.3291 28.9346 34.3291 29.0366 34.2272L29.5519 33.7119C29.6311 33.6269 29.7614 33.6156 29.8633 33.6722C30.1691 33.8478 30.4975 33.9837 30.8486 34.0799C30.9618 34.1139 31.0411 34.2102 31.0411 34.3291V35.0425C31.0411 35.1898 31.16 35.303 31.3015 35.303H32.6209C32.7681 35.303 32.8814 35.1841 32.8814 35.0425V34.3178C32.8814 34.1988 32.9606 34.0969 33.0739 34.0686C33.4193 33.978 33.7534 33.8364 34.0592 33.6609C34.1611 33.6043 34.2857 33.6156 34.3706 33.7005L34.8859 34.2158C34.9821 34.3178 35.1463 34.3178 35.2483 34.2158L36.1769 33.2872C36.2788 33.1909 36.2788 33.0267 36.1769 32.9248L35.6616 32.4095C35.5767 32.3302 35.5654 32.2 35.622 32.0981ZM34.5846 30.0027C34.5846 31.456 33.4066 32.6341 31.9533 32.6341C30.5001 32.6341 29.322 31.456 29.322 30.0027C29.322 28.5495 30.5001 27.3714 31.9533 27.3714C33.4066 27.3714 34.5846 28.5495 34.5846 30.0027Z" fill="white"/>
</svg>
