<svg width="17" height="24" viewBox="0 0 17 24" fill="none" xmlns="http://www.w3.org/2000/svg">
<path d="M8.54946 1C12.0935 1.09793 14.9092 3.35022 15.7831 6.77763C16.2686 8.58926 15.8802 10.303 15.2005 12.0167C13.7926 15.493 11.6565 18.5287 9.47187 21.5155C9.22913 21.8093 8.98639 22.152 8.74366 22.4458C8.59801 22.6906 8.45237 22.6906 8.25818 22.4458C6.36481 20.0956 4.61709 17.5985 3.16066 14.9544C2.3839 13.5345 1.70423 12.0656 1.2673 10.4988C0.0536015 6.09215 3.11211 1.53859 7.62706 1.04896C7.91834 0.999996 8.20963 1 8.54946 1ZM11.608 8.49133C11.608 6.77763 10.2001 5.30874 8.50092 5.30874C6.7532 5.30874 5.39386 6.72866 5.39386 8.49133C5.39386 10.254 6.80174 11.6739 8.50092 11.6739C10.2001 11.625 11.608 10.205 11.608 8.49133Z" stroke="#007947" stroke-miterlimit="10"/>
<path d="M11.4509 8.41892C11.4509 10.1326 10.043 11.5525 8.34388 11.6015C6.6447 11.6015 5.23682 10.1816 5.23682 8.41892C5.23682 6.65625 6.59616 5.28529 8.34388 5.23633C10.043 5.23633 11.4509 6.70522 11.4509 8.41892Z" stroke="#007947" stroke-miterlimit="10"/>
</svg>
