<svg width="24" height="24" viewBox="0 0 24 24" fill="none" xmlns="http://www.w3.org/2000/svg">
<path d="M17.982 22.2244L15.0122 23.0506C13.1689 23.5671 11.2232 22.999 9.84066 21.6563L2.56974 14.3232C1.23845 12.9805 0.675208 10.9665 1.18724 9.10741L2.0065 6.1122C2.26252 5.18265 3.44021 4.8728 4.10585 5.54414L6.81965 8.28115C7.22928 8.69428 7.38289 9.26234 7.22928 9.77875L6.81965 11.3796C6.66604 11.9477 6.81965 12.5674 7.22928 12.9805L11.1208 16.9053C11.5304 17.3184 12.1448 17.4733 12.7081 17.3184L14.3466 16.9053C14.9098 16.7504 15.4731 16.9053 15.8315 17.3184L18.5453 20.0554C19.2621 20.7784 18.9037 21.9662 17.982 22.2244Z" stroke="#007947" stroke-miterlimit="10"/>
<path d="M11.1208 1C17.6749 1 23.0001 6.37072 23.0001 12.9808" stroke="#007947" stroke-miterlimit="10" stroke-linecap="round" stroke-linejoin="round"/>
<path d="M11.1208 5.95703C14.9611 5.95703 18.0845 9.10717 18.0845 12.9803" stroke="#007947" stroke-miterlimit="10" stroke-linecap="round" stroke-linejoin="round"/>
</svg>
