<svg width="44" height="44" viewBox="0 0 44 44" fill="none" xmlns="http://www.w3.org/2000/svg">
<path d="M7.74397 37.534H2.30802C1.58323 37.534 1 36.9502 1 36.2246L1 15.8355C1 13.4095 2.30236 11.1421 4.3918 9.92908L18.1798 1.91402C20.2693 0.695326 22.8684 0.695326 24.9578 1.91402L38.7458 9.92908C40.8353 11.1421 42.1376 13.4095 42.132 15.8355L42.132 36.2246C42.132 36.9502 41.5487 37.534 40.824 37.534H35.388" stroke="#FCC670" stroke-width="2" stroke-miterlimit="10"/>
<path d="M21.5658 32.6815C24.9089 32.6815 27.619 29.9685 27.619 26.622C27.619 23.2754 24.9089 20.5625 21.5658 20.5625C18.2228 20.5625 15.5127 23.2754 15.5127 26.622C15.5127 29.9685 18.2228 32.6815 21.5658 32.6815Z" stroke="white" stroke-width="2" stroke-miterlimit="10"/>
<path d="M10.887 43.2647C10.887 37.3583 15.6661 32.5742 21.5663 32.5742C27.4666 32.5742 32.2457 37.3583 32.2457 43.2647" stroke="white" stroke-width="2" stroke-miterlimit="10"/>
</svg>
