<svg width="17" height="17" viewBox="0 0 17 17" fill="none" xmlns="http://www.w3.org/2000/svg">
<mask id="path-1-inside-1" fill="white">
<path d="M2.1727 0.859375C1.58604 0.859375 1.0527 1.06866 0.652695 1.46106C0.226039 1.8796 0.0126953 2.40278 0.0126953 2.95213C0.0126953 3.52764 0.252695 4.05084 0.652695 4.44324C1.0527 4.83563 1.6127 5.07107 2.14604 5.04492C2.14604 5.04492 2.1727 5.04492 2.19938 5.04492C2.73273 5.04492 3.23938 4.83563 3.63938 4.44324C4.03938 4.05084 4.27938 3.52764 4.27938 2.95213C4.30604 2.40278 4.06604 1.87957 3.66604 1.48718C3.26604 1.06863 2.7327 0.859375 2.1727 0.859375ZM3.26604 4.07702C2.9727 4.36479 2.5727 4.5479 2.14604 4.52175C1.74604 4.52175 1.31938 4.36479 1.02604 4.07702C0.706039 3.78926 0.546039 3.37071 0.546039 2.95216C0.546039 2.53362 0.706039 2.14122 1.02604 1.82731C1.31938 1.53954 1.71938 1.38258 2.1727 1.38258C2.5727 1.38258 2.9727 1.53954 3.26604 1.82731C3.58604 2.14122 3.74604 2.53362 3.74604 2.95216C3.74604 3.37071 3.58604 3.78926 3.26604 4.07702Z"/>
</mask>
<path d="M2.1727 0.859375C1.58604 0.859375 1.0527 1.06866 0.652695 1.46106C0.226039 1.8796 0.0126953 2.40278 0.0126953 2.95213C0.0126953 3.52764 0.252695 4.05084 0.652695 4.44324C1.0527 4.83563 1.6127 5.07107 2.14604 5.04492C2.14604 5.04492 2.1727 5.04492 2.19938 5.04492C2.73273 5.04492 3.23938 4.83563 3.63938 4.44324C4.03938 4.05084 4.27938 3.52764 4.27938 2.95213C4.30604 2.40278 4.06604 1.87957 3.66604 1.48718C3.26604 1.06863 2.7327 0.859375 2.1727 0.859375ZM3.26604 4.07702C2.9727 4.36479 2.5727 4.5479 2.14604 4.52175C1.74604 4.52175 1.31938 4.36479 1.02604 4.07702C0.706039 3.78926 0.546039 3.37071 0.546039 2.95216C0.546039 2.53362 0.706039 2.14122 1.02604 1.82731C1.31938 1.53954 1.71938 1.38258 2.1727 1.38258C2.5727 1.38258 2.9727 1.53954 3.26604 1.82731C3.58604 2.14122 3.74604 2.53362 3.74604 2.95216C3.74604 3.37071 3.58604 3.78926 3.26604 4.07702Z" fill="#757373"/>
<path d="M2.14604 5.04492V2.04492H2.07254L1.99913 2.04852L2.14604 5.04492ZM4.27938 2.95213L1.28291 2.80674L1.27938 2.87939V2.95213H4.27938ZM3.66604 1.48718L1.49721 3.5599L1.53064 3.59488L1.56517 3.62876L3.66604 1.48718ZM3.26604 4.07702L1.26004 1.84633L1.21164 1.88986L1.16517 1.93544L3.26604 4.07702ZM2.14604 4.52175L2.32956 1.52737L2.23789 1.52175H2.14604V4.52175ZM1.02604 4.07702L3.12691 1.93544L3.08044 1.88986L3.03204 1.84633L1.02604 4.07702ZM2.1727 -2.14062C0.85188 -2.14062 -0.451573 -1.65817 -1.44817 -0.680519L2.75356 3.60264C2.66458 3.68993 2.55743 3.75881 2.44472 3.80333C2.33343 3.84728 2.23783 3.85938 2.1727 3.85938V-2.14062ZM-1.44817 -0.680519C-2.43988 0.292341 -2.9873 1.58318 -2.9873 2.95213H3.0127C3.0127 3.0703 2.98877 3.20096 2.93503 3.32781C2.88122 3.45482 2.81107 3.54622 2.75356 3.60264L-1.44817 -0.680519ZM-2.9873 2.95213C-2.9873 4.39461 -2.37796 5.67271 -1.44817 6.58482L2.75356 2.30166C2.88335 2.42898 3.0127 2.66066 3.0127 2.95213H-2.9873ZM-1.44817 6.58482C-0.526789 7.48868 0.823345 8.11338 2.29295 8.04132L1.99913 2.04852C2.21868 2.03776 2.38108 2.08192 2.48192 2.12303C2.58385 2.16458 2.67332 2.22294 2.75356 2.30166L-1.44817 6.58482ZM2.14604 5.04492C2.14604 8.04492 2.14604 8.04492 2.14604 8.04492C2.14604 8.04492 2.14604 8.04492 2.14604 8.04492C2.14604 8.04492 2.14604 8.04492 2.14604 8.04492C2.14604 8.04492 2.14604 8.04492 2.14604 8.04492C2.14604 8.04492 2.14605 8.04492 2.14605 8.04492C2.14605 8.04492 2.14605 8.04492 2.14605 8.04492C2.14605 8.04492 2.14605 8.04492 2.14605 8.04492C2.14606 8.04492 2.14606 8.04492 2.14606 8.04492C2.14606 8.04492 2.14606 8.04492 2.14606 8.04492C2.14607 8.04492 2.14607 8.04492 2.14607 8.04492C2.14607 8.04492 2.14607 8.04492 2.14608 8.04492C2.14608 8.04492 2.14608 8.04492 2.14608 8.04492C2.14609 8.04492 2.14609 8.04492 2.14609 8.04492C2.14609 8.04492 2.1461 8.04492 2.1461 8.04492C2.1461 8.04492 2.1461 8.04492 2.14611 8.04492C2.14611 8.04492 2.14611 8.04492 2.14612 8.04492C2.14612 8.04492 2.14612 8.04492 2.14613 8.04492C2.14613 8.04492 2.14613 8.04492 2.14614 8.04492C2.14614 8.04492 2.14614 8.04492 2.14615 8.04492C2.14615 8.04492 2.14616 8.04492 2.14616 8.04492C2.14616 8.04492 2.14617 8.04492 2.14617 8.04492C2.14618 8.04492 2.14618 8.04492 2.14618 8.04492C2.14619 8.04492 2.14619 8.04492 2.1462 8.04492C2.1462 8.04492 2.14621 8.04492 2.14621 8.04492C2.14622 8.04492 2.14622 8.04492 2.14623 8.04492C2.14623 8.04492 2.14624 8.04492 2.14624 8.04492C2.14625 8.04492 2.14625 8.04492 2.14626 8.04492C2.14626 8.04492 2.14627 8.04492 2.14627 8.04492C2.14628 8.04492 2.14628 8.04492 2.14629 8.04492C2.1463 8.04492 2.1463 8.04492 2.14631 8.04492C2.14631 8.04492 2.14632 8.04492 2.14633 8.04492C2.14633 8.04492 2.14634 8.04492 2.14634 8.04492C2.14635 8.04492 2.14636 8.04492 2.14636 8.04492C2.14637 8.04492 2.14638 8.04492 2.14638 8.04492C2.14639 8.04492 2.1464 8.04492 2.1464 8.04492C2.14641 8.04492 2.14642 8.04492 2.14643 8.04492C2.14643 8.04492 2.14644 8.04492 2.14645 8.04492C2.14645 8.04492 2.14646 8.04492 2.14647 8.04492C2.14648 8.04492 2.14648 8.04492 2.14649 8.04492C2.1465 8.04492 2.14651 8.04492 2.14651 8.04492C2.14652 8.04492 2.14653 8.04492 2.14654 8.04492C2.14655 8.04492 2.14655 8.04492 2.14656 8.04492C2.14657 8.04492 2.14658 8.04492 2.14659 8.04492C2.1466 8.04492 2.1466 8.04492 2.14661 8.04492C2.14662 8.04492 2.14663 8.04492 2.14664 8.04492C2.14665 8.04492 2.14666 8.04492 2.14667 8.04492C2.14667 8.04492 2.14668 8.04492 2.14669 8.04492C2.1467 8.04492 2.14671 8.04492 2.14672 8.04492C2.14673 8.04492 2.14674 8.04492 2.14675 8.04492C2.14676 8.04492 2.14677 8.04492 2.14678 8.04492C2.14679 8.04492 2.1468 8.04492 2.14681 8.04492C2.14682 8.04492 2.14683 8.04492 2.14684 8.04492C2.14685 8.04492 2.14686 8.04492 2.14687 8.04492C2.14688 8.04492 2.14689 8.04492 2.1469 8.04492C2.14691 8.04492 2.14692 8.04492 2.14693 8.04492C2.14694 8.04492 2.14695 8.04492 2.14696 8.04492C2.14697 8.04492 2.14698 8.04492 2.14699 8.04492C2.147 8.04492 2.14702 8.04492 2.14703 8.04492C2.14704 8.04492 2.14705 8.04492 2.14706 8.04492C2.14707 8.04492 2.14708 8.04492 2.14709 8.04492C2.14711 8.04492 2.14712 8.04492 2.14713 8.04492C2.14714 8.04492 2.14715 8.04492 2.14716 8.04492C2.14718 8.04492 2.14719 8.04492 2.1472 8.04492C2.14721 8.04492 2.14722 8.04492 2.14724 8.04492C2.14725 8.04492 2.14726 8.04492 2.14727 8.04492C2.14729 8.04492 2.1473 8.04492 2.14731 8.04492C2.14732 8.04492 2.14734 8.04492 2.14735 8.04492C2.14736 8.04492 2.14737 8.04492 2.14739 8.04492C2.1474 8.04492 2.14741 8.04492 2.14743 8.04492C2.14744 8.04492 2.14745 8.04492 2.14747 8.04492C2.14748 8.04492 2.14749 8.04492 2.14751 8.04492C2.14752 8.04492 2.14753 8.04492 2.14755 8.04492C2.14756 8.04492 2.14757 8.04492 2.14759 8.04492C2.1476 8.04492 2.14762 8.04492 2.14763 8.04492C2.14764 8.04492 2.14766 8.04492 2.14767 8.04492C2.14769 8.04492 2.1477 8.04492 2.14771 8.04492C2.14773 8.04492 2.14774 8.04492 2.14776 8.04492C2.14777 8.04492 2.14779 8.04492 2.1478 8.04492C2.14782 8.04492 2.14783 8.04492 2.14785 8.04492C2.14786 8.04492 2.14787 8.04492 2.14789 8.04492C2.1479 8.04492 2.14792 8.04492 2.14794 8.04492C2.14795 8.04492 2.14797 8.04492 2.14798 8.04492C2.148 8.04492 2.14801 8.04492 2.14803 8.04492C2.14804 8.04492 2.14806 8.04492 2.14807 8.04492C2.14809 8.04492 2.14811 8.04492 2.14812 8.04492C2.14814 8.04492 2.14815 8.04492 2.14817 8.04492C2.14819 8.04492 2.1482 8.04492 2.14822 8.04492C2.14823 8.04492 2.14825 8.04492 2.14827 8.04492C2.14828 8.04492 2.1483 8.04492 2.14832 8.04492C2.14833 8.04492 2.14835 8.04492 2.14837 8.04492C2.14838 8.04492 2.1484 8.04492 2.14842 8.04492C2.14843 8.04492 2.14845 8.04492 2.14847 8.04492C2.14848 8.04492 2.1485 8.04492 2.14852 8.04492C2.14854 8.04492 2.14855 8.04492 2.14857 8.04492C2.14859 8.04492 2.1486 8.04492 2.14862 8.04492C2.14864 8.04492 2.14866 8.04492 2.14867 8.04492C2.14869 8.04492 2.14871 8.04492 2.14873 8.04492C2.14875 8.04492 2.14876 8.04492 2.14878 8.04492C2.1488 8.04492 2.14882 8.04492 2.14884 8.04492C2.14885 8.04492 2.14887 8.04492 2.14889 8.04492C2.14891 8.04492 2.14893 8.04492 2.14895 8.04492C2.14897 8.04492 2.14898 8.04492 2.149 8.04492C2.14902 8.04492 2.14904 8.04492 2.14906 8.04492C2.14908 8.04492 2.1491 8.04492 2.14912 8.04492C2.14913 8.04492 2.14915 8.04492 2.14917 8.04492C2.14919 8.04492 2.14921 8.04492 2.14923 8.04492C2.14925 8.04492 2.14927 8.04492 2.14929 8.04492C2.14931 8.04492 2.14933 8.04492 2.14935 8.04492C2.14937 8.04492 2.14939 8.04492 2.14941 8.04492C2.14943 8.04492 2.14945 8.04492 2.14947 8.04492C2.14949 8.04492 2.14951 8.04492 2.14953 8.04492C2.14955 8.04492 2.14957 8.04492 2.14959 8.04492C2.14961 8.04492 2.14963 8.04492 2.14965 8.04492C2.14967 8.04492 2.14969 8.04492 2.14971 8.04492C2.14973 8.04492 2.14975 8.04492 2.14977 8.04492C2.14979 8.04492 2.14981 8.04492 2.14983 8.04492C2.14986 8.04492 2.14988 8.04492 2.1499 8.04492C2.14992 8.04492 2.14994 8.04492 2.14996 8.04492C2.14998 8.04492 2.15 8.04492 2.15002 8.04492C2.15005 8.04492 2.15007 8.04492 2.15009 8.04492C2.15011 8.04492 2.15013 8.04492 2.15015 8.04492C2.15018 8.04492 2.1502 8.04492 2.15022 8.04492C2.15024 8.04492 2.15026 8.04492 2.15029 8.04492C2.15031 8.04492 2.15033 8.04492 2.15035 8.04492C2.15037 8.04492 2.1504 8.04492 2.15042 8.04492C2.15044 8.04492 2.15046 8.04492 2.15049 8.04492C2.15051 8.04492 2.15053 8.04492 2.15055 8.04492C2.15058 8.04492 2.1506 8.04492 2.15062 8.04492C2.15064 8.04492 2.15067 8.04492 2.15069 8.04492C2.15071 8.04492 2.15074 8.04492 2.15076 8.04492C2.15078 8.04492 2.1508 8.04492 2.15083 8.04492C2.15085 8.04492 2.15087 8.04492 2.1509 8.04492C2.15092 8.04492 2.15094 8.04492 2.15097 8.04492C2.15099 8.04492 2.15102 8.04492 2.15104 8.04492C2.15106 8.04492 2.15109 8.04492 2.15111 8.04492C2.15113 8.04492 2.15116 8.04492 2.15118 8.04492C2.15121 8.04492 2.15123 8.04492 2.15125 8.04492C2.15128 8.04492 2.1513 8.04492 2.15133 8.04492C2.15135 8.04492 2.15138 8.04492 2.1514 8.04492C2.15142 8.04492 2.15145 8.04492 2.15147 8.04492C2.1515 8.04492 2.15152 8.04492 2.15155 8.04492C2.15157 8.04492 2.1516 8.04492 2.15162 8.04492C2.15165 8.04492 2.15167 8.04492 2.1517 8.04492C2.15172 8.04492 2.15175 8.04492 2.15177 8.04492C2.1518 8.04492 2.15182 8.04492 2.15185 8.04492C2.15187 8.04492 2.1519 8.04492 2.15192 8.04492C2.15195 8.04492 2.15198 8.04492 2.152 8.04492C2.15203 8.04492 2.15205 8.04492 2.15208 8.04492C2.1521 8.04492 2.15213 8.04492 2.15216 8.04492C2.15218 8.04492 2.15221 8.04492 2.15223 8.04492C2.15226 8.04492 2.15229 8.04492 2.15231 8.04492C2.15234 8.04492 2.15236 8.04492 2.15239 8.04492C2.15242 8.04492 2.15244 8.04492 2.15247 8.04492C2.1525 8.04492 2.15252 8.04492 2.15255 8.04492C2.15258 8.04492 2.1526 8.04492 2.15263 8.04492C2.15266 8.04492 2.15268 8.04492 2.15271 8.04492C2.15274 8.04492 2.15276 8.04492 2.15279 8.04492C2.15282 8.04492 2.15284 8.04492 2.15287 8.04492C2.1529 8.04492 2.15293 8.04492 2.15295 8.04492C2.15298 8.04492 2.15301 8.04492 2.15304 8.04492C2.15306 8.04492 2.15309 8.04492 2.15312 8.04492C2.15315 8.04492 2.15317 8.04492 2.1532 8.04492C2.15323 8.04492 2.15326 8.04492 2.15328 8.04492C2.15331 8.04492 2.15334 8.04492 2.15337 8.04492C2.1534 8.04492 2.15342 8.04492 2.15345 8.04492C2.15348 8.04492 2.15351 8.04492 2.15354 8.04492C2.15357 8.04492 2.15359 8.04492 2.15362 8.04492C2.15365 8.04492 2.15368 8.04492 2.15371 8.04492C2.15374 8.04492 2.15377 8.04492 2.15379 8.04492C2.15382 8.04492 2.15385 8.04492 2.15388 8.04492C2.15391 8.04492 2.15394 8.04492 2.15397 8.04492C2.154 8.04492 2.15403 8.04492 2.15405 8.04492C2.15408 8.04492 2.15411 8.04492 2.15414 8.04492C2.15417 8.04492 2.1542 8.04492 2.15423 8.04492C2.15426 8.04492 2.15429 8.04492 2.15432 8.04492C2.15435 8.04492 2.15438 8.04492 2.15441 8.04492C2.15444 8.04492 2.15447 8.04492 2.1545 8.04492C2.15453 8.04492 2.15456 8.04492 2.15459 8.04492C2.15462 8.04492 2.15465 8.04492 2.15468 8.04492C2.15471 8.04492 2.15474 8.04492 2.15477 8.04492C2.1548 8.04492 2.15483 8.04492 2.15486 8.04492C2.15489 8.04492 2.15492 8.04492 2.15495 8.04492C2.15498 8.04492 2.15501 8.04492 2.15504 8.04492C2.15507 8.04492 2.1551 8.04492 2.15513 8.04492C2.15516 8.04492 2.15519 8.04492 2.15522 8.04492C2.15525 8.04492 2.15529 8.04492 2.15532 8.04492C2.15535 8.04492 2.15538 8.04492 2.15541 8.04492C2.15544 8.04492 2.15547 8.04492 2.1555 8.04492C2.15553 8.04492 2.15557 8.04492 2.1556 8.04492C2.15563 8.04492 2.15566 8.04492 2.15569 8.04492C2.15572 8.04492 2.15575 8.04492 2.15579 8.04492C2.15582 8.04492 2.15585 8.04492 2.15588 8.04492C2.15591 8.04492 2.15594 8.04492 2.15598 8.04492C2.15601 8.04492 2.15604 8.04492 2.15607 8.04492C2.1561 8.04492 2.15614 8.04492 2.15617 8.04492C2.1562 8.04492 2.15623 8.04492 2.15626 8.04492C2.1563 8.04492 2.15633 8.04492 2.15636 8.04492C2.15639 8.04492 2.15643 8.04492 2.15646 8.04492C2.15649 8.04492 2.15652 8.04492 2.15656 8.04492C2.15659 8.04492 2.15662 8.04492 2.15665 8.04492C2.15669 8.04492 2.15672 8.04492 2.15675 8.04492C2.15679 8.04492 2.15682 8.04492 2.15685 8.04492C2.15688 8.04492 2.15692 8.04492 2.15695 8.04492C2.15698 8.04492 2.15702 8.04492 2.15705 8.04492C2.15708 8.04492 2.15712 8.04492 2.15715 8.04492C2.15718 8.04492 2.15722 8.04492 2.15725 8.04492C2.15728 8.04492 2.15732 8.04492 2.15735 8.04492C2.15738 8.04492 2.15742 8.04492 2.15745 8.04492C2.15749 8.04492 2.15752 8.04492 2.15755 8.04492C2.15759 8.04492 2.15762 8.04492 2.15765 8.04492C2.15769 8.04492 2.15772 8.04492 2.15776 8.04492C2.15779 8.04492 2.15783 8.04492 2.15786 8.04492C2.15789 8.04492 2.15793 8.04492 2.15796 8.04492C2.158 8.04492 2.15803 8.04492 2.15807 8.04492C2.1581 8.04492 2.15813 8.04492 2.15817 8.04492C2.1582 8.04492 2.15824 8.04492 2.15827 8.04492C2.15831 8.04492 2.15834 8.04492 2.15838 8.04492C2.15841 8.04492 2.15845 8.04492 2.15848 8.04492C2.15852 8.04492 2.15855 8.04492 2.15859 8.04492C2.15862 8.04492 2.15866 8.04492 2.15869 8.04492C2.15873 8.04492 2.15876 8.04492 2.1588 8.04492C2.15883 8.04492 2.15887 8.04492 2.1589 8.04492C2.15894 8.04492 2.15897 8.04492 2.15901 8.04492C2.15904 8.04492 2.15908 8.04492 2.15912 8.04492C2.15915 8.04492 2.15919 8.04492 2.15922 8.04492C2.15926 8.04492 2.15929 8.04492 2.15933 8.04492C2.15937 8.04492 2.1594 8.04492 2.15944 8.04492C2.15947 8.04492 2.15951 8.04492 2.15955 8.04492C2.15958 8.04492 2.15962 8.04492 2.15965 8.04492C2.15969 8.04492 2.15973 8.04492 2.15976 8.04492C2.1598 8.04492 2.15984 8.04492 2.15987 8.04492C2.15991 8.04492 2.15994 8.04492 2.15998 8.04492C2.16002 8.04492 2.16005 8.04492 2.16009 8.04492C2.16013 8.04492 2.16016 8.04492 2.1602 8.04492C2.16024 8.04492 2.16027 8.04492 2.16031 8.04492C2.16035 8.04492 2.16039 8.04492 2.16042 8.04492C2.16046 8.04492 2.1605 8.04492 2.16053 8.04492C2.16057 8.04492 2.16061 8.04492 2.16064 8.04492C2.16068 8.04492 2.16072 8.04492 2.16076 8.04492C2.16079 8.04492 2.16083 8.04492 2.16087 8.04492C2.16091 8.04492 2.16094 8.04492 2.16098 8.04492C2.16102 8.04492 2.16106 8.04492 2.16109 8.04492C2.16113 8.04492 2.16117 8.04492 2.16121 8.04492C2.16124 8.04492 2.16128 8.04492 2.16132 8.04492C2.16136 8.04492 2.16139 8.04492 2.16143 8.04492C2.16147 8.04492 2.16151 8.04492 2.16155 8.04492C2.16158 8.04492 2.16162 8.04492 2.16166 8.04492C2.1617 8.04492 2.16174 8.04492 2.16178 8.04492C2.16181 8.04492 2.16185 8.04492 2.16189 8.04492C2.16193 8.04492 2.16197 8.04492 2.16201 8.04492C2.16204 8.04492 2.16208 8.04492 2.16212 8.04492C2.16216 8.04492 2.1622 8.04492 2.16224 8.04492C2.16228 8.04492 2.16231 8.04492 2.16235 8.04492C2.16239 8.04492 2.16243 8.04492 2.16247 8.04492C2.16251 8.04492 2.16255 8.04492 2.16259 8.04492C2.16263 8.04492 2.16266 8.04492 2.1627 8.04492C2.16274 8.04492 2.16278 8.04492 2.16282 8.04492C2.16286 8.04492 2.1629 8.04492 2.16294 8.04492C2.16298 8.04492 2.16302 8.04492 2.16306 8.04492C2.1631 8.04492 2.16313 8.04492 2.16317 8.04492C2.16321 8.04492 2.16325 8.04492 2.16329 8.04492C2.16333 8.04492 2.16337 8.04492 2.16341 8.04492C2.16345 8.04492 2.16349 8.04492 2.16353 8.04492C2.16357 8.04492 2.16361 8.04492 2.16365 8.04492C2.16369 8.04492 2.16373 8.04492 2.16377 8.04492C2.16381 8.04492 2.16385 8.04492 2.16389 8.04492C2.16393 8.04492 2.16397 8.04492 2.16401 8.04492C2.16405 8.04492 2.16409 8.04492 2.16413 8.04492C2.16417 8.04492 2.16421 8.04492 2.16425 8.04492C2.16429 8.04492 2.16433 8.04492 2.16437 8.04492C2.16441 8.04492 2.16445 8.04492 2.16449 8.04492C2.16454 8.04492 2.16458 8.04492 2.16462 8.04492C2.16466 8.04492 2.1647 8.04492 2.16474 8.04492C2.16478 8.04492 2.16482 8.04492 2.16486 8.04492C2.1649 8.04492 2.16494 8.04492 2.16498 8.04492C2.16502 8.04492 2.16507 8.04492 2.16511 8.04492C2.16515 8.04492 2.16519 8.04492 2.16523 8.04492C2.16527 8.04492 2.16531 8.04492 2.16535 8.04492C2.16539 8.04492 2.16544 8.04492 2.16548 8.04492C2.16552 8.04492 2.16556 8.04492 2.1656 8.04492C2.16564 8.04492 2.16568 8.04492 2.16573 8.04492C2.16577 8.04492 2.16581 8.04492 2.16585 8.04492C2.16589 8.04492 2.16593 8.04492 2.16597 8.04492C2.16602 8.04492 2.16606 8.04492 2.1661 8.04492C2.16614 8.04492 2.16618 8.04492 2.16623 8.04492C2.16627 8.04492 2.16631 8.04492 2.16635 8.04492C2.16639 8.04492 2.16643 8.04492 2.16648 8.04492C2.16652 8.04492 2.16656 8.04492 2.1666 8.04492C2.16665 8.04492 2.16669 8.04492 2.16673 8.04492C2.16677 8.04492 2.16681 8.04492 2.16686 8.04492C2.1669 8.04492 2.16694 8.04492 2.16698 8.04492C2.16703 8.04492 2.16707 8.04492 2.16711 8.04492C2.16715 8.04492 2.1672 8.04492 2.16724 8.04492C2.16728 8.04492 2.16732 8.04492 2.16737 8.04492C2.16741 8.04492 2.16745 8.04492 2.16749 8.04492C2.16754 8.04492 2.16758 8.04492 2.16762 8.04492C2.16767 8.04492 2.16771 8.04492 2.16775 8.04492C2.16779 8.04492 2.16784 8.04492 2.16788 8.04492C2.16792 8.04492 2.16797 8.04492 2.16801 8.04492C2.16805 8.04492 2.16809 8.04492 2.16814 8.04492C2.16818 8.04492 2.16822 8.04492 2.16827 8.04492C2.16831 8.04492 2.16835 8.04492 2.1684 8.04492C2.16844 8.04492 2.16848 8.04492 2.16853 8.04492C2.16857 8.04492 2.16861 8.04492 2.16866 8.04492C2.1687 8.04492 2.16875 8.04492 2.16879 8.04492C2.16883 8.04492 2.16888 8.04492 2.16892 8.04492C2.16896 8.04492 2.16901 8.04492 2.16905 8.04492C2.16909 8.04492 2.16914 8.04492 2.16918 8.04492C2.16923 8.04492 2.16927 8.04492 2.16931 8.04492C2.16936 8.04492 2.1694 8.04492 2.16945 8.04492C2.16949 8.04492 2.16953 8.04492 2.16958 8.04492C2.16962 8.04492 2.16967 8.04492 2.16971 8.04492C2.16975 8.04492 2.1698 8.04492 2.16984 8.04492C2.16989 8.04492 2.16993 8.04492 2.16997 8.04492C2.17002 8.04492 2.17006 8.04492 2.17011 8.04492C2.17015 8.04492 2.1702 8.04492 2.17024 8.04492C2.17029 8.04492 2.17033 8.04492 2.17037 8.04492C2.17042 8.04492 2.17046 8.04492 2.17051 8.04492C2.17055 8.04492 2.1706 8.04492 2.17064 8.04492C2.17069 8.04492 2.17073 8.04492 2.17078 8.04492C2.17082 8.04492 2.17087 8.04492 2.17091 8.04492C2.17096 8.04492 2.171 8.04492 2.17105 8.04492C2.17109 8.04492 2.17114 8.04492 2.17118 8.04492C2.17123 8.04492 2.17127 8.04492 2.17132 8.04492C2.17136 8.04492 2.17141 8.04492 2.17145 8.04492C2.1715 8.04492 2.17154 8.04492 2.17159 8.04492C2.17163 8.04492 2.17168 8.04492 2.17172 8.04492C2.17177 8.04492 2.17181 8.04492 2.17186 8.04492C2.1719 8.04492 2.17195 8.04492 2.17199 8.04492C2.17204 8.04492 2.17209 8.04492 2.17213 8.04492C2.17218 8.04492 2.17222 8.04492 2.17227 8.04492C2.17231 8.04492 2.17236 8.04492 2.1724 8.04492C2.17245 8.04492 2.1725 8.04492 2.17254 8.04492C2.17259 8.04492 2.17263 8.04492 2.17268 8.04492C2.17272 8.04492 2.17277 8.04492 2.17282 8.04492C2.17286 8.04492 2.17291 8.04492 2.17295 8.04492C2.173 8.04492 2.17305 8.04492 2.17309 8.04492C2.17314 8.04492 2.17318 8.04492 2.17323 8.04492C2.17328 8.04492 2.17332 8.04492 2.17337 8.04492C2.17341 8.04492 2.17346 8.04492 2.17351 8.04492C2.17355 8.04492 2.1736 8.04492 2.17365 8.04492C2.17369 8.04492 2.17374 8.04492 2.17378 8.04492C2.17383 8.04492 2.17388 8.04492 2.17392 8.04492C2.17397 8.04492 2.17402 8.04492 2.17406 8.04492C2.17411 8.04492 2.17416 8.04492 2.1742 8.04492C2.17425 8.04492 2.1743 8.04492 2.17434 8.04492C2.17439 8.04492 2.17444 8.04492 2.17448 8.04492C2.17453 8.04492 2.17458 8.04492 2.17462 8.04492C2.17467 8.04492 2.17472 8.04492 2.17476 8.04492C2.17481 8.04492 2.17486 8.04492 2.1749 8.04492C2.17495 8.04492 2.175 8.04492 2.17504 8.04492C2.17509 8.04492 2.17514 8.04492 2.17518 8.04492C2.17523 8.04492 2.17528 8.04492 2.17533 8.04492C2.17537 8.04492 2.17542 8.04492 2.17547 8.04492C2.17551 8.04492 2.17556 8.04492 2.17561 8.04492C2.17566 8.04492 2.1757 8.04492 2.17575 8.04492C2.1758 8.04492 2.17585 8.04492 2.17589 8.04492C2.17594 8.04492 2.17599 8.04492 2.17603 8.04492C2.17608 8.04492 2.17613 8.04492 2.17618 8.04492C2.17622 8.04492 2.17627 8.04492 2.17632 8.04492C2.17637 8.04492 2.17641 8.04492 2.17646 8.04492C2.17651 8.04492 2.17656 8.04492 2.1766 8.04492C2.17665 8.04492 2.1767 8.04492 2.17675 8.04492C2.1768 8.04492 2.17684 8.04492 2.17689 8.04492C2.17694 8.04492 2.17699 8.04492 2.17703 8.04492C2.17708 8.04492 2.17713 8.04492 2.17718 8.04492C2.17723 8.04492 2.17727 8.04492 2.17732 8.04492C2.17737 8.04492 2.17742 8.04492 2.17746 8.04492C2.17751 8.04492 2.17756 8.04492 2.17761 8.04492C2.17766 8.04492 2.17771 8.04492 2.17775 8.04492C2.1778 8.04492 2.17785 8.04492 2.1779 8.04492C2.17795 8.04492 2.17799 8.04492 2.17804 8.04492C2.17809 8.04492 2.17814 8.04492 2.17819 8.04492C2.17823 8.04492 2.17828 8.04492 2.17833 8.04492C2.17838 8.04492 2.17843 8.04492 2.17848 8.04492C2.17852 8.04492 2.17857 8.04492 2.17862 8.04492C2.17867 8.04492 2.17872 8.04492 2.17877 8.04492C2.17882 8.04492 2.17886 8.04492 2.17891 8.04492C2.17896 8.04492 2.17901 8.04492 2.17906 8.04492C2.17911 8.04492 2.17916 8.04492 2.1792 8.04492C2.17925 8.04492 2.1793 8.04492 2.17935 8.04492C2.1794 8.04492 2.17945 8.04492 2.1795 8.04492C2.17955 8.04492 2.17959 8.04492 2.17964 8.04492C2.17969 8.04492 2.17974 8.04492 2.17979 8.04492C2.17984 8.04492 2.17989 8.04492 2.17994 8.04492C2.17998 8.04492 2.18003 8.04492 2.18008 8.04492C2.18013 8.04492 2.18018 8.04492 2.18023 8.04492C2.18028 8.04492 2.18033 8.04492 2.18038 8.04492C2.18043 8.04492 2.18047 8.04492 2.18052 8.04492C2.18057 8.04492 2.18062 8.04492 2.18067 8.04492C2.18072 8.04492 2.18077 8.04492 2.18082 8.04492C2.18087 8.04492 2.18092 8.04492 2.18097 8.04492C2.18102 8.04492 2.18106 8.04492 2.18111 8.04492C2.18116 8.04492 2.18121 8.04492 2.18126 8.04492C2.18131 8.04492 2.18136 8.04492 2.18141 8.04492C2.18146 8.04492 2.18151 8.04492 2.18156 8.04492C2.18161 8.04492 2.18166 8.04492 2.18171 8.04492C2.18176 8.04492 2.18181 8.04492 2.18185 8.04492C2.1819 8.04492 2.18195 8.04492 2.182 8.04492C2.18205 8.04492 2.1821 8.04492 2.18215 8.04492C2.1822 8.04492 2.18225 8.04492 2.1823 8.04492C2.18235 8.04492 2.1824 8.04492 2.18245 8.04492C2.1825 8.04492 2.18255 8.04492 2.1826 8.04492C2.18265 8.04492 2.1827 8.04492 2.18275 8.04492C2.1828 8.04492 2.18285 8.04492 2.1829 8.04492C2.18295 8.04492 2.183 8.04492 2.18305 8.04492C2.1831 8.04492 2.18315 8.04492 2.1832 8.04492C2.18325 8.04492 2.1833 8.04492 2.18335 8.04492C2.1834 8.04492 2.18345 8.04492 2.1835 8.04492C2.18355 8.04492 2.1836 8.04492 2.18365 8.04492C2.1837 8.04492 2.18375 8.04492 2.1838 8.04492C2.18385 8.04492 2.1839 8.04492 2.18395 8.04492C2.184 8.04492 2.18405 8.04492 2.1841 8.04492C2.18415 8.04492 2.1842 8.04492 2.18425 8.04492C2.1843 8.04492 2.18435 8.04492 2.1844 8.04492C2.18445 8.04492 2.1845 8.04492 2.18455 8.04492C2.1846 8.04492 2.18465 8.04492 2.1847 8.04492C2.18475 8.04492 2.1848 8.04492 2.18485 8.04492C2.1849 8.04492 2.18495 8.04492 2.185 8.04492C2.18505 8.04492 2.1851 8.04492 2.18515 8.04492C2.1852 8.04492 2.18525 8.04492 2.18531 8.04492C2.18536 8.04492 2.18541 8.04492 2.18546 8.04492C2.18551 8.04492 2.18556 8.04492 2.18561 8.04492C2.18566 8.04492 2.18571 8.04492 2.18576 8.04492C2.18581 8.04492 2.18586 8.04492 2.18591 8.04492C2.18596 8.04492 2.18601 8.04492 2.18606 8.04492C2.18611 8.04492 2.18616 8.04492 2.18622 8.04492C2.18627 8.04492 2.18632 8.04492 2.18637 8.04492C2.18642 8.04492 2.18647 8.04492 2.18652 8.04492C2.18657 8.04492 2.18662 8.04492 2.18667 8.04492C2.18672 8.04492 2.18677 8.04492 2.18682 8.04492C2.18688 8.04492 2.18693 8.04492 2.18698 8.04492C2.18703 8.04492 2.18708 8.04492 2.18713 8.04492C2.18718 8.04492 2.18723 8.04492 2.18728 8.04492C2.18733 8.04492 2.18738 8.04492 2.18743 8.04492C2.18749 8.04492 2.18754 8.04492 2.18759 8.04492C2.18764 8.04492 2.18769 8.04492 2.18774 8.04492C2.18779 8.04492 2.18784 8.04492 2.18789 8.04492C2.18794 8.04492 2.188 8.04492 2.18805 8.04492C2.1881 8.04492 2.18815 8.04492 2.1882 8.04492C2.18825 8.04492 2.1883 8.04492 2.18835 8.04492C2.1884 8.04492 2.18846 8.04492 2.18851 8.04492C2.18856 8.04492 2.18861 8.04492 2.18866 8.04492C2.18871 8.04492 2.18876 8.04492 2.18881 8.04492C2.18886 8.04492 2.18892 8.04492 2.18897 8.04492C2.18902 8.04492 2.18907 8.04492 2.18912 8.04492C2.18917 8.04492 2.18922 8.04492 2.18927 8.04492C2.18933 8.04492 2.18938 8.04492 2.18943 8.04492C2.18948 8.04492 2.18953 8.04492 2.18958 8.04492C2.18963 8.04492 2.18969 8.04492 2.18974 8.04492C2.18979 8.04492 2.18984 8.04492 2.18989 8.04492C2.18994 8.04492 2.18999 8.04492 2.19004 8.04492C2.1901 8.04492 2.19015 8.04492 2.1902 8.04492C2.19025 8.04492 2.1903 8.04492 2.19035 8.04492C2.1904 8.04492 2.19046 8.04492 2.19051 8.04492C2.19056 8.04492 2.19061 8.04492 2.19066 8.04492C2.19071 8.04492 2.19076 8.04492 2.19082 8.04492C2.19087 8.04492 2.19092 8.04492 2.19097 8.04492C2.19102 8.04492 2.19107 8.04492 2.19113 8.04492C2.19118 8.04492 2.19123 8.04492 2.19128 8.04492C2.19133 8.04492 2.19138 8.04492 2.19144 8.04492C2.19149 8.04492 2.19154 8.04492 2.19159 8.04492C2.19164 8.04492 2.19169 8.04492 2.19174 8.04492C2.1918 8.04492 2.19185 8.04492 2.1919 8.04492C2.19195 8.04492 2.192 8.04492 2.19205 8.04492C2.19211 8.04492 2.19216 8.04492 2.19221 8.04492C2.19226 8.04492 2.19231 8.04492 2.19236 8.04492C2.19242 8.04492 2.19247 8.04492 2.19252 8.04492C2.19257 8.04492 2.19262 8.04492 2.19268 8.04492C2.19273 8.04492 2.19278 8.04492 2.19283 8.04492C2.19288 8.04492 2.19293 8.04492 2.19299 8.04492C2.19304 8.04492 2.19309 8.04492 2.19314 8.04492C2.19319 8.04492 2.19324 8.04492 2.1933 8.04492C2.19335 8.04492 2.1934 8.04492 2.19345 8.04492C2.1935 8.04492 2.19356 8.04492 2.19361 8.04492C2.19366 8.04492 2.19371 8.04492 2.19376 8.04492C2.19381 8.04492 2.19387 8.04492 2.19392 8.04492C2.19397 8.04492 2.19402 8.04492 2.19407 8.04492C2.19413 8.04492 2.19418 8.04492 2.19423 8.04492C2.19428 8.04492 2.19433 8.04492 2.19439 8.04492C2.19444 8.04492 2.19449 8.04492 2.19454 8.04492C2.19459 8.04492 2.19465 8.04492 2.1947 8.04492C2.19475 8.04492 2.1948 8.04492 2.19485 8.04492C2.19491 8.04492 2.19496 8.04492 2.19501 8.04492C2.19506 8.04492 2.19511 8.04492 2.19516 8.04492C2.19522 8.04492 2.19527 8.04492 2.19532 8.04492C2.19537 8.04492 2.19542 8.04492 2.19548 8.04492C2.19553 8.04492 2.19558 8.04492 2.19563 8.04492C2.19568 8.04492 2.19574 8.04492 2.19579 8.04492C2.19584 8.04492 2.19589 8.04492 2.19594 8.04492C2.196 8.04492 2.19605 8.04492 2.1961 8.04492C2.19615 8.04492 2.19621 8.04492 2.19626 8.04492C2.19631 8.04492 2.19636 8.04492 2.19641 8.04492C2.19647 8.04492 2.19652 8.04492 2.19657 8.04492C2.19662 8.04492 2.19667 8.04492 2.19673 8.04492C2.19678 8.04492 2.19683 8.04492 2.19688 8.04492C2.19693 8.04492 2.19699 8.04492 2.19704 8.04492C2.19709 8.04492 2.19714 8.04492 2.19719 8.04492C2.19725 8.04492 2.1973 8.04492 2.19735 8.04492C2.1974 8.04492 2.19745 8.04492 2.19751 8.04492C2.19756 8.04492 2.19761 8.04492 2.19766 8.04492C2.19772 8.04492 2.19777 8.04492 2.19782 8.04492C2.19787 8.04492 2.19792 8.04492 2.19798 8.04492C2.19803 8.04492 2.19808 8.04492 2.19813 8.04492C2.19818 8.04492 2.19824 8.04492 2.19829 8.04492C2.19834 8.04492 2.19839 8.04492 2.19844 8.04492C2.1985 8.04492 2.19855 8.04492 2.1986 8.04492C2.19865 8.04492 2.19871 8.04492 2.19876 8.04492C2.19881 8.04492 2.19886 8.04492 2.19891 8.04492C2.19897 8.04492 2.19902 8.04492 2.19907 8.04492C2.19912 8.04492 2.19917 8.04492 2.19923 8.04492C2.19928 8.04492 2.19933 8.04492 2.19938 8.04492V2.04492C2.19933 2.04492 2.19928 2.04492 2.19923 2.04492C2.19917 2.04492 2.19912 2.04492 2.19907 2.04492C2.19902 2.04492 2.19897 2.04492 2.19891 2.04492C2.19886 2.04492 2.19881 2.04492 2.19876 2.04492C2.19871 2.04492 2.19865 2.04492 2.1986 2.04492C2.19855 2.04492 2.1985 2.04492 2.19844 2.04492C2.19839 2.04492 2.19834 2.04492 2.19829 2.04492C2.19824 2.04492 2.19818 2.04492 2.19813 2.04492C2.19808 2.04492 2.19803 2.04492 2.19798 2.04492C2.19792 2.04492 2.19787 2.04492 2.19782 2.04492C2.19777 2.04492 2.19772 2.04492 2.19766 2.04492C2.19761 2.04492 2.19756 2.04492 2.19751 2.04492C2.19745 2.04492 2.1974 2.04492 2.19735 2.04492C2.1973 2.04492 2.19725 2.04492 2.19719 2.04492C2.19714 2.04492 2.19709 2.04492 2.19704 2.04492C2.19699 2.04492 2.19693 2.04492 2.19688 2.04492C2.19683 2.04492 2.19678 2.04492 2.19673 2.04492C2.19667 2.04492 2.19662 2.04492 2.19657 2.04492C2.19652 2.04492 2.19647 2.04492 2.19641 2.04492C2.19636 2.04492 2.19631 2.04492 2.19626 2.04492C2.19621 2.04492 2.19615 2.04492 2.1961 2.04492C2.19605 2.04492 2.196 2.04492 2.19594 2.04492C2.19589 2.04492 2.19584 2.04492 2.19579 2.04492C2.19574 2.04492 2.19568 2.04492 2.19563 2.04492C2.19558 2.04492 2.19553 2.04492 2.19548 2.04492C2.19542 2.04492 2.19537 2.04492 2.19532 2.04492C2.19527 2.04492 2.19522 2.04492 2.19516 2.04492C2.19511 2.04492 2.19506 2.04492 2.19501 2.04492C2.19496 2.04492 2.19491 2.04492 2.19485 2.04492C2.1948 2.04492 2.19475 2.04492 2.1947 2.04492C2.19465 2.04492 2.19459 2.04492 2.19454 2.04492C2.19449 2.04492 2.19444 2.04492 2.19439 2.04492C2.19433 2.04492 2.19428 2.04492 2.19423 2.04492C2.19418 2.04492 2.19413 2.04492 2.19407 2.04492C2.19402 2.04492 2.19397 2.04492 2.19392 2.04492C2.19387 2.04492 2.19381 2.04492 2.19376 2.04492C2.19371 2.04492 2.19366 2.04492 2.19361 2.04492C2.19356 2.04492 2.1935 2.04492 2.19345 2.04492C2.1934 2.04492 2.19335 2.04492 2.1933 2.04492C2.19324 2.04492 2.19319 2.04492 2.19314 2.04492C2.19309 2.04492 2.19304 2.04492 2.19299 2.04492C2.19293 2.04492 2.19288 2.04492 2.19283 2.04492C2.19278 2.04492 2.19273 2.04492 2.19268 2.04492C2.19262 2.04492 2.19257 2.04492 2.19252 2.04492C2.19247 2.04492 2.19242 2.04492 2.19236 2.04492C2.19231 2.04492 2.19226 2.04492 2.19221 2.04492C2.19216 2.04492 2.19211 2.04492 2.19205 2.04492C2.192 2.04492 2.19195 2.04492 2.1919 2.04492C2.19185 2.04492 2.1918 2.04492 2.19174 2.04492C2.19169 2.04492 2.19164 2.04492 2.19159 2.04492C2.19154 2.04492 2.19149 2.04492 2.19144 2.04492C2.19138 2.04492 2.19133 2.04492 2.19128 2.04492C2.19123 2.04492 2.19118 2.04492 2.19113 2.04492C2.19107 2.04492 2.19102 2.04492 2.19097 2.04492C2.19092 2.04492 2.19087 2.04492 2.19082 2.04492C2.19076 2.04492 2.19071 2.04492 2.19066 2.04492C2.19061 2.04492 2.19056 2.04492 2.19051 2.04492C2.19046 2.04492 2.1904 2.04492 2.19035 2.04492C2.1903 2.04492 2.19025 2.04492 2.1902 2.04492C2.19015 2.04492 2.1901 2.04492 2.19004 2.04492C2.18999 2.04492 2.18994 2.04492 2.18989 2.04492C2.18984 2.04492 2.18979 2.04492 2.18974 2.04492C2.18969 2.04492 2.18963 2.04492 2.18958 2.04492C2.18953 2.04492 2.18948 2.04492 2.18943 2.04492C2.18938 2.04492 2.18933 2.04492 2.18927 2.04492C2.18922 2.04492 2.18917 2.04492 2.18912 2.04492C2.18907 2.04492 2.18902 2.04492 2.18897 2.04492C2.18892 2.04492 2.18886 2.04492 2.18881 2.04492C2.18876 2.04492 2.18871 2.04492 2.18866 2.04492C2.18861 2.04492 2.18856 2.04492 2.18851 2.04492C2.18846 2.04492 2.1884 2.04492 2.18835 2.04492C2.1883 2.04492 2.18825 2.04492 2.1882 2.04492C2.18815 2.04492 2.1881 2.04492 2.18805 2.04492C2.188 2.04492 2.18794 2.04492 2.18789 2.04492C2.18784 2.04492 2.18779 2.04492 2.18774 2.04492C2.18769 2.04492 2.18764 2.04492 2.18759 2.04492C2.18754 2.04492 2.18749 2.04492 2.18743 2.04492C2.18738 2.04492 2.18733 2.04492 2.18728 2.04492C2.18723 2.04492 2.18718 2.04492 2.18713 2.04492C2.18708 2.04492 2.18703 2.04492 2.18698 2.04492C2.18693 2.04492 2.18688 2.04492 2.18682 2.04492C2.18677 2.04492 2.18672 2.04492 2.18667 2.04492C2.18662 2.04492 2.18657 2.04492 2.18652 2.04492C2.18647 2.04492 2.18642 2.04492 2.18637 2.04492C2.18632 2.04492 2.18627 2.04492 2.18622 2.04492C2.18616 2.04492 2.18611 2.04492 2.18606 2.04492C2.18601 2.04492 2.18596 2.04492 2.18591 2.04492C2.18586 2.04492 2.18581 2.04492 2.18576 2.04492C2.18571 2.04492 2.18566 2.04492 2.18561 2.04492C2.18556 2.04492 2.18551 2.04492 2.18546 2.04492C2.18541 2.04492 2.18536 2.04492 2.18531 2.04492C2.18525 2.04492 2.1852 2.04492 2.18515 2.04492C2.1851 2.04492 2.18505 2.04492 2.185 2.04492C2.18495 2.04492 2.1849 2.04492 2.18485 2.04492C2.1848 2.04492 2.18475 2.04492 2.1847 2.04492C2.18465 2.04492 2.1846 2.04492 2.18455 2.04492C2.1845 2.04492 2.18445 2.04492 2.1844 2.04492C2.18435 2.04492 2.1843 2.04492 2.18425 2.04492C2.1842 2.04492 2.18415 2.04492 2.1841 2.04492C2.18405 2.04492 2.184 2.04492 2.18395 2.04492C2.1839 2.04492 2.18385 2.04492 2.1838 2.04492C2.18375 2.04492 2.1837 2.04492 2.18365 2.04492C2.1836 2.04492 2.18355 2.04492 2.1835 2.04492C2.18345 2.04492 2.1834 2.04492 2.18335 2.04492C2.1833 2.04492 2.18325 2.04492 2.1832 2.04492C2.18315 2.04492 2.1831 2.04492 2.18305 2.04492C2.183 2.04492 2.18295 2.04492 2.1829 2.04492C2.18285 2.04492 2.1828 2.04492 2.18275 2.04492C2.1827 2.04492 2.18265 2.04492 2.1826 2.04492C2.18255 2.04492 2.1825 2.04492 2.18245 2.04492C2.1824 2.04492 2.18235 2.04492 2.1823 2.04492C2.18225 2.04492 2.1822 2.04492 2.18215 2.04492C2.1821 2.04492 2.18205 2.04492 2.182 2.04492C2.18195 2.04492 2.1819 2.04492 2.18185 2.04492C2.18181 2.04492 2.18176 2.04492 2.18171 2.04492C2.18166 2.04492 2.18161 2.04492 2.18156 2.04492C2.18151 2.04492 2.18146 2.04492 2.18141 2.04492C2.18136 2.04492 2.18131 2.04492 2.18126 2.04492C2.18121 2.04492 2.18116 2.04492 2.18111 2.04492C2.18106 2.04492 2.18102 2.04492 2.18097 2.04492C2.18092 2.04492 2.18087 2.04492 2.18082 2.04492C2.18077 2.04492 2.18072 2.04492 2.18067 2.04492C2.18062 2.04492 2.18057 2.04492 2.18052 2.04492C2.18047 2.04492 2.18043 2.04492 2.18038 2.04492C2.18033 2.04492 2.18028 2.04492 2.18023 2.04492C2.18018 2.04492 2.18013 2.04492 2.18008 2.04492C2.18003 2.04492 2.17998 2.04492 2.17994 2.04492C2.17989 2.04492 2.17984 2.04492 2.17979 2.04492C2.17974 2.04492 2.17969 2.04492 2.17964 2.04492C2.17959 2.04492 2.17955 2.04492 2.1795 2.04492C2.17945 2.04492 2.1794 2.04492 2.17935 2.04492C2.1793 2.04492 2.17925 2.04492 2.1792 2.04492C2.17916 2.04492 2.17911 2.04492 2.17906 2.04492C2.17901 2.04492 2.17896 2.04492 2.17891 2.04492C2.17886 2.04492 2.17882 2.04492 2.17877 2.04492C2.17872 2.04492 2.17867 2.04492 2.17862 2.04492C2.17857 2.04492 2.17852 2.04492 2.17848 2.04492C2.17843 2.04492 2.17838 2.04492 2.17833 2.04492C2.17828 2.04492 2.17823 2.04492 2.17819 2.04492C2.17814 2.04492 2.17809 2.04492 2.17804 2.04492C2.17799 2.04492 2.17795 2.04492 2.1779 2.04492C2.17785 2.04492 2.1778 2.04492 2.17775 2.04492C2.17771 2.04492 2.17766 2.04492 2.17761 2.04492C2.17756 2.04492 2.17751 2.04492 2.17746 2.04492C2.17742 2.04492 2.17737 2.04492 2.17732 2.04492C2.17727 2.04492 2.17723 2.04492 2.17718 2.04492C2.17713 2.04492 2.17708 2.04492 2.17703 2.04492C2.17699 2.04492 2.17694 2.04492 2.17689 2.04492C2.17684 2.04492 2.1768 2.04492 2.17675 2.04492C2.1767 2.04492 2.17665 2.04492 2.1766 2.04492C2.17656 2.04492 2.17651 2.04492 2.17646 2.04492C2.17641 2.04492 2.17637 2.04492 2.17632 2.04492C2.17627 2.04492 2.17622 2.04492 2.17618 2.04492C2.17613 2.04492 2.17608 2.04492 2.17603 2.04492C2.17599 2.04492 2.17594 2.04492 2.17589 2.04492C2.17585 2.04492 2.1758 2.04492 2.17575 2.04492C2.1757 2.04492 2.17566 2.04492 2.17561 2.04492C2.17556 2.04492 2.17551 2.04492 2.17547 2.04492C2.17542 2.04492 2.17537 2.04492 2.17533 2.04492C2.17528 2.04492 2.17523 2.04492 2.17518 2.04492C2.17514 2.04492 2.17509 2.04492 2.17504 2.04492C2.175 2.04492 2.17495 2.04492 2.1749 2.04492C2.17486 2.04492 2.17481 2.04492 2.17476 2.04492C2.17472 2.04492 2.17467 2.04492 2.17462 2.04492C2.17458 2.04492 2.17453 2.04492 2.17448 2.04492C2.17444 2.04492 2.17439 2.04492 2.17434 2.04492C2.1743 2.04492 2.17425 2.04492 2.1742 2.04492C2.17416 2.04492 2.17411 2.04492 2.17406 2.04492C2.17402 2.04492 2.17397 2.04492 2.17392 2.04492C2.17388 2.04492 2.17383 2.04492 2.17378 2.04492C2.17374 2.04492 2.17369 2.04492 2.17365 2.04492C2.1736 2.04492 2.17355 2.04492 2.17351 2.04492C2.17346 2.04492 2.17341 2.04492 2.17337 2.04492C2.17332 2.04492 2.17328 2.04492 2.17323 2.04492C2.17318 2.04492 2.17314 2.04492 2.17309 2.04492C2.17305 2.04492 2.173 2.04492 2.17295 2.04492C2.17291 2.04492 2.17286 2.04492 2.17282 2.04492C2.17277 2.04492 2.17272 2.04492 2.17268 2.04492C2.17263 2.04492 2.17259 2.04492 2.17254 2.04492C2.1725 2.04492 2.17245 2.04492 2.1724 2.04492C2.17236 2.04492 2.17231 2.04492 2.17227 2.04492C2.17222 2.04492 2.17218 2.04492 2.17213 2.04492C2.17209 2.04492 2.17204 2.04492 2.17199 2.04492C2.17195 2.04492 2.1719 2.04492 2.17186 2.04492C2.17181 2.04492 2.17177 2.04492 2.17172 2.04492C2.17168 2.04492 2.17163 2.04492 2.17159 2.04492C2.17154 2.04492 2.1715 2.04492 2.17145 2.04492C2.17141 2.04492 2.17136 2.04492 2.17132 2.04492C2.17127 2.04492 2.17123 2.04492 2.17118 2.04492C2.17114 2.04492 2.17109 2.04492 2.17105 2.04492C2.171 2.04492 2.17096 2.04492 2.17091 2.04492C2.17087 2.04492 2.17082 2.04492 2.17078 2.04492C2.17073 2.04492 2.17069 2.04492 2.17064 2.04492C2.1706 2.04492 2.17055 2.04492 2.17051 2.04492C2.17046 2.04492 2.17042 2.04492 2.17037 2.04492C2.17033 2.04492 2.17029 2.04492 2.17024 2.04492C2.1702 2.04492 2.17015 2.04492 2.17011 2.04492C2.17006 2.04492 2.17002 2.04492 2.16997 2.04492C2.16993 2.04492 2.16989 2.04492 2.16984 2.04492C2.1698 2.04492 2.16975 2.04492 2.16971 2.04492C2.16967 2.04492 2.16962 2.04492 2.16958 2.04492C2.16953 2.04492 2.16949 2.04492 2.16945 2.04492C2.1694 2.04492 2.16936 2.04492 2.16931 2.04492C2.16927 2.04492 2.16923 2.04492 2.16918 2.04492C2.16914 2.04492 2.16909 2.04492 2.16905 2.04492C2.16901 2.04492 2.16896 2.04492 2.16892 2.04492C2.16888 2.04492 2.16883 2.04492 2.16879 2.04492C2.16875 2.04492 2.1687 2.04492 2.16866 2.04492C2.16861 2.04492 2.16857 2.04492 2.16853 2.04492C2.16848 2.04492 2.16844 2.04492 2.1684 2.04492C2.16835 2.04492 2.16831 2.04492 2.16827 2.04492C2.16822 2.04492 2.16818 2.04492 2.16814 2.04492C2.16809 2.04492 2.16805 2.04492 2.16801 2.04492C2.16797 2.04492 2.16792 2.04492 2.16788 2.04492C2.16784 2.04492 2.16779 2.04492 2.16775 2.04492C2.16771 2.04492 2.16767 2.04492 2.16762 2.04492C2.16758 2.04492 2.16754 2.04492 2.16749 2.04492C2.16745 2.04492 2.16741 2.04492 2.16737 2.04492C2.16732 2.04492 2.16728 2.04492 2.16724 2.04492C2.1672 2.04492 2.16715 2.04492 2.16711 2.04492C2.16707 2.04492 2.16703 2.04492 2.16698 2.04492C2.16694 2.04492 2.1669 2.04492 2.16686 2.04492C2.16681 2.04492 2.16677 2.04492 2.16673 2.04492C2.16669 2.04492 2.16665 2.04492 2.1666 2.04492C2.16656 2.04492 2.16652 2.04492 2.16648 2.04492C2.16643 2.04492 2.16639 2.04492 2.16635 2.04492C2.16631 2.04492 2.16627 2.04492 2.16623 2.04492C2.16618 2.04492 2.16614 2.04492 2.1661 2.04492C2.16606 2.04492 2.16602 2.04492 2.16597 2.04492C2.16593 2.04492 2.16589 2.04492 2.16585 2.04492C2.16581 2.04492 2.16577 2.04492 2.16573 2.04492C2.16568 2.04492 2.16564 2.04492 2.1656 2.04492C2.16556 2.04492 2.16552 2.04492 2.16548 2.04492C2.16544 2.04492 2.16539 2.04492 2.16535 2.04492C2.16531 2.04492 2.16527 2.04492 2.16523 2.04492C2.16519 2.04492 2.16515 2.04492 2.16511 2.04492C2.16507 2.04492 2.16502 2.04492 2.16498 2.04492C2.16494 2.04492 2.1649 2.04492 2.16486 2.04492C2.16482 2.04492 2.16478 2.04492 2.16474 2.04492C2.1647 2.04492 2.16466 2.04492 2.16462 2.04492C2.16458 2.04492 2.16454 2.04492 2.16449 2.04492C2.16445 2.04492 2.16441 2.04492 2.16437 2.04492C2.16433 2.04492 2.16429 2.04492 2.16425 2.04492C2.16421 2.04492 2.16417 2.04492 2.16413 2.04492C2.16409 2.04492 2.16405 2.04492 2.16401 2.04492C2.16397 2.04492 2.16393 2.04492 2.16389 2.04492C2.16385 2.04492 2.16381 2.04492 2.16377 2.04492C2.16373 2.04492 2.16369 2.04492 2.16365 2.04492C2.16361 2.04492 2.16357 2.04492 2.16353 2.04492C2.16349 2.04492 2.16345 2.04492 2.16341 2.04492C2.16337 2.04492 2.16333 2.04492 2.16329 2.04492C2.16325 2.04492 2.16321 2.04492 2.16317 2.04492C2.16313 2.04492 2.1631 2.04492 2.16306 2.04492C2.16302 2.04492 2.16298 2.04492 2.16294 2.04492C2.1629 2.04492 2.16286 2.04492 2.16282 2.04492C2.16278 2.04492 2.16274 2.04492 2.1627 2.04492C2.16266 2.04492 2.16263 2.04492 2.16259 2.04492C2.16255 2.04492 2.16251 2.04492 2.16247 2.04492C2.16243 2.04492 2.16239 2.04492 2.16235 2.04492C2.16231 2.04492 2.16228 2.04492 2.16224 2.04492C2.1622 2.04492 2.16216 2.04492 2.16212 2.04492C2.16208 2.04492 2.16204 2.04492 2.16201 2.04492C2.16197 2.04492 2.16193 2.04492 2.16189 2.04492C2.16185 2.04492 2.16181 2.04492 2.16178 2.04492C2.16174 2.04492 2.1617 2.04492 2.16166 2.04492C2.16162 2.04492 2.16158 2.04492 2.16155 2.04492C2.16151 2.04492 2.16147 2.04492 2.16143 2.04492C2.16139 2.04492 2.16136 2.04492 2.16132 2.04492C2.16128 2.04492 2.16124 2.04492 2.16121 2.04492C2.16117 2.04492 2.16113 2.04492 2.16109 2.04492C2.16106 2.04492 2.16102 2.04492 2.16098 2.04492C2.16094 2.04492 2.16091 2.04492 2.16087 2.04492C2.16083 2.04492 2.16079 2.04492 2.16076 2.04492C2.16072 2.04492 2.16068 2.04492 2.16064 2.04492C2.16061 2.04492 2.16057 2.04492 2.16053 2.04492C2.1605 2.04492 2.16046 2.04492 2.16042 2.04492C2.16039 2.04492 2.16035 2.04492 2.16031 2.04492C2.16027 2.04492 2.16024 2.04492 2.1602 2.04492C2.16016 2.04492 2.16013 2.04492 2.16009 2.04492C2.16005 2.04492 2.16002 2.04492 2.15998 2.04492C2.15994 2.04492 2.15991 2.04492 2.15987 2.04492C2.15984 2.04492 2.1598 2.04492 2.15976 2.04492C2.15973 2.04492 2.15969 2.04492 2.15965 2.04492C2.15962 2.04492 2.15958 2.04492 2.15955 2.04492C2.15951 2.04492 2.15947 2.04492 2.15944 2.04492C2.1594 2.04492 2.15937 2.04492 2.15933 2.04492C2.15929 2.04492 2.15926 2.04492 2.15922 2.04492C2.15919 2.04492 2.15915 2.04492 2.15912 2.04492C2.15908 2.04492 2.15904 2.04492 2.15901 2.04492C2.15897 2.04492 2.15894 2.04492 2.1589 2.04492C2.15887 2.04492 2.15883 2.04492 2.1588 2.04492C2.15876 2.04492 2.15873 2.04492 2.15869 2.04492C2.15866 2.04492 2.15862 2.04492 2.15859 2.04492C2.15855 2.04492 2.15852 2.04492 2.15848 2.04492C2.15845 2.04492 2.15841 2.04492 2.15838 2.04492C2.15834 2.04492 2.15831 2.04492 2.15827 2.04492C2.15824 2.04492 2.1582 2.04492 2.15817 2.04492C2.15813 2.04492 2.1581 2.04492 2.15807 2.04492C2.15803 2.04492 2.158 2.04492 2.15796 2.04492C2.15793 2.04492 2.15789 2.04492 2.15786 2.04492C2.15783 2.04492 2.15779 2.04492 2.15776 2.04492C2.15772 2.04492 2.15769 2.04492 2.15765 2.04492C2.15762 2.04492 2.15759 2.04492 2.15755 2.04492C2.15752 2.04492 2.15749 2.04492 2.15745 2.04492C2.15742 2.04492 2.15738 2.04492 2.15735 2.04492C2.15732 2.04492 2.15728 2.04492 2.15725 2.04492C2.15722 2.04492 2.15718 2.04492 2.15715 2.04492C2.15712 2.04492 2.15708 2.04492 2.15705 2.04492C2.15702 2.04492 2.15698 2.04492 2.15695 2.04492C2.15692 2.04492 2.15688 2.04492 2.15685 2.04492C2.15682 2.04492 2.15679 2.04492 2.15675 2.04492C2.15672 2.04492 2.15669 2.04492 2.15665 2.04492C2.15662 2.04492 2.15659 2.04492 2.15656 2.04492C2.15652 2.04492 2.15649 2.04492 2.15646 2.04492C2.15643 2.04492 2.15639 2.04492 2.15636 2.04492C2.15633 2.04492 2.1563 2.04492 2.15626 2.04492C2.15623 2.04492 2.1562 2.04492 2.15617 2.04492C2.15614 2.04492 2.1561 2.04492 2.15607 2.04492C2.15604 2.04492 2.15601 2.04492 2.15598 2.04492C2.15594 2.04492 2.15591 2.04492 2.15588 2.04492C2.15585 2.04492 2.15582 2.04492 2.15579 2.04492C2.15575 2.04492 2.15572 2.04492 2.15569 2.04492C2.15566 2.04492 2.15563 2.04492 2.1556 2.04492C2.15557 2.04492 2.15553 2.04492 2.1555 2.04492C2.15547 2.04492 2.15544 2.04492 2.15541 2.04492C2.15538 2.04492 2.15535 2.04492 2.15532 2.04492C2.15529 2.04492 2.15525 2.04492 2.15522 2.04492C2.15519 2.04492 2.15516 2.04492 2.15513 2.04492C2.1551 2.04492 2.15507 2.04492 2.15504 2.04492C2.15501 2.04492 2.15498 2.04492 2.15495 2.04492C2.15492 2.04492 2.15489 2.04492 2.15486 2.04492C2.15483 2.04492 2.1548 2.04492 2.15477 2.04492C2.15474 2.04492 2.15471 2.04492 2.15468 2.04492C2.15465 2.04492 2.15462 2.04492 2.15459 2.04492C2.15456 2.04492 2.15453 2.04492 2.1545 2.04492C2.15447 2.04492 2.15444 2.04492 2.15441 2.04492C2.15438 2.04492 2.15435 2.04492 2.15432 2.04492C2.15429 2.04492 2.15426 2.04492 2.15423 2.04492C2.1542 2.04492 2.15417 2.04492 2.15414 2.04492C2.15411 2.04492 2.15408 2.04492 2.15405 2.04492C2.15403 2.04492 2.154 2.04492 2.15397 2.04492C2.15394 2.04492 2.15391 2.04492 2.15388 2.04492C2.15385 2.04492 2.15382 2.04492 2.15379 2.04492C2.15377 2.04492 2.15374 2.04492 2.15371 2.04492C2.15368 2.04492 2.15365 2.04492 2.15362 2.04492C2.15359 2.04492 2.15357 2.04492 2.15354 2.04492C2.15351 2.04492 2.15348 2.04492 2.15345 2.04492C2.15342 2.04492 2.1534 2.04492 2.15337 2.04492C2.15334 2.04492 2.15331 2.04492 2.15328 2.04492C2.15326 2.04492 2.15323 2.04492 2.1532 2.04492C2.15317 2.04492 2.15315 2.04492 2.15312 2.04492C2.15309 2.04492 2.15306 2.04492 2.15304 2.04492C2.15301 2.04492 2.15298 2.04492 2.15295 2.04492C2.15293 2.04492 2.1529 2.04492 2.15287 2.04492C2.15284 2.04492 2.15282 2.04492 2.15279 2.04492C2.15276 2.04492 2.15274 2.04492 2.15271 2.04492C2.15268 2.04492 2.15266 2.04492 2.15263 2.04492C2.1526 2.04492 2.15258 2.04492 2.15255 2.04492C2.15252 2.04492 2.1525 2.04492 2.15247 2.04492C2.15244 2.04492 2.15242 2.04492 2.15239 2.04492C2.15236 2.04492 2.15234 2.04492 2.15231 2.04492C2.15229 2.04492 2.15226 2.04492 2.15223 2.04492C2.15221 2.04492 2.15218 2.04492 2.15216 2.04492C2.15213 2.04492 2.1521 2.04492 2.15208 2.04492C2.15205 2.04492 2.15203 2.04492 2.152 2.04492C2.15198 2.04492 2.15195 2.04492 2.15192 2.04492C2.1519 2.04492 2.15187 2.04492 2.15185 2.04492C2.15182 2.04492 2.1518 2.04492 2.15177 2.04492C2.15175 2.04492 2.15172 2.04492 2.1517 2.04492C2.15167 2.04492 2.15165 2.04492 2.15162 2.04492C2.1516 2.04492 2.15157 2.04492 2.15155 2.04492C2.15152 2.04492 2.1515 2.04492 2.15147 2.04492C2.15145 2.04492 2.15142 2.04492 2.1514 2.04492C2.15138 2.04492 2.15135 2.04492 2.15133 2.04492C2.1513 2.04492 2.15128 2.04492 2.15125 2.04492C2.15123 2.04492 2.15121 2.04492 2.15118 2.04492C2.15116 2.04492 2.15113 2.04492 2.15111 2.04492C2.15109 2.04492 2.15106 2.04492 2.15104 2.04492C2.15102 2.04492 2.15099 2.04492 2.15097 2.04492C2.15094 2.04492 2.15092 2.04492 2.1509 2.04492C2.15087 2.04492 2.15085 2.04492 2.15083 2.04492C2.1508 2.04492 2.15078 2.04492 2.15076 2.04492C2.15074 2.04492 2.15071 2.04492 2.15069 2.04492C2.15067 2.04492 2.15064 2.04492 2.15062 2.04492C2.1506 2.04492 2.15058 2.04492 2.15055 2.04492C2.15053 2.04492 2.15051 2.04492 2.15049 2.04492C2.15046 2.04492 2.15044 2.04492 2.15042 2.04492C2.1504 2.04492 2.15037 2.04492 2.15035 2.04492C2.15033 2.04492 2.15031 2.04492 2.15029 2.04492C2.15026 2.04492 2.15024 2.04492 2.15022 2.04492C2.1502 2.04492 2.15018 2.04492 2.15015 2.04492C2.15013 2.04492 2.15011 2.04492 2.15009 2.04492C2.15007 2.04492 2.15005 2.04492 2.15002 2.04492C2.15 2.04492 2.14998 2.04492 2.14996 2.04492C2.14994 2.04492 2.14992 2.04492 2.1499 2.04492C2.14988 2.04492 2.14986 2.04492 2.14983 2.04492C2.14981 2.04492 2.14979 2.04492 2.14977 2.04492C2.14975 2.04492 2.14973 2.04492 2.14971 2.04492C2.14969 2.04492 2.14967 2.04492 2.14965 2.04492C2.14963 2.04492 2.14961 2.04492 2.14959 2.04492C2.14957 2.04492 2.14955 2.04492 2.14953 2.04492C2.14951 2.04492 2.14949 2.04492 2.14947 2.04492C2.14945 2.04492 2.14943 2.04492 2.14941 2.04492C2.14939 2.04492 2.14937 2.04492 2.14935 2.04492C2.14933 2.04492 2.14931 2.04492 2.14929 2.04492C2.14927 2.04492 2.14925 2.04492 2.14923 2.04492C2.14921 2.04492 2.14919 2.04492 2.14917 2.04492C2.14915 2.04492 2.14913 2.04492 2.14912 2.04492C2.1491 2.04492 2.14908 2.04492 2.14906 2.04492C2.14904 2.04492 2.14902 2.04492 2.149 2.04492C2.14898 2.04492 2.14897 2.04492 2.14895 2.04492C2.14893 2.04492 2.14891 2.04492 2.14889 2.04492C2.14887 2.04492 2.14885 2.04492 2.14884 2.04492C2.14882 2.04492 2.1488 2.04492 2.14878 2.04492C2.14876 2.04492 2.14875 2.04492 2.14873 2.04492C2.14871 2.04492 2.14869 2.04492 2.14867 2.04492C2.14866 2.04492 2.14864 2.04492 2.14862 2.04492C2.1486 2.04492 2.14859 2.04492 2.14857 2.04492C2.14855 2.04492 2.14854 2.04492 2.14852 2.04492C2.1485 2.04492 2.14848 2.04492 2.14847 2.04492C2.14845 2.04492 2.14843 2.04492 2.14842 2.04492C2.1484 2.04492 2.14838 2.04492 2.14837 2.04492C2.14835 2.04492 2.14833 2.04492 2.14832 2.04492C2.1483 2.04492 2.14828 2.04492 2.14827 2.04492C2.14825 2.04492 2.14823 2.04492 2.14822 2.04492C2.1482 2.04492 2.14819 2.04492 2.14817 2.04492C2.14815 2.04492 2.14814 2.04492 2.14812 2.04492C2.14811 2.04492 2.14809 2.04492 2.14807 2.04492C2.14806 2.04492 2.14804 2.04492 2.14803 2.04492C2.14801 2.04492 2.148 2.04492 2.14798 2.04492C2.14797 2.04492 2.14795 2.04492 2.14794 2.04492C2.14792 2.04492 2.1479 2.04492 2.14789 2.04492C2.14787 2.04492 2.14786 2.04492 2.14785 2.04492C2.14783 2.04492 2.14782 2.04492 2.1478 2.04492C2.14779 2.04492 2.14777 2.04492 2.14776 2.04492C2.14774 2.04492 2.14773 2.04492 2.14771 2.04492C2.1477 2.04492 2.14769 2.04492 2.14767 2.04492C2.14766 2.04492 2.14764 2.04492 2.14763 2.04492C2.14762 2.04492 2.1476 2.04492 2.14759 2.04492C2.14757 2.04492 2.14756 2.04492 2.14755 2.04492C2.14753 2.04492 2.14752 2.04492 2.14751 2.04492C2.14749 2.04492 2.14748 2.04492 2.14747 2.04492C2.14745 2.04492 2.14744 2.04492 2.14743 2.04492C2.14741 2.04492 2.1474 2.04492 2.14739 2.04492C2.14737 2.04492 2.14736 2.04492 2.14735 2.04492C2.14734 2.04492 2.14732 2.04492 2.14731 2.04492C2.1473 2.04492 2.14729 2.04492 2.14727 2.04492C2.14726 2.04492 2.14725 2.04492 2.14724 2.04492C2.14722 2.04492 2.14721 2.04492 2.1472 2.04492C2.14719 2.04492 2.14718 2.04492 2.14716 2.04492C2.14715 2.04492 2.14714 2.04492 2.14713 2.04492C2.14712 2.04492 2.14711 2.04492 2.14709 2.04492C2.14708 2.04492 2.14707 2.04492 2.14706 2.04492C2.14705 2.04492 2.14704 2.04492 2.14703 2.04492C2.14702 2.04492 2.147 2.04492 2.14699 2.04492C2.14698 2.04492 2.14697 2.04492 2.14696 2.04492C2.14695 2.04492 2.14694 2.04492 2.14693 2.04492C2.14692 2.04492 2.14691 2.04492 2.1469 2.04492C2.14689 2.04492 2.14688 2.04492 2.14687 2.04492C2.14686 2.04492 2.14685 2.04492 2.14684 2.04492C2.14683 2.04492 2.14682 2.04492 2.14681 2.04492C2.1468 2.04492 2.14679 2.04492 2.14678 2.04492C2.14677 2.04492 2.14676 2.04492 2.14675 2.04492C2.14674 2.04492 2.14673 2.04492 2.14672 2.04492C2.14671 2.04492 2.1467 2.04492 2.14669 2.04492C2.14668 2.04492 2.14667 2.04492 2.14667 2.04492C2.14666 2.04492 2.14665 2.04492 2.14664 2.04492C2.14663 2.04492 2.14662 2.04492 2.14661 2.04492C2.1466 2.04492 2.1466 2.04492 2.14659 2.04492C2.14658 2.04492 2.14657 2.04492 2.14656 2.04492C2.14655 2.04492 2.14655 2.04492 2.14654 2.04492C2.14653 2.04492 2.14652 2.04492 2.14651 2.04492C2.14651 2.04492 2.1465 2.04492 2.14649 2.04492C2.14648 2.04492 2.14648 2.04492 2.14647 2.04492C2.14646 2.04492 2.14645 2.04492 2.14645 2.04492C2.14644 2.04492 2.14643 2.04492 2.14643 2.04492C2.14642 2.04492 2.14641 2.04492 2.1464 2.04492C2.1464 2.04492 2.14639 2.04492 2.14638 2.04492C2.14638 2.04492 2.14637 2.04492 2.14636 2.04492C2.14636 2.04492 2.14635 2.04492 2.14634 2.04492C2.14634 2.04492 2.14633 2.04492 2.14633 2.04492C2.14632 2.04492 2.14631 2.04492 2.14631 2.04492C2.1463 2.04492 2.1463 2.04492 2.14629 2.04492C2.14628 2.04492 2.14628 2.04492 2.14627 2.04492C2.14627 2.04492 2.14626 2.04492 2.14626 2.04492C2.14625 2.04492 2.14625 2.04492 2.14624 2.04492C2.14624 2.04492 2.14623 2.04492 2.14623 2.04492C2.14622 2.04492 2.14622 2.04492 2.14621 2.04492C2.14621 2.04492 2.1462 2.04492 2.1462 2.04492C2.14619 2.04492 2.14619 2.04492 2.14618 2.04492C2.14618 2.04492 2.14618 2.04492 2.14617 2.04492C2.14617 2.04492 2.14616 2.04492 2.14616 2.04492C2.14616 2.04492 2.14615 2.04492 2.14615 2.04492C2.14614 2.04492 2.14614 2.04492 2.14614 2.04492C2.14613 2.04492 2.14613 2.04492 2.14613 2.04492C2.14612 2.04492 2.14612 2.04492 2.14612 2.04492C2.14611 2.04492 2.14611 2.04492 2.14611 2.04492C2.1461 2.04492 2.1461 2.04492 2.1461 2.04492C2.1461 2.04492 2.14609 2.04492 2.14609 2.04492C2.14609 2.04492 2.14609 2.04492 2.14608 2.04492C2.14608 2.04492 2.14608 2.04492 2.14608 2.04492C2.14607 2.04492 2.14607 2.04492 2.14607 2.04492C2.14607 2.04492 2.14607 2.04492 2.14606 2.04492C2.14606 2.04492 2.14606 2.04492 2.14606 2.04492C2.14606 2.04492 2.14606 2.04492 2.14605 2.04492C2.14605 2.04492 2.14605 2.04492 2.14605 2.04492C2.14605 2.04492 2.14605 2.04492 2.14605 2.04492C2.14605 2.04492 2.14604 2.04492 2.14604 2.04492C2.14604 2.04492 2.14604 2.04492 2.14604 2.04492C2.14604 2.04492 2.14604 2.04492 2.14604 2.04492C2.14604 2.04492 2.14604 2.04492 2.14604 2.04492C2.14604 2.04492 2.14604 2.04492 2.14604 5.04492ZM2.19938 8.04492C3.54768 8.04492 4.80063 7.50657 5.74025 6.58482L1.53852 2.30166C1.67813 2.1647 1.91778 2.04492 2.19938 2.04492V8.04492ZM5.74025 6.58482C6.67004 5.67271 7.27938 4.39461 7.27938 2.95213H1.27938C1.27938 2.66066 1.40873 2.42898 1.53852 2.30166L5.74025 6.58482ZM7.27586 3.09753C7.3506 1.55714 6.67381 0.235268 5.76691 -0.6544L1.56517 3.62876C1.45826 3.52388 1.26148 3.24842 1.28291 2.80674L7.27586 3.09753ZM5.83486 -0.585548C4.83228 -1.63461 3.49744 -2.14062 2.1727 -2.14062V3.85938C1.96795 3.85938 1.6998 3.77188 1.49721 3.5599L5.83486 -0.585548ZM1.16517 1.93544C1.36654 1.7379 1.76385 1.49269 2.32956 1.52737L1.96252 7.51613C3.38154 7.6031 4.57885 6.99168 5.36691 6.2186L1.16517 1.93544ZM2.14604 1.52175C2.32929 1.52175 2.49085 1.55583 2.63371 1.61141C2.77693 1.66713 2.9531 1.76494 3.12691 1.93544L-1.07483 6.2186C-0.16959 7.10663 1.03486 7.52175 2.14604 7.52175V1.52175ZM3.03204 1.84633C3.42722 2.20171 3.54604 2.63748 3.54604 2.95216H-2.45396C-2.45396 4.10394 -2.01514 5.3768 -0.979959 6.30771L3.03204 1.84633ZM3.54604 2.95216C3.54604 3.13006 3.51095 3.32501 3.43019 3.51646C3.34935 3.70812 3.2382 3.8597 3.12691 3.96888L-1.07483 -0.314273C-1.96474 0.558726 -2.45396 1.72075 -2.45396 2.95216H3.54604ZM3.12691 3.96888C2.80835 4.28138 2.43056 4.38258 2.1727 4.38258V-1.61742C1.00821 -1.61742 -0.169589 -1.2023 -1.07483 -0.314273L3.12691 3.96888ZM2.1727 4.38258C1.80826 4.38258 1.44768 4.24602 1.16517 3.96888L5.36691 -0.314273C4.49771 -1.16694 3.33713 -1.61742 2.1727 -1.61742V4.38258ZM1.16517 3.96888C1.05388 3.8597 0.942732 3.70812 0.861887 3.51646C0.781131 3.32501 0.746039 3.13006 0.746039 2.95216H6.74604C6.74604 1.72075 6.25682 0.558727 5.36691 -0.314273L1.16517 3.96888ZM0.746039 2.95216C0.746039 2.63748 0.864856 2.20171 1.26004 1.84633L5.27204 6.30771C6.30722 5.3768 6.74604 4.10394 6.74604 2.95216H0.746039Z" fill="#757373" mask="url(#path-1-inside-1)"/>
<mask id="path-3-inside-2" fill="white">
<path d="M3.21264 5.56836H1.05264C0.625984 5.56836 0.279297 5.90843 0.279297 6.35315V15.5091C0.279297 15.9276 0.65264 16.2939 1.0793 16.2939H3.21264C3.63929 16.2939 4.01264 15.9276 4.01264 15.5352V6.35315C4.01264 5.93457 3.63929 5.56836 3.21264 5.56836ZM3.47929 15.5352C3.47929 15.666 3.34595 15.7707 3.21264 15.7707H1.0793C0.945952 15.7707 0.81264 15.6398 0.81264 15.5091V6.35315C0.81264 6.22234 0.919296 6.09156 1.05264 6.09156H3.21264C3.34598 6.09156 3.47929 6.22237 3.47929 6.35315V15.5352Z"/>
</mask>
<path d="M3.21264 5.56836H1.05264C0.625984 5.56836 0.279297 5.90843 0.279297 6.35315V15.5091C0.279297 15.9276 0.65264 16.2939 1.0793 16.2939H3.21264C3.63929 16.2939 4.01264 15.9276 4.01264 15.5352V6.35315C4.01264 5.93457 3.63929 5.56836 3.21264 5.56836ZM3.47929 15.5352C3.47929 15.666 3.34595 15.7707 3.21264 15.7707H1.0793C0.945952 15.7707 0.81264 15.6398 0.81264 15.5091V6.35315C0.81264 6.22234 0.919296 6.09156 1.05264 6.09156H3.21264C3.34598 6.09156 3.47929 6.22237 3.47929 6.35315V15.5352Z" fill="#757373"/>
<path d="M3.21264 2.56836H1.05264V8.56836H3.21264V2.56836ZM1.05264 2.56836C-1.04302 2.56836 -2.7207 4.26375 -2.7207 6.35315H3.2793C3.2793 7.5531 2.29499 8.56836 1.05264 8.56836V2.56836ZM-2.7207 6.35315V15.5091H3.2793V6.35315H-2.7207ZM-2.7207 15.5091C-2.7207 17.6385 -0.949677 19.2939 1.0793 19.2939V13.2939C1.72946 13.2939 2.26408 13.5675 2.62017 13.9168C2.9756 14.2655 3.2793 14.8159 3.2793 15.5091H-2.7207ZM1.0793 19.2939H3.21264V13.2939H1.0793V19.2939ZM3.21264 19.2939C5.17566 19.2939 7.01264 17.7024 7.01264 15.5352H1.01264C1.01264 14.7783 1.35857 14.2201 1.6965 13.8961C2.04285 13.5641 2.56596 13.2939 3.21264 13.2939V19.2939ZM7.01264 15.5352V6.35315H1.01264V15.5352H7.01264ZM7.01264 6.35315C7.01264 4.22363 5.24153 2.56836 3.21264 2.56836V8.56836C2.56255 8.56836 2.02792 8.29475 1.67179 7.94539C1.3163 7.59667 1.01264 7.04628 1.01264 6.35315H7.01264ZM0.479293 15.5352C0.479293 14.5355 0.987498 13.8119 1.45279 13.4164C1.91147 13.0264 2.52424 12.7707 3.21264 12.7707V18.7707C4.03435 18.7707 4.78044 18.4626 5.33912 17.9876C5.90442 17.507 6.47929 16.6657 6.47929 15.5352H0.479293ZM3.21264 12.7707H1.0793V18.7707H3.21264V12.7707ZM1.0793 12.7707C1.9682 12.7707 2.62024 13.1779 2.99691 13.5474C3.36996 13.9134 3.81264 14.5783 3.81264 15.5091H-2.18736C-2.18736 16.5706 -1.67803 17.3663 -1.20499 17.8304C-0.728316 18.298 0.057049 18.7707 1.0793 18.7707V12.7707ZM3.81264 15.5091V6.35315H-2.18736V15.5091H3.81264ZM3.81264 6.35315C3.81264 7.07662 3.53266 7.70486 3.13087 8.15962C2.72004 8.62462 2.00606 9.09156 1.05264 9.09156V3.09156C-0.0341228 3.09156 -0.868102 3.6239 -1.36559 4.18699C-1.85405 4.73985 -2.18736 5.49888 -2.18736 6.35315H3.81264ZM1.05264 9.09156H3.21264V3.09156H1.05264V9.09156ZM3.21264 9.09156C2.32373 9.09156 1.6717 8.68436 1.29502 8.31481C0.921969 7.94883 0.479293 7.28394 0.479293 6.35315H6.47929C6.47929 5.29159 5.96996 4.4959 5.49692 4.03182C5.02025 3.56417 4.23488 3.09156 3.21264 3.09156V9.09156ZM0.479293 6.35315V15.5352H6.47929V6.35315H0.479293Z" fill="#757373" mask="url(#path-3-inside-2)"/>
<mask id="path-5-inside-3" fill="white">
<path d="M12.2793 5.30469H11.7193C10.6793 5.30469 9.69268 5.74941 9.05268 6.45573V6.08948C9.05268 5.82789 8.78602 5.56627 8.51934 5.56627H5.85268C5.61268 5.56627 5.31934 5.77556 5.31934 6.0633V15.8209C5.31934 16.1086 5.61268 16.2917 5.85268 16.2917H8.78602C9.02602 16.2917 9.31937 16.1086 9.31937 15.8209V10.1704C9.31937 9.3071 9.95937 8.62693 10.786 8.62693C11.2127 8.62693 11.6127 8.78389 11.906 9.07166C12.1727 9.3071 12.2794 9.67334 12.2794 10.1442V15.7686C12.2794 16.0302 12.546 16.2918 12.8127 16.2918H15.4794C15.746 16.2918 16.0127 16.0302 16.0127 15.7686V9.01936C16.0127 6.9266 14.386 5.30469 12.2793 5.30469ZM15.4793 15.7424L15.4527 15.7686H12.8393L12.8127 10.1443C12.8127 9.51642 12.6527 9.04554 12.306 8.70547C11.906 8.31308 11.3727 8.10379 10.8127 8.10379C9.69268 8.12994 8.81268 9.01939 8.81268 10.1704V15.7686H5.87934V6.08948H8.51934L8.54599 6.11563V7.76369L9.26599 7.05738L9.29265 7.03123C9.82599 6.29877 10.7593 5.82789 11.746 5.82789H12.306C14.0926 5.82789 15.4793 7.24052 15.4793 9.01939V15.7424V15.7424Z"/>
</mask>
<path d="M12.2793 5.30469H11.7193C10.6793 5.30469 9.69268 5.74941 9.05268 6.45573V6.08948C9.05268 5.82789 8.78602 5.56627 8.51934 5.56627H5.85268C5.61268 5.56627 5.31934 5.77556 5.31934 6.0633V15.8209C5.31934 16.1086 5.61268 16.2917 5.85268 16.2917H8.78602C9.02602 16.2917 9.31937 16.1086 9.31937 15.8209V10.1704C9.31937 9.3071 9.95937 8.62693 10.786 8.62693C11.2127 8.62693 11.6127 8.78389 11.906 9.07166C12.1727 9.3071 12.2794 9.67334 12.2794 10.1442V15.7686C12.2794 16.0302 12.546 16.2918 12.8127 16.2918H15.4794C15.746 16.2918 16.0127 16.0302 16.0127 15.7686V9.01936C16.0127 6.9266 14.386 5.30469 12.2793 5.30469ZM15.4793 15.7424L15.4527 15.7686H12.8393L12.8127 10.1443C12.8127 9.51642 12.6527 9.04554 12.306 8.70547C11.906 8.31308 11.3727 8.10379 10.8127 8.10379C9.69268 8.12994 8.81268 9.01939 8.81268 10.1704V15.7686H5.87934V6.08948H8.51934L8.54599 6.11563V7.76369L9.26599 7.05738L9.29265 7.03123C9.82599 6.29877 10.7593 5.82789 11.746 5.82789H12.306C14.0926 5.82789 15.4793 7.24052 15.4793 9.01939V15.7424V15.7424Z" fill="#757373"/>
<path d="M9.05268 6.45573H6.05268V14.2344L11.2758 8.47012L9.05268 6.45573ZM11.906 9.07166L9.80516 11.2132L9.86139 11.2684L9.92043 11.3205L11.906 9.07166ZM16.0127 9.01936L19.0127 9.01936L19.0127 9.01932L16.0127 9.01936ZM15.4527 15.7686V18.7686H16.6785L17.5535 17.9102L15.4527 15.7686ZM12.8393 15.7686L9.83937 15.7828L9.85352 18.7686H12.8393V15.7686ZM12.8127 10.1443H9.81268V10.1514L9.81271 10.1585L12.8127 10.1443ZM10.8127 8.10379V5.10379H10.7777L10.7427 5.10461L10.8127 8.10379ZM8.81268 15.7686V18.7686H11.8127V15.7686H8.81268ZM5.87934 15.7686H2.87934V18.7686H5.87934V15.7686ZM5.87934 6.08948V3.08948H2.87934V6.08948H5.87934ZM8.51934 6.08948L10.6202 3.9479L9.74515 3.08948H8.51934V6.08948ZM8.54599 6.11563H11.546V4.85609L10.6469 3.97405L8.54599 6.11563ZM8.54599 7.76369H5.54599V14.9092L10.6469 9.90527L8.54599 7.76369ZM9.26599 7.05738L7.16516 4.91576L7.16512 4.9158L9.26599 7.05738ZM9.29265 7.03123L11.3935 9.17285L11.5713 8.99846L11.7178 8.79714L9.29265 7.03123ZM12.2793 2.30469H11.7193V8.30469H12.2793V2.30469ZM11.7193 2.30469C9.85654 2.30469 8.05427 3.08973 6.82957 4.44133L11.2758 8.47012C11.2943 8.44974 11.3458 8.40429 11.4368 8.36452C11.526 8.32558 11.6247 8.30469 11.7193 8.30469V2.30469ZM12.0527 6.45573V6.08948H6.05268V6.45573H12.0527ZM12.0527 6.08948C12.0527 4.96248 11.51 4.10138 10.9869 3.58825C10.4603 3.07156 9.60823 2.56627 8.51934 2.56627V8.56627C7.69713 8.56627 7.11178 8.19179 6.78511 7.87132C6.46205 7.55439 6.05268 6.95489 6.05268 6.08948H12.0527ZM8.51934 2.56627H5.85268V8.56627H8.51934V2.56627ZM5.85268 2.56627C4.92889 2.56627 4.12184 2.9351 3.54726 3.42602C2.94488 3.94068 2.31934 4.8427 2.31934 6.0633H8.31934C8.31934 6.99616 7.84046 7.64967 7.44476 7.98776C7.07685 8.30209 6.53647 8.56627 5.85268 8.56627V2.56627ZM2.31934 6.0633V15.8209H8.31934V6.0633H2.31934ZM2.31934 15.8209C2.31934 17.0769 2.98044 17.9994 3.63474 18.517C4.25019 19.0039 5.03481 19.2917 5.85268 19.2917V13.2917C6.43055 13.2917 6.9485 13.488 7.35728 13.8114C7.80491 14.1655 8.31934 14.8526 8.31934 15.8209H2.31934ZM5.85268 19.2917H8.78602V13.2917H5.85268V19.2917ZM8.78602 19.2917C9.6039 19.2917 10.3885 19.0039 11.004 18.517C11.6583 17.9994 12.3194 17.0769 12.3194 15.8209H6.31937C6.31937 14.8526 6.83379 14.1655 7.28142 13.8114C7.6902 13.488 8.20815 13.2917 8.78602 13.2917V19.2917ZM12.3194 15.8209V10.1704H6.31937V15.8209H12.3194ZM12.3194 10.1704C12.3194 10.8092 11.7669 11.6269 10.786 11.6269V5.62693C8.15186 5.62693 6.31937 7.80502 6.31937 10.1704H12.3194ZM10.786 11.6269C10.4751 11.6269 10.1061 11.5085 9.80516 11.2132L14.0069 6.93008C13.1193 6.05933 11.9503 5.62693 10.786 5.62693V11.6269ZM9.92043 11.3205C9.24575 10.7248 9.27937 10.0378 9.27937 10.1442H15.2794C15.2794 9.30886 15.0996 7.88935 13.8916 6.82279L9.92043 11.3205ZM9.27937 10.1442V15.7686H15.2794V10.1442H9.27937ZM9.27937 15.7686C9.27937 16.8956 9.82206 17.7567 10.3451 18.2698C10.8718 18.7865 11.7238 19.2918 12.8127 19.2918V13.2918C13.6349 13.2918 14.2203 13.6663 14.5469 13.9867C14.87 14.3037 15.2794 14.9032 15.2794 15.7686H9.27937ZM12.8127 19.2918H15.4794V13.2918H12.8127V19.2918ZM15.4794 19.2918C16.5682 19.2918 17.4202 18.7865 17.9469 18.2699C18.47 17.7568 19.0127 16.8956 19.0127 15.7686H13.0127C13.0127 14.9031 13.4221 14.3036 13.7452 13.9867C14.0719 13.6662 14.6572 13.2918 15.4794 13.2918V19.2918ZM19.0127 15.7686V9.01936H13.0127V15.7686H19.0127ZM19.0127 9.01932C19.0127 5.25738 16.0305 2.30469 12.2793 2.30469V8.30469C12.5438 8.30469 12.7148 8.39909 12.8194 8.5032C12.9237 8.60707 13.0127 8.7706 13.0127 9.01941L19.0127 9.01932ZM13.3785 13.6008L13.3518 13.627L17.5535 17.9102L17.5802 17.884L13.3785 13.6008ZM15.4527 12.7686H12.8393V18.7686H15.4527V12.7686ZM15.8393 15.7544L15.8126 10.13L9.81271 10.1585L9.83937 15.7828L15.8393 15.7544ZM15.8127 10.1443C15.8127 8.99758 15.5054 7.6415 14.4069 6.5639L10.2052 10.8471C10.0323 10.6775 9.91761 10.4794 9.85698 10.3057C9.80325 10.1518 9.81268 10.0775 9.81268 10.1443H15.8127ZM14.4069 6.5639C13.4238 5.5995 12.1267 5.10379 10.8127 5.10379V11.1038C10.6187 11.1038 10.3882 11.0267 10.2052 10.8471L14.4069 6.5639ZM10.7427 5.10461C7.98593 5.16897 5.81268 7.39743 5.81268 10.1704H11.8127C11.8127 10.3788 11.726 10.6193 11.5415 10.8088C11.3588 10.9962 11.1147 11.0976 10.8827 11.103L10.7427 5.10461ZM5.81268 10.1704V15.7686H11.8127V10.1704H5.81268ZM8.81268 12.7686H5.87934V18.7686H8.81268V12.7686ZM8.87934 15.7686V6.08948H2.87934V15.7686H8.87934ZM5.87934 9.08948H8.51934V3.08948H5.87934V9.08948ZM6.41847 8.23106L6.44513 8.25721L10.6469 3.97405L10.6202 3.9479L6.41847 8.23106ZM5.54599 6.11563V7.76369H11.546V6.11563H5.54599ZM10.6469 9.90527L11.3669 9.19896L7.16512 4.9158L6.44512 5.62212L10.6469 9.90527ZM11.3668 9.199L11.3935 9.17285L7.19182 4.88961L7.16516 4.91576L11.3668 9.199ZM11.7178 8.79714C11.6964 8.82656 11.6799 8.84129 11.6742 8.84598C11.6686 8.85066 11.6698 8.84868 11.6788 8.84421C11.6877 8.83981 11.6996 8.83527 11.7132 8.83207C11.7264 8.82893 11.7377 8.82789 11.746 8.82789V2.82789C9.85271 2.82789 7.99569 3.71587 6.86745 5.26532L11.7178 8.79714ZM11.746 8.82789H12.306V2.82789H11.746V8.82789ZM12.306 8.82789C12.3537 8.82789 12.3802 8.83662 12.3932 8.84209C12.408 8.84828 12.4203 8.85672 12.4312 8.86765C12.4421 8.87871 12.4531 8.89396 12.4617 8.91488C12.4697 8.93436 12.4793 8.96728 12.4793 9.01939H18.4793C18.4793 5.61095 15.7767 2.82789 12.306 2.82789V8.82789ZM12.4793 9.01939V15.7424H18.4793V9.01939H12.4793Z" fill="#757373" mask="url(#path-5-inside-3)"/>
</svg>
