<svg width="60" height="60" viewBox="0 0 60 60" fill="none" xmlns="http://www.w3.org/2000/svg">
<path d="M29.8677 10.7711L29.3516 12.4432C29.8834 12.6074 30.4617 12.5087 30.9091 12.1775C31.3564 11.8463 31.6195 11.322 31.6177 10.7653L29.8677 10.7711ZM29.8395 2.17383L31.5894 2.16808C31.5863 1.20383 30.8037 0.423828 29.8395 0.423828C28.8752 0.423828 28.0926 1.20383 28.0895 2.16808L29.8395 2.17383ZM29.8398 10.7625L30.3559 9.0903C30.0197 8.98651 29.66 8.98651 29.3237 9.09029L29.8398 10.7625ZM29.8112 10.7713L28.0612 10.7655C28.0594 11.3222 28.3225 11.8465 28.7698 12.1777C29.2172 12.5089 29.7954 12.6076 30.3273 12.4435L29.8112 10.7713ZM17.9103 14.4445L18.4264 16.1167C18.9742 15.9476 19.4045 15.5209 19.5781 14.9745C19.7517 14.4281 19.6467 13.8313 19.297 13.377L17.9103 14.4445ZM12.5676 7.5048L13.9543 6.43726C13.366 5.67314 12.2705 5.52892 11.5045 6.11477C10.7385 6.70061 10.5908 7.79572 11.1742 8.56355L12.5676 7.5048ZM17.8647 14.4762L16.4713 15.535C16.8017 15.9697 17.316 16.2254 17.862 16.2262C18.408 16.2271 18.9231 15.9731 19.2548 15.5394L17.8647 14.4762ZM17.8824 14.4531L17.3663 12.781C17.0188 12.8882 16.7133 13.1011 16.4923 13.39L17.8824 14.4531ZM10.5096 24.0928L11.8997 25.156C12.2479 24.7006 12.3511 24.1035 12.1758 23.5577C12.0005 23.0119 11.569 22.5865 11.0207 22.4191L10.5096 24.0928ZM1.89307 21.4615L2.40418 19.7878C1.48177 19.5061 0.505345 20.0238 0.220905 20.9454C-0.0635353 21.8669 0.451249 22.8449 1.37195 23.1321L1.89307 21.4615ZM10.4923 24.1439L9.97119 25.8145C10.5025 25.9802 11.0809 25.8833 11.5293 25.5535C11.9776 25.2238 12.2423 24.7004 12.2423 24.1439H10.4923ZM10.4923 24.1154L9.10229 23.0523C8.86881 23.3575 8.74231 23.7311 8.74231 24.1154L10.4923 24.1154ZM10.4923 36.0305H12.2423C12.2423 35.474 11.9776 34.9506 11.5293 34.6208C11.0809 34.291 10.5025 34.1942 9.97119 34.3599L10.4923 36.0305ZM1.89307 38.7129L1.37195 37.0423C0.451249 37.3295 -0.0635355 38.3074 0.220905 39.229C0.505345 40.1506 1.48177 40.6683 2.40418 40.3866L1.89307 38.7129ZM10.5097 36.0815L11.0209 37.7552C11.5692 37.5878 12.0007 37.1624 12.1759 36.6166C12.3512 36.0708 12.248 35.4737 11.8998 35.0183L10.5097 36.0815ZM10.4923 36.0587H8.74231C8.74231 36.443 8.86882 36.8167 9.10231 37.1219L10.4923 36.0587ZM17.8648 45.698L19.2548 44.6348C18.9231 44.2012 18.408 43.9472 17.862 43.948C17.316 43.9489 16.8017 44.2046 16.4714 44.6393L17.8648 45.698ZM12.5676 52.6696L11.1742 51.6108C10.5908 52.3786 10.7385 53.4738 11.5045 54.0596C12.2705 54.6455 13.366 54.5012 13.9543 53.7371L12.5676 52.6696ZM17.9104 45.7297L19.2971 46.7972C19.6468 46.3429 19.7519 45.7461 19.5782 45.1997C19.4046 44.6533 18.9743 44.2266 18.4265 44.0575L17.9104 45.7297ZM17.8824 45.721L16.4924 46.7842C16.7133 47.0731 17.0188 47.286 17.3663 47.3932L17.8824 45.721ZM29.8112 49.4029L30.3273 47.7307C29.7954 47.5666 29.2172 47.6652 28.7698 47.9965C28.3225 48.3277 28.0594 48.852 28.0612 49.4086L29.8112 49.4029ZM29.8395 58.0005L28.0895 58.0063C28.0926 58.9705 28.8752 59.7505 29.8395 59.7505C30.8037 59.7505 31.5863 58.9705 31.5894 58.0063L29.8395 58.0005ZM29.8677 49.4031L31.6177 49.4089C31.6195 48.8522 31.3564 48.3279 30.9091 47.9967C30.4617 47.6654 29.8834 47.5668 29.3516 47.731L29.8677 49.4031ZM29.8398 49.4117L29.3238 51.0839C29.66 51.1877 30.0197 51.1877 30.3559 51.0839L29.8398 49.4117ZM41.7686 45.7299L41.2526 44.0577C40.7048 44.2267 40.2745 44.6534 40.1008 45.1999C39.9272 45.7463 40.0322 46.3431 40.382 46.7974L41.7686 45.7299ZM47.1113 52.6696L45.7246 53.7371C46.3129 54.5012 47.4084 54.6455 48.1744 54.0596C48.9404 53.4738 49.0881 52.3787 48.5047 51.6108L47.1113 52.6696ZM41.8145 45.6985L43.2079 44.6398C42.8775 44.205 42.3632 43.9494 41.8172 43.9485C41.2712 43.9477 40.7561 44.2017 40.4244 44.6354L41.8145 45.6985ZM41.7972 45.721L42.3132 47.3932C42.6608 47.286 42.9663 47.0731 43.1873 46.7841L41.7972 45.721ZM49.1697 36.0817L47.7797 35.0185C47.4314 35.4739 47.3282 36.0709 47.5035 36.6168C47.6788 37.1626 48.1103 37.588 48.6586 37.7554L49.1697 36.0817ZM57.7858 38.7129L57.2747 40.3866C58.1971 40.6683 59.1736 40.1506 59.458 39.229C59.7424 38.3074 59.2277 37.3295 58.307 37.0423L57.7858 38.7129ZM49.1873 36.0307L49.7084 34.3601C49.1771 34.1944 48.5987 34.2913 48.1503 34.621C47.702 34.9508 47.4373 35.4742 47.4373 36.0307H49.1873ZM49.1873 36.0587L50.5773 37.1219C50.8108 36.8167 50.9373 36.4431 50.9373 36.0587H49.1873ZM49.1873 24.1436H47.4373C47.4373 24.7002 47.702 25.2235 48.1503 25.5533C48.5987 25.8831 49.1771 25.98 49.7084 25.8142L49.1873 24.1436ZM57.7858 21.4615L58.307 23.1321C59.2277 22.8449 59.7424 21.8669 59.458 20.9454C59.1736 20.0238 58.1971 19.5061 57.2747 19.7878L57.7858 21.4615ZM49.1698 24.0926L48.6587 22.4189C48.1104 22.5864 47.6789 23.0117 47.5036 23.5576C47.3284 24.1034 47.4315 24.7005 47.7798 25.1558L49.1698 24.0926ZM49.1873 24.1154H50.9373C50.9373 23.7311 50.8108 23.3575 50.5773 23.0523L49.1873 24.1154ZM41.8145 14.4758L40.4245 15.539C40.7562 15.9726 41.2713 16.2266 41.8173 16.2258C42.3633 16.2249 42.8776 15.9692 43.2079 15.5345L41.8145 14.4758ZM47.1113 7.5048L48.5047 8.56355C49.0881 7.79572 48.9404 6.70061 48.1744 6.11477C47.4084 5.52892 46.3129 5.67314 45.7246 6.43726L47.1113 7.5048ZM41.7688 14.4443L40.3821 13.3768C40.0323 13.8311 39.9273 14.4279 40.1009 14.9743C40.2745 15.5207 40.7048 15.9474 41.2526 16.1165L41.7688 14.4443ZM41.7972 14.4531L43.1872 13.3899C42.9663 13.1011 42.6609 12.8882 42.3134 12.781L41.7972 14.4531ZM31.6177 10.7653L31.5894 2.16808L28.0895 2.17958L28.1177 10.7768L31.6177 10.7653ZM29.3237 12.4346L29.3516 12.4432L30.3838 9.09891L30.3559 9.0903L29.3237 12.4346ZM30.3273 12.4435L30.3559 12.4346L29.3237 9.09029L29.2951 9.09912L30.3273 12.4435ZM28.0895 2.16808L28.0612 10.7655L31.5612 10.777L31.5894 2.17958L28.0895 2.16808ZM19.297 13.377L13.9543 6.43726L11.181 8.57235L16.5236 15.5121L19.297 13.377ZM11.1742 8.56355L16.4713 15.535L19.2581 13.4175L13.961 6.44606L11.1742 8.56355ZM19.2548 15.5394L19.2725 15.5163L16.4923 13.39L16.4747 13.4131L19.2548 15.5394ZM18.3985 16.1253L18.4264 16.1167L17.3942 12.7724L17.3663 12.781L18.3985 16.1253ZM11.0207 22.4191L2.40418 19.7878L1.38195 23.1352L9.99852 25.7665L11.0207 22.4191ZM1.37195 23.1321L9.97119 25.8145L11.0134 22.4732L2.41418 19.7909L1.37195 23.1321ZM12.2423 24.1439V24.1154L8.74231 24.1154V24.1439L12.2423 24.1439ZM11.8823 25.1786L11.8997 25.156L9.11961 23.0296L9.10229 23.0523L11.8823 25.1786ZM9.97119 34.3599L1.37195 37.0423L2.41418 40.3835L11.0134 37.7011L9.97119 34.3599ZM2.40418 40.3866L11.0209 37.7552L9.99864 34.4078L1.38195 37.0392L2.40418 40.3866ZM11.8998 35.0183L11.8823 34.9955L9.10231 37.1219L9.11975 37.1447L11.8998 35.0183ZM12.2423 36.0587V36.0305H8.74231V36.0587H12.2423ZM16.4714 44.6393L11.1742 51.6108L13.961 53.7283L19.2582 46.7568L16.4714 44.6393ZM13.9543 53.7371L19.2971 46.7972L16.5237 44.6621L11.181 51.602L13.9543 53.7371ZM18.4265 44.0575L18.3985 44.0489L17.3663 47.3932L17.3943 47.4019L18.4265 44.0575ZM19.2724 44.6579L19.2548 44.6348L16.4748 46.7612L16.4924 46.7842L19.2724 44.6579ZM28.0612 49.4086L28.0895 58.0063L31.5894 57.9948L31.5612 49.3971L28.0612 49.4086ZM31.5894 58.0063L31.6177 49.4089L28.1177 49.3974L28.0895 57.9948L31.5894 58.0063ZM29.3516 47.731L29.3237 47.7396L30.3559 51.0839L30.3838 51.0753L29.3516 47.731ZM30.3559 47.7395L30.3273 47.7307L29.2952 51.0751L29.3238 51.0839L30.3559 47.7395ZM40.382 46.7974L45.7246 53.7371L48.4979 51.602L43.1553 44.6623L40.382 46.7974ZM48.5047 51.6108L43.2079 44.6398L40.4211 46.7573L45.7179 53.7283L48.5047 51.6108ZM40.4244 44.6354L40.4071 44.658L43.1873 46.7841L43.2045 46.7616L40.4244 44.6354ZM41.2812 44.0489L41.2526 44.0577L42.2847 47.4021L42.3132 47.3932L41.2812 44.0489ZM48.6586 37.7554L57.2747 40.3866L58.297 37.0392L49.6808 34.408L48.6586 37.7554ZM58.307 37.0423L49.7084 34.3601L48.6662 37.7013L57.2647 40.3835L58.307 37.0423ZM47.4373 36.0307V36.0587H50.9373V36.0307H47.4373ZM47.7973 34.9955L47.7797 35.0185L50.5597 37.1449L50.5773 37.1219L47.7973 34.9955ZM49.7084 25.8142L58.307 23.1321L57.2647 19.7909L48.6662 22.473L49.7084 25.8142ZM57.2747 19.7878L48.6587 22.4189L49.681 25.7663L58.297 23.1352L57.2747 19.7878ZM47.7798 25.1558L47.7973 25.1786L50.5773 23.0523L50.5599 23.0294L47.7798 25.1558ZM47.4373 24.1154V24.1436H50.9373V24.1154H47.4373ZM43.2079 15.5345L48.5047 8.56355L45.7179 6.44606L40.4211 13.417L43.2079 15.5345ZM45.7246 6.43726L40.3821 13.3768L43.1554 15.5119L48.4979 8.57235L45.7246 6.43726ZM41.2526 16.1165L41.2811 16.1253L42.3134 12.781L42.2849 12.7722L41.2526 16.1165ZM40.4072 15.5163L40.4245 15.539L43.2045 13.4126L43.1872 13.3899L40.4072 15.5163Z" fill="#007947"/>
<path d="M25.921 18.4121C28.4729 17.6245 31.2031 17.6245 33.755 18.4121L34.0475 18.5024C36.4946 19.2577 38.6457 20.7567 40.2015 22.791L40.3177 22.9429C41.8864 24.9939 42.7363 27.5041 42.7363 30.0862V30.0862C42.7363 32.6683 41.8864 35.1786 40.3177 37.2295L40.2015 37.3815C38.6456 39.4157 36.4946 40.9147 34.0475 41.67L33.755 41.7603C31.2031 42.548 28.4729 42.548 25.921 41.7603L25.6285 41.67C23.1814 40.9147 21.0303 39.4157 19.4744 37.3815L19.3582 37.2295C17.7896 35.1786 16.9397 32.6683 16.9397 30.0862V30.0862C16.9397 27.5041 17.7896 24.9939 19.3582 22.9429L19.4745 22.791C21.0303 20.7567 23.1814 19.2577 25.6285 18.5024L25.921 18.4121Z" stroke="#007947" stroke-width="3.5" stroke-linecap="square" stroke-linejoin="round"/>
</svg>
