<svg width="23" height="17" viewBox="0 0 23 17" fill="none" xmlns="http://www.w3.org/2000/svg">
<path d="M22.0823 1.19385C21.8666 0.945685 21.5166 0.853773 21.2002 0.964068L1.20516 7.88962C0.807271 8.02749 0.524435 8.36757 0.471703 8.77198C0.418971 9.17639 0.60593 9.56242 0.951086 9.7876L3.66919 11.5661C4.02873 11.8005 4.49853 11.828 4.88203 11.6304L7.80627 10.1507C8.10828 9.999 8.37194 10.4034 8.09869 10.5964L6.20992 11.9475C5.9127 12.1589 5.73533 12.4944 5.73533 12.8529V15.9227C5.73533 16.2536 5.92229 16.5569 6.2291 16.7132C6.5359 16.8694 6.90024 16.8556 7.19266 16.6718L9.21086 15.3896C9.30674 15.3299 9.42658 15.3299 9.51766 15.3896L11.4975 16.6856C11.6845 16.8097 11.9098 16.874 12.1303 16.874C12.207 16.874 12.2837 16.8648 12.3556 16.851C12.6576 16.7913 12.9213 16.612 13.0843 16.3639L22.1302 2.06242C22.322 1.79588 22.298 1.4466 22.0823 1.19385Z" fill="#007947"/>
</svg>
