<svg width="53" height="136" viewBox="0 0 53 136" fill="none" xmlns="http://www.w3.org/2000/svg">
<path d="M20.038 26.2688C16.7118 30.7116 11.2931 37.2302 9.23694 40.8502C12.5027 39.7617 15.0306 42.5336 16.857 45.255C19.2518 42.5336 25.4689 36.572 25.4689 36.572L27.0412 23.5601C27.0533 23.5727 23.5336 21.5982 20.038 26.2688Z" fill="#007947"/>
<path d="M18.381 117.405C18.381 117.405 16.9538 119.025 15.0548 120.975C13.2889 122.772 12.7446 123.291 11.1117 124.962C10.1562 125.936 10.9424 126.835 12.7688 126.759C14.3654 126.696 17.994 125.873 20.0139 125.113C21.4532 124.569 24.09 123.05 25.4447 122.152C26.7872 121.253 27.0533 120.025 27.0533 120.025V117.025L18.381 117.405Z" fill="#873F1B"/>
<path d="M41.0356 121.137C41.0356 121.137 40.709 124.213 40.5034 128.073C40.2977 131.934 40.8178 135.351 41.9548 135.769C43.0796 136.199 46.297 136.136 48.1234 130.782C49.9498 125.415 48.8612 120.213 48.8612 120.213L41.0356 121.137Z" fill="#873F1B"/>
<path d="M40.842 66.6597C42.1967 66.318 43.4788 65.837 44.7125 65.2421C44.2892 56.23 39.5841 51.4961 39.5841 51.4961C40.0438 47.7875 23.6063 52.977 23.6063 52.977C23.6063 52.977 22.7959 57.5843 21.7799 63.5333C27.3437 67.0648 34.613 68.2166 40.842 66.6597Z" fill="#723114"/>
<path d="M46.0916 93.5069C45.6925 84.8238 45.7167 73.1029 46.0191 68.0526C46.0554 67.4703 46.4424 61.091 46.4424 60.534C44.7733 61.3061 40.9753 62.8124 39.0885 63.1161C33.0771 64.0781 25.3603 62.6858 20.0505 59.4961C19.0103 65.673 19.3006 78.3432 18.5749 83.4315C16.8815 95.3675 17.6193 116.657 17.6193 116.657C17.6193 116.657 17.8371 119.252 22.0825 119.24C25.3361 119.227 28.0334 116.455 28.0334 116.455L28.372 91.5956L32.1458 71.9891C32.1458 71.9891 32.7868 90.2919 35.1817 95.57C39.5602 105.228 39.5602 122.252 39.5602 122.252C39.5602 122.252 45.0757 124.315 48.8494 122.341C52.6231 120.366 51.8853 118.164 51.8853 118.164C51.8853 118.164 50.9419 104.924 46.0916 93.5069Z" fill="#FEBA2A"/>
<path d="M20.0385 57.7867C22.772 59.1031 26.2433 59.4321 28.8801 59.6726C31.662 59.9258 34.4682 59.9638 37.2622 59.8625C40.3102 59.7359 43.963 59.7233 46.9263 58.6347C46.5513 55.6222 46.249 53.1793 46.0675 52.2047C44.9548 46.4329 48.4019 38.7244 47.9544 32.0159C46.2974 26.2947 39.2821 22.4595 39.2821 22.4595L30.5976 22.2949C30.5976 22.2949 25.179 22.7632 24.0783 24.0923C18.8047 30.4211 21.3085 44.9646 20.5827 51.1668C20.5344 51.749 20.3287 54.4324 20.0385 57.7867Z" fill="#389055"/>
<path d="M31.5893 21.0036L30.8031 25.7628C30.8031 25.7628 30.8273 27.3324 31.5893 28.75C33.3915 28.1678 34.6011 27.7627 36.2581 26.864C38.2297 25.7755 39.5723 24.1047 39.5723 24.1047L38.1813 16.0039L31.5893 21.0036Z" fill="#FFAD97"/>
<path d="M38.9554 7.08164C37.0806 4.57542 31.6861 2.47426 28.1784 7.91705C24.4893 13.6257 27.9728 22.9543 31.2023 22.4101C33.0045 22.1063 37.0806 20.3848 38.8586 17.3343C40.8543 13.9041 40.4068 9.03092 38.9554 7.08164Z" fill="#FFC5B3"/>
<path d="M28.1787 8.96664C28.8923 10.2577 29.0254 12.5994 32.0613 12.8905C34.5409 13.131 36.5245 12.4348 36.5245 12.4348L36.1495 15.0423C36.1495 15.0423 36.6454 15.0802 37.0688 14.9537C37.4437 13.6499 38.5686 13.7765 38.9194 14.5106C39.3306 15.3714 38.8589 17.3459 38.8589 17.3459C38.8589 17.3459 41.8222 15.5992 41.9553 11.6247C42.0399 9.14384 40.1652 3.70109 35.8592 2.96695C31.5412 2.22015 27.8521 8.38439 28.1787 8.96664Z" fill="#723114"/>
<path d="M26.9564 41.535C26.8597 41.9403 26.521 42.1935 26.1944 42.1049C25.8679 42.0162 25.6864 41.6237 25.7832 41.2184C25.88 40.8132 26.2186 40.5599 26.5452 40.6485C26.8718 40.7372 27.0532 41.1298 26.9564 41.535Z" fill="#3A3A3A"/>
<path d="M32.7987 43.4335C32.702 43.8387 32.3633 44.092 32.0367 44.0033C31.7101 43.9147 31.5287 43.5221 31.6255 43.1169C31.7222 42.7116 32.0609 42.4583 32.3875 42.547C32.7141 42.6356 32.8955 43.0282 32.7987 43.4335Z" fill="#3A3A3A"/>
<path d="M26.4244 51.826C26.3276 52.2313 25.989 52.4845 25.6624 52.3959C25.3359 52.3073 25.1545 51.9147 25.2512 51.5094C25.348 51.1042 25.6866 50.8509 26.0132 50.9396C26.3518 51.0282 26.5332 51.4208 26.4244 51.826Z" fill="#3A3A3A"/>
<path d="M32.2664 53.7245C32.1697 54.1297 31.831 54.383 31.5045 54.2943C31.1779 54.2057 30.9965 53.8131 31.0932 53.4079C31.19 53.0026 31.5287 52.7493 31.8552 52.838C32.1818 52.9266 32.3753 53.3192 32.2664 53.7245Z" fill="#3A3A3A"/>
<path d="M24.7191 63.1151C24.6224 63.5203 24.2837 63.7736 23.9571 63.685C23.6306 63.5963 23.4491 63.2037 23.5459 62.7985C23.6426 62.3932 23.9813 62.14 24.3079 62.2286C24.6345 62.3173 24.8159 62.7225 24.7191 63.1151Z" fill="#3A3A3A"/>
<path d="M30.5614 65.0154C30.4647 65.4206 30.126 65.6739 29.7994 65.5852C29.4729 65.4966 29.2914 65.104 29.3882 64.6988C29.4849 64.2936 29.8236 64.0404 30.1502 64.129C30.4767 64.2176 30.6582 64.6228 30.5614 65.0154Z" fill="#3A3A3A"/>
<path d="M40.842 66.6597C43.5997 65.9761 43.9021 66.4445 46.2123 64.8496C45.9946 61.2422 45.5349 56.0147 46.0188 53.3946C44.5189 53.2427 42.4264 53.4578 40.842 52.3946C39.3905 51.42 36.9594 47.762 36.79 44.0027C36.4998 37.6992 37.5157 34.6741 37.5157 34.6741C37.5157 34.6741 27.3436 31.6743 23.5336 30.5098C22.1184 33.1552 20.7516 37.5094 20.6428 41.3573C20.4976 46.3697 20.4614 53.0148 20.2074 55.9008C20.1106 57.0652 19.8566 59.2424 19.5421 61.9258C25.2874 66.685 33.7299 68.4444 40.842 66.6597Z" fill="#FEBA2A"/>
<path d="M23.1464 31.2693C25.3235 25.8139 28.7585 22.523 28.7585 22.523L30.1132 22.3711L25.2267 32.0161C25.2267 32.0161 23.2915 32.092 23.1464 31.2693Z" fill="#FEBA2A"/>
<path d="M52.3569 41.369C51.0143 33.61 50.4216 28.1166 45.5351 27.4457C42.8621 27.0787 41.0841 33.977 41.3018 37.4199C41.5074 40.7868 44.3861 52.2166 44.3861 52.2166L42.596 54.7228C45.0513 56.3429 48.8734 61.5325 49.1879 61.9629C51.0022 60.6971 51.9214 58.5453 52.2359 56.6973C52.7439 53.7734 53.6027 48.5079 52.3569 41.369Z" fill="#007947"/>
<path d="M39.7416 22.8379C39.7416 22.8379 38.9192 25.5972 38.0483 27.4073C37.1774 29.2173 34.2262 35.4702 34.2262 35.4702C34.2262 35.4702 36.6574 36.7359 36.6694 36.622C36.6694 36.5081 41.06 26.6731 41.3745 23.8378C40.5037 22.9771 39.7416 22.8379 39.7416 22.8379Z" fill="#FEBA2A"/>
<path d="M29.424 21.7891L27.0533 25.4091L31.589 28.7506C31.589 28.7506 30.9358 24.8775 31.3713 22.2953C30.452 22.6624 29.6175 22.0169 29.424 21.7891Z" fill="#007947"/>
<path d="M7.72517 64.8625C7.72517 64.8625 4.87066 58.1414 6.23743 58.5717C7.6163 58.9894 8.76535 58.5971 8.08802 57.749C7.41068 56.901 6.6003 54.7239 6.6003 54.7239L8.60812 52.8252C8.60812 52.8252 11.3658 48.952 11.8497 48.1166C12.7568 46.5344 15.2001 43.1422 15.2001 43.1422C15.2001 43.1422 12.9382 42.1422 10.9667 41.6106C8.99517 41.079 7.55582 42.9144 6.47933 44.851C5.40285 46.7876 3.76998 54.053 2.85074 55.2934C2.33064 56.0023 0.855014 59.6856 2.53626 62.2171C3.80627 64.1284 7.72517 64.8625 7.72517 64.8625Z" fill="#FFC5B3"/>
<path d="M7.79773 42.1422C7.79773 42.1422 8.01544 40.0917 9.24916 38.5095C10.4708 36.9273 13.7002 37.6108 15.1154 38.6614C16.5305 39.712 18.1876 42.7878 17.486 44.6991C16.4942 47.4204 13.4462 46.3572 13.4462 46.3572C13.4462 46.3572 13.7486 43.9269 11.7771 42.1169C10.6038 41.041 7.79773 42.1422 7.79773 42.1422Z" fill="#A96FAA"/>
<path d="M35.7742 70.3798C38.4472 68.304 47.5187 62.9879 47.5187 62.9879L42.3177 57.9883C42.3177 57.9883 37.6852 63.8107 33.21 66.3042C32.9197 66.4687 32.3633 66.7598 31.7223 67.1016C34.7582 67.5193 32.8955 71.0886 35.7742 70.3798Z" fill="#FFC5B3"/>
<path d="M47.1924 63.863C48.2084 63.2302 49.1881 62.5467 50.1315 61.7999C50.2646 61.0657 50.2525 60.205 49.9985 59.2177C48.9462 55.0535 43.7452 53.0156 43.7452 53.0156C43.7452 53.0156 42.4873 53.7244 41.2173 55.2686C40.5399 56.104 40.8423 57.3571 41.2173 57.9394C42.451 59.8886 45.2813 59.8506 47.1924 63.863Z" fill="#389055"/>
<path d="M42.3538 8.72612C42.3538 8.72612 42.1724 5.19468 40.854 3.27074C39.4146 1.1696 32.0244 0.245598 30.5366 0.979732C29.0489 1.71387 28.2506 4.85293 28.2506 4.85293L21.8522 8.25779C21.8522 8.25779 25.8195 13.2828 29.7988 14.6751C36.4271 17.0041 43.0553 15.8016 45.9824 13.6499C45.9945 13.6499 42.7166 10.2197 42.3538 8.72612Z" fill="#FEBA2A"/>
<path opacity="0.5" d="M27.6461 5.18142C27.6461 5.18142 30.5611 8.9027 34.7339 9.86466C38.9068 10.8393 42.8015 9.67479 42.8015 9.67479L42.3419 8.37108C42.3419 8.37108 38.2295 9.67479 34.6977 8.26982C31.1779 6.86485 28.4807 4.13086 28.4807 4.13086L27.6461 5.18142Z" fill="#913413"/>
<path d="M24.7796 34.9395C24.3926 37.0153 24.5861 43.5465 28.1179 44.5338C31.3231 45.4199 32.1577 41.4707 32.8955 38.4076C28.7468 37.433 24.7796 34.9395 24.7796 34.9395Z" fill="#FFE36C"/>
<path d="M39.0641 21.1426C39.0641 21.1426 36.2217 23.8006 34.7582 25.0031C33.2947 26.2182 31.5892 28.7371 31.5892 28.7371L37.4797 28.9775C37.4797 28.9775 39.9834 23.8386 39.9471 23.1424C39.9229 22.4589 39.0641 21.1426 39.0641 21.1426Z" fill="#007947"/>
<path d="M19.046 75.5468C24.8777 75.5468 29.6052 72.7643 29.6052 69.332C29.6052 65.8996 24.8777 63.1172 19.046 63.1172C13.2143 63.1172 8.48682 65.8996 8.48682 69.332C8.48682 72.7643 13.2143 75.5468 19.046 75.5468Z" fill="#873F1B"/>
<path d="M17.5222 52.2441H16.4215H4.99146C4.99146 52.2441 5.86232 65.9776 8.71682 70.6102C11.0996 74.4834 15.6353 74.7366 17.0626 74.7239C19.3244 74.7492 26.884 74.5341 29.3031 70.6102C32.1576 65.9776 33.0284 52.2441 33.0284 52.2441H17.5222Z" fill="#873F1B"/>
<path d="M18.9856 45.4844C11.9824 45.4844 6.29761 48.5095 6.29761 52.2562C6.29761 55.9901 11.9824 59.028 18.9856 59.028C25.9888 59.028 31.6736 56.0028 31.6736 52.2562C31.6857 48.5095 26.0009 45.4844 18.9856 45.4844Z" fill="#AA4D24"/>
<path d="M19.0462 43.9648C11.281 43.9648 4.99146 47.6735 4.99146 52.2428C4.99146 56.8122 11.281 60.5209 19.0462 60.5209C26.8114 60.5209 33.101 56.8122 33.101 52.2428C33.101 47.6735 26.8114 43.9648 19.0462 43.9648ZM18.9857 59.0146C11.9826 59.0146 6.29775 55.9895 6.29775 52.2428C6.29775 48.5089 11.9826 45.4711 18.9857 45.4711C25.9889 45.4711 31.6737 48.4962 31.6737 52.2428C31.6858 55.9895 26.001 59.0146 18.9857 59.0146Z" fill="#C6663C"/>
<path d="M14.0388 59.028C14.2203 59.0786 14.4017 59.1166 14.5831 59.1545C14.438 56.7243 14.2445 53.6738 14.0146 50.9778C13.5429 45.3831 11.8617 39.9784 11.8496 39.9277L11.3416 40.1049C11.3536 40.1556 13.0228 45.4971 13.4824 51.0284C13.7123 53.6738 13.9058 56.6357 14.0388 59.028Z" fill="#82AF05"/>
<path d="M14.6554 59.1818C13.7603 57.6882 12.7927 56.2579 11.8009 55.144C8.14813 51.0682 3.91477 46.7899 3.87849 46.752L3.51562 47.1443C3.55191 47.1823 7.77318 51.4479 11.426 55.5111C12.2847 56.473 13.1314 57.6882 13.9297 58.9919C14.1595 59.0679 14.4014 59.1311 14.6554 59.1818Z" fill="#82AF05"/>
<path d="M20.5942 59.4593C20.7394 56.9911 20.9329 53.8267 21.1748 51.0421C21.6344 45.5107 23.3036 40.1692 23.3157 40.1186L22.8077 39.9414C22.7956 39.992 21.1143 45.3968 20.6426 50.9914C20.4007 53.814 20.2072 57.0037 20.062 59.4846C20.2313 59.472 20.4128 59.472 20.5942 59.4593Z" fill="#82AF05"/>
<path d="M17.9941 59.5355C16.8693 55.6369 15.5388 51.8016 15.5267 51.7637L15.0308 51.9535C15.0429 51.9915 16.3371 55.7002 17.4378 59.5229C17.6313 59.5482 17.8127 59.5355 17.9941 59.5355Z" fill="#82AF05"/>
<path d="M21.5617 59.3448C21.6464 58.8638 21.7311 58.3829 21.8399 57.9019C22.3842 55.383 24.2953 50.801 24.3074 50.7503L23.8236 50.5352C23.7389 50.725 21.8762 55.2185 21.3198 57.788C21.1989 58.3322 21.1021 58.8765 21.0054 59.4208C21.1868 59.3828 21.3803 59.3701 21.5617 59.3448Z" fill="#82AF05"/>
<path d="M19.6995 59.5096C19.893 56.1427 20.1954 48.8394 19.385 45.3712C18.3206 40.7766 17.486 33.9922 17.486 33.9922C17.486 33.9922 17.0627 40.4348 16.9538 44.0675C16.8692 46.8901 18.5141 55.7503 19.2398 59.5349C19.3971 59.5349 19.5543 59.5223 19.6995 59.5096Z" fill="#82AF05"/>
<path d="M14.6555 59.1804C14.5346 55.7502 14.0386 50.9024 12.2848 48.0038C9.35774 43.1813 2.86255 39.4727 2.86255 39.4727C2.86255 39.4727 4.61637 45.1179 8.92231 49.0417C11.4261 51.3201 12.9501 55.6996 13.7847 58.9652C14.0749 59.0412 14.3652 59.1171 14.6555 59.1804Z" fill="#82AF05"/>
<path d="M26.0612 43.9279C25.0573 46.105 23.11 54.826 22.1423 59.2815C22.4931 59.2309 22.8439 59.1802 23.1825 59.117C25.4807 55.0665 29.5931 47.7252 31.0082 44.5481C33.0161 40.042 33.766 34.498 33.766 34.498C33.766 34.498 28.698 38.1814 26.0612 43.9279Z" fill="#82AF05"/>
<path d="M29.6778 46.8516C29.4843 47.168 29.2787 47.4718 29.0852 47.7629C29.0247 47.8515 28.9642 47.9401 28.9037 48.0287C30.6334 49.1805 31.6857 50.6488 31.6857 52.2436C31.6857 55.9776 26.0009 59.0154 18.9977 59.0154C11.9945 59.0154 6.3097 55.9902 6.3097 52.2436C6.3097 51.3829 6.62418 50.5728 7.16847 49.8134C6.76933 49.6235 6.38227 49.4084 6.03151 49.1426C5.37836 50.1045 5.00342 51.1424 5.00342 52.2436C5.00342 56.813 11.293 60.5216 19.0582 60.5216C26.8234 60.5216 33.1129 56.813 33.1129 52.2436C33.1008 50.1805 31.8066 48.2945 29.6778 46.8516Z" fill="#C6663C"/>
<path d="M18.2357 38.7254C18.1269 37.4344 16.5424 37.1432 15.6231 36.8394C14.3531 36.4091 14.9821 36.5989 14.8127 35.599C14.7644 35.3205 14.8128 35.0294 14.6313 34.7889C14.0628 34.0168 12.8412 34.3332 11.9462 34.7509C12.2727 33.5611 12.817 31.7891 11.2688 31.6751C9.92624 31.5739 9.769 32.9662 9.91415 34.0674C9.81739 33.9408 9.70852 33.8143 9.62385 33.713C9.56338 33.6497 9.50291 33.5991 9.44243 33.5358C9.007 32.789 8.20869 32.0802 7.38621 32.8017C6.69678 33.4092 7.13223 34.4345 7.59185 35.2699C6.81775 35.156 6.05573 35.3332 5.86221 36.3205C5.76544 36.8015 5.8864 37.1559 6.1283 37.409C5.08811 37.8141 3.98744 38.4343 4.13258 39.5608C4.27773 40.6873 5.23326 40.9152 6.1525 40.8772C5.6324 41.8898 5.31792 43.1176 6.28555 43.9657C7.22899 44.8011 8.31755 44.3707 9.16423 43.6619C9.35775 44.6998 10.0351 45.5352 11.2446 45.5732C12.2969 45.6111 12.8654 45.0795 13.2645 44.3454C14.1112 44.9656 15.1998 44.9276 16.1432 43.6872C16.8327 42.7885 16.869 41.662 16.361 40.9911C17.3407 40.5354 18.3204 39.8013 18.2357 38.7254Z" fill="#FF3E39"/>
<path d="M9.40601 35.1933C9.24876 35.0414 9.17618 34.9782 8.97054 35.0035C8.87377 35.0161 8.76489 35.0921 8.76489 35.2186C8.77699 35.3832 8.81328 35.4718 8.88586 35.6237C9.10359 36.0666 9.7568 35.5477 9.40601 35.1933Z" fill="#FFD41F"/>
<path d="M7.0959 38.5344C6.67257 38.3952 6.37018 38.6104 6.23713 39.0281C6.17665 39.1927 6.3339 39.3952 6.49114 39.3826C6.69676 39.3699 6.87819 39.4079 7.0959 39.3826C7.53133 39.3193 7.45876 38.6484 7.0959 38.5344Z" fill="#FFD41F"/>
<path d="M10.8089 39.1031C10.5912 39.0905 10.4461 39.1538 10.301 39.331C10.1679 39.4955 10.1679 39.7107 10.301 39.8752C10.3251 39.9005 10.3372 39.9259 10.3614 39.9512C10.4582 40.0777 10.6396 40.0524 10.7485 39.9512C10.9662 39.7487 10.8936 39.5841 10.9541 39.3183C10.9903 39.2044 10.9178 39.1158 10.8089 39.1031Z" fill="#FFD41F"/>
<path d="M8.07568 41.2816C7.93053 41.3703 7.85796 41.4589 7.77329 41.5982C7.65234 41.8008 7.72492 42.1174 7.93054 42.2314C7.95473 42.2441 7.97891 42.2568 7.991 42.2694C8.13615 42.3454 8.28131 42.3201 8.40226 42.2188C8.60789 42.0415 8.55949 41.8515 8.59578 41.5982C8.63207 41.3196 8.2813 41.155 8.07568 41.2816Z" fill="#FFD41F"/>
<path d="M13.7606 41.8765C13.5671 41.5599 13.3252 41.4206 12.9744 41.3193C12.8413 41.2813 12.7204 41.408 12.7446 41.5599C12.8292 41.9272 12.9623 42.1804 13.2647 42.3957C13.5671 42.5983 13.9541 42.1804 13.7606 41.8765Z" fill="#FFD41F"/>
<path d="M13.4581 37.0148C12.9984 36.9009 12.6477 37.23 12.7202 37.711C12.7565 37.9389 13.0226 38.0022 13.192 37.9136C13.3492 37.825 13.4702 37.6857 13.6032 37.5718C13.7968 37.4072 13.6758 37.0655 13.4581 37.0148Z" fill="#FFD41F"/>
<path d="M15.6593 38.9272C15.5505 38.8133 15.49 38.7753 15.3448 38.7373C15.2118 38.6994 15.0062 38.7626 14.9457 38.9145C14.9336 38.9525 14.9094 38.9905 14.8973 39.0411C14.7642 39.3449 15.0304 39.6233 15.3207 39.4841C15.4053 39.4461 15.49 39.3449 15.5747 39.3196C15.7077 39.2563 15.7803 39.0664 15.6593 38.9272Z" fill="#FFD41F"/>
<path d="M30.4281 38.6239C30.3192 37.3328 28.7348 37.0416 27.8155 36.7379C26.5455 36.3075 27.1745 36.4974 27.0051 35.4974C26.9567 35.219 27.0051 34.9278 26.8237 34.6873C26.2552 33.9152 25.0336 34.2317 24.1385 34.6494C24.4651 33.4596 25.0094 31.6875 23.4612 31.5736C22.1186 31.4723 21.9614 32.8647 22.1065 33.9659C22.0098 33.8393 21.9009 33.7127 21.8162 33.6114C21.7558 33.5482 21.6953 33.4975 21.6348 33.4342C21.1994 32.6874 20.4011 31.9786 19.5786 32.7001C18.8892 33.3077 19.3246 34.3329 19.7842 35.1683C19.0101 35.0544 18.2481 35.2316 18.0546 36.2189C17.9578 36.6999 18.0788 37.0543 18.3207 37.3075C17.2805 37.7125 16.1798 38.3327 16.325 39.4593C16.4701 40.5858 17.4257 40.8136 18.3449 40.7756C17.8248 41.7882 17.5103 43.016 18.4779 43.8641C19.4214 44.6995 20.5099 44.2691 21.3566 43.5603C21.5501 44.5982 22.2275 45.4336 23.437 45.4716C24.4893 45.5096 25.0578 44.978 25.4569 44.2438C26.3036 44.864 27.3922 44.8261 28.3356 43.5856C29.0251 42.6869 29.0613 41.5604 28.5533 40.8895C29.533 40.4339 30.5128 39.6997 30.4281 38.6239Z" fill="#ED2020"/>
<path d="M21.5982 35.1055C21.441 34.9536 21.3684 34.8903 21.1628 34.9156C21.054 34.9282 20.9451 35.0042 20.9572 35.1308C20.9693 35.2953 21.0056 35.3839 21.0782 35.5358C21.2959 35.9662 21.961 35.4472 21.5982 35.1055Z" fill="#FFD41F"/>
<path d="M19.288 38.4329C18.8647 38.2937 18.5623 38.5088 18.4293 38.9265C18.3688 39.091 18.526 39.2935 18.6833 39.2809C18.8889 39.2682 19.0703 39.3062 19.288 39.2809C19.7235 39.2176 19.6509 38.5468 19.288 38.4329Z" fill="#FFD41F"/>
<path d="M23.0015 39.0035C22.7838 38.9909 22.6387 39.0541 22.4936 39.2313C22.3605 39.3959 22.3605 39.6111 22.4936 39.7756C22.5178 39.8009 22.5299 39.8262 22.5541 39.8516C22.6508 39.9781 22.8322 39.9528 22.9411 39.8516C23.1588 39.649 23.0862 39.4845 23.1467 39.2187C23.183 39.1048 23.1104 39.0162 23.0015 39.0035Z" fill="#FFD41F"/>
<path d="M20.28 41.18C20.1349 41.2687 20.0623 41.3573 19.9776 41.4966C19.8567 41.6992 19.9293 42.0158 20.1349 42.1297C20.1591 42.1424 20.1833 42.1551 20.1953 42.1677C20.3405 42.2437 20.4856 42.2184 20.6066 42.1171C20.8122 41.9398 20.7638 41.7499 20.8001 41.4966C20.8243 41.218 20.4735 41.0534 20.28 41.18Z" fill="#FFD41F"/>
<path d="M25.9649 41.7747C25.7714 41.4582 25.5295 41.319 25.1787 41.2177C25.0457 41.1798 24.9247 41.3063 24.9489 41.4582C25.0336 41.8253 25.1666 42.0785 25.469 42.2937C25.7714 42.4962 26.1463 42.0785 25.9649 41.7747Z" fill="#FFD41F"/>
<path d="M25.6501 36.9152C25.1905 36.8013 24.8398 37.1304 24.9124 37.6114C24.9487 37.8393 25.2147 37.9026 25.384 37.814C25.5413 37.7254 25.6622 37.5861 25.7953 37.4722C25.9888 37.3076 25.8678 36.9658 25.6501 36.9152Z" fill="#FFD41F"/>
<path d="M27.8516 38.8393C27.7428 38.7254 27.6823 38.6874 27.5372 38.6494C27.4041 38.6115 27.1985 38.6748 27.1381 38.8267C27.126 38.8646 27.1018 38.9026 27.0897 38.9532C26.9566 39.257 27.2227 39.5355 27.513 39.3962C27.5976 39.3583 27.6823 39.257 27.7669 39.2317C27.9 39.1557 27.9726 38.9659 27.8516 38.8393Z" fill="#FFD41F"/>
<path d="M21.9127 49.9402C21.8039 48.6491 20.2194 48.358 19.3001 48.0542C18.0301 47.6239 18.6591 47.8137 18.4898 46.8138C18.4414 46.5353 18.4898 46.2442 18.3083 46.0037C17.7398 45.2316 16.5182 45.5481 15.6232 45.9658C15.9497 44.776 16.494 43.0039 14.9458 42.89C13.6032 42.7887 13.446 44.181 13.5911 45.2822C13.4944 45.1557 13.3855 45.0291 13.3008 44.9278C13.2404 44.8646 13.1799 44.8139 13.1194 44.7506C12.684 44.0038 11.8857 43.295 11.0632 44.0165C10.3738 44.6241 10.8092 45.6493 11.2688 46.4847C10.4947 46.3708 9.73275 46.548 9.53922 47.5353C9.44246 48.0163 9.5634 48.3707 9.8053 48.6238C8.76511 49.0289 7.66444 49.6491 7.80958 50.7756C7.95473 51.9021 8.91026 52.1299 9.8295 52.092C9.3094 53.1046 8.99492 54.3323 9.96255 55.1804C10.906 56.0158 11.9946 55.5854 12.8412 54.8766C13.0348 55.9145 13.7121 56.7499 14.9216 56.7879C15.9739 56.8259 16.5424 56.2942 16.9416 55.5601C17.7882 56.1803 18.8768 56.1424 19.8202 54.9019C20.5097 54.0033 20.546 52.8767 20.0379 52.2059C21.0177 51.7502 21.9974 51.0161 21.9127 49.9402Z" fill="#ED2020"/>
<path d="M13.0833 46.4082C12.926 46.2563 12.8535 46.193 12.6479 46.2183C12.5511 46.231 12.4302 46.3069 12.4422 46.4335C12.4543 46.5981 12.4906 46.6867 12.5632 46.8386C12.7809 47.2817 13.434 46.7626 13.0833 46.4082Z" fill="#FFD41F"/>
<path d="M10.7731 49.7493C10.3498 49.6101 10.0474 49.8252 9.91438 50.2429C9.8539 50.4074 10.0111 50.6099 10.1684 50.5973C10.374 50.5846 10.5554 50.6226 10.7731 50.5973C11.2086 50.534 11.136 49.8632 10.7731 49.7493Z" fill="#FFD41F"/>
<path d="M14.4864 50.3199C14.2687 50.3073 14.1236 50.3706 13.9784 50.5477C13.8454 50.7122 13.8454 50.9274 13.9784 51.0919C14.0026 51.1172 14.0147 51.1425 14.0389 51.1679C14.1357 51.2944 14.3171 51.2691 14.426 51.1679C14.6437 50.9654 14.5711 50.8008 14.6316 50.5351C14.6678 50.4212 14.5832 50.3326 14.4864 50.3199Z" fill="#FFD41F"/>
<path d="M11.7527 52.4964C11.6075 52.5851 11.535 52.6737 11.4503 52.813C11.3293 53.0156 11.4019 53.3322 11.6075 53.4462C11.6317 53.4588 11.6559 53.4715 11.668 53.4841C11.8132 53.5601 11.9583 53.5348 12.0793 53.4335C12.2849 53.2562 12.2365 53.0663 12.2728 52.813C12.3091 52.5344 11.9583 52.3698 11.7527 52.4964Z" fill="#FFD41F"/>
<path d="M17.4376 53.0913C17.2441 52.7747 17.0022 52.6354 16.6514 52.5341C16.5183 52.4962 16.3974 52.6228 16.4216 52.7747C16.5062 53.1419 16.6393 53.3952 16.9417 53.6104C17.2441 53.813 17.6311 53.3952 17.4376 53.0913Z" fill="#FFD41F"/>
<path d="M17.1353 48.2316C16.6757 48.1177 16.3249 48.4468 16.3975 48.9277C16.4338 49.1556 16.6999 49.2188 16.8692 49.1302C17.0265 49.0417 17.1474 48.9024 17.2805 48.7885C17.474 48.624 17.3531 48.2822 17.1353 48.2316Z" fill="#FFD41F"/>
<path d="M19.3246 50.142C19.2157 50.0281 19.1552 49.9901 19.0101 49.9522C18.877 49.9142 18.6714 49.9775 18.611 50.1294C18.5989 50.1673 18.5747 50.2053 18.5626 50.256C18.4295 50.5597 18.6956 50.8382 18.9859 50.699C19.0706 50.661 19.1552 50.5597 19.2399 50.5344C19.385 50.4711 19.4576 50.2813 19.3246 50.142Z" fill="#FFD41F"/>
<path d="M37.3947 46.6497C37.3101 45.7131 36.161 45.4979 35.4837 45.27C34.5523 44.9536 35.024 45.0928 34.891 44.3714C34.8547 44.1688 34.891 43.9537 34.7579 43.7765C34.3467 43.2069 33.4516 43.4474 32.7985 43.7512C33.0404 42.8778 33.4274 41.5867 32.3026 41.4981C31.3229 41.4222 31.214 42.4474 31.3108 43.2449C31.2382 43.1436 31.1656 43.055 31.093 42.9917C31.0568 42.9537 30.9963 42.9031 30.96 42.8651C30.6334 42.3209 30.0528 41.8019 29.4602 42.3209C28.9522 42.7639 29.2787 43.5233 29.6053 44.1309C29.0368 44.0549 28.4804 44.1688 28.3353 44.903C28.2627 45.2574 28.3595 45.5105 28.5288 45.7004C27.7668 45.9915 26.9685 46.4472 27.0774 47.2699C27.1863 48.0927 27.8878 48.2699 28.553 48.2319C28.166 48.966 27.9482 49.8773 28.6498 50.4849C29.3392 51.0925 30.1375 50.776 30.7544 50.2697C30.8995 51.0292 31.3954 51.6367 32.2784 51.662C33.0525 51.6874 33.4637 51.295 33.754 50.7634C34.3709 51.219 35.1692 51.1937 35.8586 50.2824C36.3545 49.6242 36.3908 48.8015 36.0159 48.3078C36.7416 47.9661 37.4552 47.4345 37.3947 46.6497Z" fill="#ED2020"/>
<path d="M30.936 44.0675C30.8271 43.9535 30.7667 43.9154 30.6094 43.9281C30.5369 43.9408 30.4522 43.9915 30.4643 44.0802C30.4764 44.2069 30.5006 44.2703 30.549 44.3716C30.7183 44.7011 31.2021 44.321 30.936 44.0675Z" fill="#FFD41F"/>
<path d="M29.2425 46.5103C28.9401 46.4091 28.7103 46.5736 28.6135 46.8773C28.5772 47.0038 28.6861 47.143 28.8071 47.143C28.9643 47.143 29.0974 47.1684 29.2425 47.143C29.5691 47.0798 29.5086 46.5863 29.2425 46.5103Z" fill="#FFD41F"/>
<path d="M31.964 46.9159C31.8068 46.9033 31.6979 46.9539 31.6011 47.0805C31.5044 47.207 31.5044 47.3589 31.6011 47.4855C31.6132 47.4981 31.6253 47.5235 31.6495 47.5361C31.7221 47.6247 31.8552 47.612 31.9277 47.5361C32.085 47.3842 32.0366 47.2703 32.085 47.0678C32.0971 46.9919 32.0366 46.9286 31.964 46.9159Z" fill="#FFD41F"/>
<path d="M29.9679 48.5091C29.8712 48.5724 29.8107 48.6356 29.7502 48.7369C29.6655 48.8888 29.7139 49.1166 29.8712 49.1926C29.8833 49.2052 29.9074 49.2053 29.9195 49.2179C30.0284 49.2685 30.1251 49.2559 30.2219 49.1799C30.3791 49.0534 30.3428 48.9141 30.3549 48.7243C30.367 48.5344 30.113 48.4205 29.9679 48.5091Z" fill="#FFD41F"/>
<path d="M34.1291 48.9524C33.9839 48.7245 33.8146 48.6233 33.5606 48.5473C33.4638 48.522 33.367 48.6106 33.3912 48.7245C33.4517 48.9903 33.5485 49.1802 33.7662 49.3321C33.9839 49.4713 34.2621 49.1675 34.1291 48.9524Z" fill="#FFD41F"/>
<path d="M33.8991 45.3967C33.5604 45.3081 33.3064 45.5613 33.3548 45.903C33.379 46.0675 33.5725 46.1181 33.6934 46.0548C33.8023 45.9915 33.8991 45.8903 33.9958 45.8017C34.141 45.6878 34.0563 45.4347 33.8991 45.3967Z" fill="#FFD41F"/>
<path d="M35.508 46.8013C35.4354 46.7252 35.387 46.6872 35.2782 46.6618C35.1814 46.6364 35.0242 46.6745 34.9879 46.7886C34.9758 46.814 34.9637 46.852 34.9516 46.8773C34.8549 47.1055 35.0484 47.2957 35.2661 47.207C35.3266 47.1816 35.387 47.1055 35.4475 47.0802C35.5443 47.0295 35.5926 46.89 35.508 46.8013Z" fill="#FFD41F"/>
<path d="M33.113 51.5847C33.0041 50.3063 31.4196 50.0025 30.5004 49.6987C29.2303 49.2684 29.8593 49.4582 29.69 48.4583C29.6416 48.1798 29.69 47.8887 29.5085 47.6482C28.9401 46.8761 27.7184 47.1926 26.8234 47.6102C27.15 46.4205 27.6942 44.6484 26.146 44.5345C24.8035 44.4333 24.6462 45.8256 24.7914 46.9268C24.6946 46.8002 24.5857 46.6736 24.5011 46.5724C24.4406 46.5091 24.3801 46.4584 24.3196 46.3952C23.8842 45.6484 23.0859 44.9396 22.2634 45.661C21.574 46.2686 22.0094 47.2938 22.469 48.1292C21.6949 48.0153 20.9329 48.1925 20.7394 49.1798C20.6427 49.6607 20.7636 50.0152 21.0055 50.2683C19.9653 50.6733 18.8646 51.2935 19.0098 52.42C19.1549 53.5466 20.1105 53.7744 21.0297 53.7364C20.5096 54.749 20.1951 55.9768 21.1627 56.8248C22.1062 57.6602 23.1948 57.2298 24.0414 56.521C24.235 57.5589 24.9123 58.3943 26.1218 58.4323C27.1741 58.4703 27.7426 57.9387 28.1418 57.2045C28.9884 57.8247 30.077 57.7868 31.0205 56.5464C31.7099 55.6477 31.7462 54.5212 31.2382 53.8503C32.2179 53.382 33.2097 52.6605 33.113 51.5847Z" fill="#FF3E39"/>
<path d="M24.2834 48.0527C24.1261 47.9008 24.0536 47.8375 23.8479 47.8628C23.7512 47.8755 23.6423 47.9514 23.6423 48.078C23.6544 48.2426 23.6907 48.3311 23.7633 48.483C23.9931 48.926 24.6462 48.4071 24.2834 48.0527Z" fill="#FFD41F"/>
<path d="M21.9853 51.3821C21.562 51.2429 21.2596 51.458 21.1265 51.8757C21.0661 52.0402 21.2233 52.2428 21.3805 52.2301C21.5862 52.2174 21.7676 52.2554 21.9853 52.2301C22.4208 52.1668 22.3361 51.5087 21.9853 51.3821Z" fill="#FFD41F"/>
<path d="M25.6987 51.9508C25.4809 51.9381 25.3358 52.0014 25.1906 52.1786C25.0576 52.3431 25.0576 52.5583 25.1906 52.7229C25.2148 52.7482 25.2269 52.7735 25.2511 52.7988C25.3479 52.9254 25.5293 52.9001 25.6382 52.7988C25.8559 52.5963 25.7833 52.4318 25.8438 52.166C25.868 52.052 25.7954 51.9634 25.6987 51.9508Z" fill="#FFD41F"/>
<path d="M22.9651 54.1292C22.8199 54.2178 22.7474 54.3064 22.6627 54.4456C22.5417 54.6481 22.6143 54.9645 22.8199 55.0784C22.8441 55.0911 22.8683 55.1037 22.8804 55.1164C23.0256 55.1923 23.1707 55.167 23.2917 55.0657C23.4973 54.8886 23.4489 54.6987 23.4852 54.4456C23.5094 54.1672 23.1707 54.0027 22.9651 54.1292Z" fill="#FFD41F"/>
<path d="M28.65 54.7242C28.4565 54.4076 28.2146 54.2683 27.8638 54.167C27.7307 54.129 27.6098 54.2556 27.634 54.4076C27.7186 54.7748 27.8517 55.0281 28.1541 55.2434C28.4565 55.446 28.8435 55.0408 28.65 54.7242Z" fill="#FFD41F"/>
<path d="M28.3475 49.8625C27.8878 49.7486 27.5371 50.0777 27.6096 50.5587C27.6459 50.7865 27.912 50.8498 28.0814 50.7612C28.2386 50.6726 28.3596 50.5334 28.4926 50.4194C28.6741 50.2675 28.5652 49.9258 28.3475 49.8625Z" fill="#FFD41F"/>
<path d="M30.5368 51.7866C30.4279 51.6726 30.3674 51.6347 30.2223 51.5967C30.0892 51.5587 29.8836 51.622 29.8231 51.7739C29.811 51.8119 29.7868 51.8498 29.7747 51.9005C29.6417 52.2043 29.9078 52.4827 30.1981 52.3435C30.2828 52.3055 30.3674 52.2043 30.4521 52.1789C30.5852 52.103 30.6577 51.9131 30.5368 51.7866Z" fill="#FFD41F"/>
<path d="M9.99891 48.5478C9.92634 47.6365 8.80148 47.4339 8.14834 47.2061C7.24119 46.9023 7.70081 47.0289 7.57986 46.3327C7.54357 46.1302 7.57987 45.9277 7.45892 45.7632C7.05977 45.2189 6.18891 45.4467 5.55995 45.7378C5.78976 44.8898 6.17682 43.6367 5.07615 43.5608C4.12062 43.4848 4.01175 44.4721 4.12061 45.2569C4.04804 45.1683 3.97547 45.0797 3.91499 45.0037C3.87871 44.9657 3.83033 44.9278 3.78194 44.8771C3.46747 44.3455 2.91109 43.8519 2.33052 44.3582C1.84671 44.7885 2.14908 45.5227 2.47565 46.1049C1.93137 46.029 1.38709 46.1429 1.24195 46.8517C1.16938 47.1935 1.26613 47.4466 1.42337 47.6238C0.685559 47.9023 -0.0885359 48.3453 0.00822625 49.1553C0.117084 49.9528 0.79441 50.1173 1.43546 50.0793C1.06051 50.8008 0.842793 51.6742 1.53222 52.2691C2.19746 52.864 2.97157 52.5475 3.56424 52.0539C3.69729 52.788 4.1811 53.3829 5.03986 53.4082C5.78977 53.4335 6.18891 53.0538 6.4671 52.5349C7.07186 52.9779 7.83387 52.9526 8.5112 52.0665C8.99501 51.4337 9.0313 50.6363 8.66844 50.1553C9.35787 49.8262 10.0594 49.3072 9.99891 48.5478Z" fill="#FF3E39"/>
<path d="M3.73356 46.0535C3.6247 45.9521 3.56421 45.9013 3.41907 45.914C3.34649 45.9267 3.27393 45.9774 3.27393 46.0661C3.28602 46.1802 3.31022 46.2436 3.3586 46.345C3.52794 46.6619 3.98757 46.2943 3.73356 46.0535Z" fill="#FFD41F"/>
<path d="M2.10079 48.4082C1.7984 48.3068 1.59277 48.4589 1.49601 48.7631C1.45972 48.8898 1.55649 49.0166 1.67745 49.0166C1.8226 49.0166 1.95564 49.0419 2.10079 49.0166C2.41528 48.9659 2.3548 48.497 2.10079 48.4082Z" fill="#FFD41F"/>
<path d="M4.73756 48.8144C4.58032 48.8017 4.48355 48.8524 4.38678 48.9791C4.29002 49.0931 4.29002 49.2452 4.38678 49.3719C4.39888 49.3845 4.41097 49.4099 4.42307 49.4226C4.49564 49.5113 4.6287 49.4859 4.70127 49.4226C4.84642 49.2832 4.79803 49.1692 4.84641 48.9664C4.85851 48.8904 4.81013 48.8271 4.73756 48.8144Z" fill="#FFD41F"/>
<path d="M2.80233 50.3567C2.70557 50.42 2.64511 50.4833 2.58463 50.5846C2.49997 50.7238 2.54834 50.9516 2.69348 51.0276C2.70558 51.0402 2.72976 51.0402 2.74185 51.0529C2.83861 51.1035 2.94747 51.0908 3.03214 51.0149C3.17728 50.8883 3.141 50.7618 3.16519 50.5719C3.18938 50.3821 2.94747 50.2681 2.80233 50.3567Z" fill="#FFD41F"/>
<path d="M6.83015 50.7874C6.69709 50.5596 6.51564 50.4583 6.27372 50.395C6.17695 50.3697 6.09229 50.4583 6.11648 50.5595C6.17696 50.8254 6.27372 51.0026 6.47935 51.1545C6.69708 51.2937 6.96321 51.0026 6.83015 50.7874Z" fill="#FFD41F"/>
<path d="M6.61204 47.3329C6.28547 47.2443 6.03148 47.4848 6.09196 47.8266C6.11615 47.9784 6.30968 48.0291 6.41853 47.9658C6.52739 47.9025 6.61205 47.8139 6.70881 47.7253C6.84185 47.6241 6.76928 47.3709 6.61204 47.3329Z" fill="#FFD41F"/>
<path d="M8.17277 48.6997C8.10019 48.6236 8.0518 48.5983 7.95503 48.5602C7.85826 48.5349 7.71312 48.5729 7.66473 48.687C7.65264 48.7124 7.64054 48.7504 7.62845 48.7758C7.53168 48.9913 7.72522 49.1815 7.93085 49.0928C7.99133 49.0674 8.0518 48.9913 8.11228 48.9787C8.20905 48.9153 8.25744 48.7885 8.17277 48.6997Z" fill="#FFD41F"/>
<path d="M3.18921 59.2549C3.18921 59.2549 6.52749 61.6852 7.28949 60.0903C7.97892 58.6726 4.06005 56.2676 4.06005 56.2676L3.18921 59.2549Z" fill="#FFC5B3"/>
<path d="M31.7102 67.1016C27.5736 67.4307 25.6142 69.4559 25.1667 69.6964C24.1144 70.2786 24.4651 71.0254 26.1101 70.9494C27.235 70.8988 27.7309 70.8229 27.9486 70.7722C27.9486 70.7722 22.5057 73.4936 23.05 75.0758C23.05 75.0758 25.2997 75.1897 29.0372 74.7214C30.8273 74.5062 35.7863 70.7089 37.8184 68.3546C34.8066 68.8103 34.7582 67.6965 31.7102 67.1016Z" fill="#FFC5B3"/>
</svg>
