<svg width="134" height="135" viewBox="0 0 134 135" fill="none" xmlns="http://www.w3.org/2000/svg">
<path d="M0.681641 92.1386L71.0763 133.66L133.155 97.4369L63.8729 56.0977L0.681641 92.1386Z" fill="#FFE36C"/>
<path d="M46.8953 115.14L69.0402 102.249V97.6777L46.8953 110.577V115.14Z" fill="#873F1B"/>
<path d="M46.8953 110.577L29.0896 100.205V104.768L46.8953 115.139V110.577Z" fill="#9D562C"/>
<path d="M51.1913 88.0156L30.2627 100.11L33.6185 102.067L51.1913 91.9028L64.4075 99.6166L67.7633 97.6773L51.1913 88.0156Z" fill="#9D562C"/>
<path d="M31.9795 101.114L46.8348 109.763L66.0467 98.6641L51.1914 89.998L31.9795 101.114Z" fill="#873F1B"/>
<path d="M51.2344 87.2891L29.0808 100.197L46.8951 110.569L69.0401 97.678L51.2344 87.2891ZM46.8347 109.764L33.6099 102.067L30.2541 100.119L51.1826 88.0163L67.7461 97.678L64.3989 99.6173L46.8347 109.764Z" fill="#C6663C"/>
<path d="M50.6737 91.0643C50.7082 91.0297 50.5529 90.415 50.7082 89.4714C50.8635 88.5277 50.9325 88.1035 50.9325 88.1035C50.9325 88.1035 52.054 89.1337 52.3645 90.2419C52.6751 91.35 52.399 91.9474 52.3904 91.9301C52.3732 91.9127 50.6737 91.0643 50.6737 91.0643Z" fill="#708E02"/>
<path d="M53.3135 90.1817C53.3135 90.1817 53.8225 89.5497 54.5816 88.606C55.0733 88 55.4357 87.3594 55.4357 87.3594C55.4357 87.3594 55.8929 89.4371 55.4961 90.4327C55.0992 91.4197 53.9691 92.3979 53.9691 92.3979L53.3135 90.1817Z" fill="#82AF05"/>
<path d="M52.261 93.7656C52.261 93.7656 50.8375 92.5622 51.381 90.3113C51.6053 89.3676 52.5543 87.4023 52.5543 87.4023C52.5543 87.4023 53.6067 88.6923 54.0208 90.0948C54.3487 91.1857 53.7793 93.2981 53.7793 93.2981L52.261 93.7656Z" fill="#7A9B00"/>
<path d="M48.5084 89.5234C48.5084 89.5234 48.6206 92.2679 50.1303 94.0254C51.64 95.7829 52.5717 96.0166 52.5717 96.0166C52.5717 96.0166 53.1755 93.6704 52.6924 92.441C52.0627 90.8567 48.5084 89.5234 48.5084 89.5234Z" fill="#82AF05"/>
<path d="M52.5717 96.0183C52.5717 96.0183 50.993 93.7415 53.6501 91.4732C55.7895 89.6466 56.6349 88.9453 56.6349 88.9453C56.6349 88.9453 56.842 92.7718 55.9017 94.2782C54.3834 96.7109 52.5717 96.0183 52.5717 96.0183Z" fill="#708E02"/>
<path d="M57.9806 94.9414C58.0151 94.9067 57.8598 94.2921 58.0151 93.3484C58.1704 92.4047 58.2394 91.9805 58.2394 91.9805C58.2394 91.9805 59.3609 93.0107 59.6714 94.1189C59.982 95.2271 59.7059 95.8244 59.6973 95.8071C59.68 95.7898 57.9806 94.9414 57.9806 94.9414Z" fill="#708E02"/>
<path d="M60.6289 94.0586C60.6289 94.0586 61.1379 93.4266 61.897 92.483C62.3888 91.877 62.7511 91.2363 62.7511 91.2363C62.7511 91.2363 63.2083 93.314 62.8115 94.3096C62.4146 95.2965 61.2845 96.2748 61.2845 96.2748L60.6289 94.0586Z" fill="#82AF05"/>
<path d="M59.5681 97.6423C59.5681 97.6423 58.1447 96.439 58.6882 94.1881C58.9125 93.2445 59.8614 91.2793 59.8614 91.2793C59.8614 91.2793 60.9139 92.5692 61.328 93.9717C61.6558 95.0625 61.0864 97.1748 61.0864 97.1748L59.5681 97.6423Z" fill="#7A9B00"/>
<path d="M55.8153 93.4004C55.8153 93.4004 55.9275 96.1448 57.4372 97.9022C58.9468 99.6597 59.8785 99.8934 59.8785 99.8934C59.8785 99.8934 60.4824 97.5473 59.9993 96.3179C59.3696 94.7336 55.8153 93.4004 55.8153 93.4004Z" fill="#82AF05"/>
<path d="M59.8785 99.8936C59.8785 99.8936 58.2998 97.6166 60.9568 95.3483C63.0963 93.5216 63.9417 92.8203 63.9417 92.8203C63.9417 92.8203 64.1487 96.647 63.2084 98.1534C61.6901 100.586 59.8785 99.8936 59.8785 99.8936Z" fill="#708E02"/>
<path d="M43.8672 95.0976C43.9017 95.063 43.7464 94.4483 43.9017 93.5046C44.057 92.5609 44.126 92.1367 44.126 92.1367C44.126 92.1367 45.2475 93.167 45.558 94.2751C45.8686 95.3833 45.5925 95.9807 45.5839 95.9634C45.5666 95.9461 43.8672 95.0976 43.8672 95.0976Z" fill="#708E02"/>
<path d="M46.5155 94.2149C46.5155 94.2149 47.0245 93.5829 47.7836 92.6392C48.2754 92.0332 48.6377 91.3926 48.6377 91.3926C48.6377 91.3926 49.0949 93.4703 48.6981 94.4659C48.3012 95.4529 47.1711 96.4312 47.1711 96.4312L46.5155 94.2149Z" fill="#82AF05"/>
<path d="M45.4632 97.7987C45.4632 97.7987 44.0398 96.5953 44.5833 94.3444C44.8076 93.4008 45.7565 91.4355 45.7565 91.4355C45.7565 91.4355 46.809 92.7255 47.223 94.128C47.5509 95.2188 46.9815 97.3312 46.9815 97.3312L45.4632 97.7987Z" fill="#7A9B00"/>
<path d="M41.7019 93.5566C41.7019 93.5566 41.8141 96.3011 43.3237 98.0586C44.8334 99.816 45.7651 100.05 45.7651 100.05C45.7651 100.05 46.369 97.7036 45.8859 96.4742C45.2561 94.8899 41.7019 93.5566 41.7019 93.5566Z" fill="#82AF05"/>
<path d="M45.7651 100.052C45.7651 100.052 44.1864 97.7747 46.8434 95.5065C48.9829 93.6798 49.8283 92.9785 49.8283 92.9785C49.8283 92.9785 50.0353 96.8051 49.095 98.3115C47.5767 100.744 45.7651 100.052 45.7651 100.052Z" fill="#708E02"/>
<path d="M51.174 98.9765C51.2086 98.9419 51.0533 98.3272 51.2086 97.3835C51.3638 96.4398 51.4329 96.0156 51.4329 96.0156C51.4329 96.0156 52.5543 97.0459 52.8649 98.1541C53.1755 99.2622 52.8994 99.8596 52.8908 99.8423C52.8735 99.825 51.174 98.9765 51.174 98.9765Z" fill="#708E02"/>
<path d="M53.8225 98.0938C53.8225 98.0938 54.3315 97.4618 55.0906 96.5181C55.5824 95.9121 55.9447 95.2715 55.9447 95.2715C55.9447 95.2715 56.4019 97.3492 56.0051 98.3448C55.6083 99.3318 54.4781 100.31 54.4781 100.31L53.8225 98.0938Z" fill="#82AF05"/>
<path d="M52.77 101.678C52.77 101.678 51.3466 100.474 51.8901 98.2233C52.1144 97.2797 53.0633 95.3145 53.0633 95.3145C53.0633 95.3145 54.1158 96.6044 54.5299 98.0069C54.8577 99.0977 54.2883 101.21 54.2883 101.21L52.77 101.678Z" fill="#7A9B00"/>
<path d="M49.0088 97.4375C49.0088 97.4375 49.1209 100.182 50.6306 101.939C52.1403 103.697 53.072 103.93 53.072 103.93C53.072 103.93 53.6758 101.584 53.1927 100.355C52.5716 98.7707 49.0088 97.4375 49.0088 97.4375Z" fill="#82AF05"/>
<path d="M53.072 103.931C53.072 103.931 51.4933 101.654 54.1503 99.3854C56.2898 97.5587 57.1352 96.8574 57.1352 96.8574C57.1352 96.8574 57.3422 100.684 56.4019 102.19C54.8836 104.623 53.072 103.931 53.072 103.931Z" fill="#708E02"/>
<path d="M37.0693 99.0722C37.1038 99.0376 36.9485 98.4229 37.1038 97.4792C37.2591 96.5356 37.3281 96.1113 37.3281 96.1113C37.3281 96.1113 38.4496 97.1416 38.7602 98.2498C39.0707 99.3579 38.7947 99.9553 38.786 99.938C38.7688 99.9207 37.0693 99.0722 37.0693 99.0722Z" fill="#708E02"/>
<path d="M39.7178 98.1894C39.7178 98.1894 40.2268 97.5574 40.9859 96.6138C41.4776 96.0078 41.84 95.3672 41.84 95.3672C41.84 95.3672 42.2972 97.4536 41.9003 98.4405C41.5035 99.4274 40.3734 100.406 40.3734 100.406L39.7178 98.1894Z" fill="#82AF05"/>
<path d="M38.6653 101.773C38.6653 101.773 37.2418 100.57 37.7853 98.3191C38.0096 97.3754 38.9586 95.4102 38.9586 95.4102C38.9586 95.4102 40.011 96.7001 40.4251 98.1026C40.7529 99.1935 40.1836 101.306 40.1836 101.306L38.6653 101.773Z" fill="#7A9B00"/>
<path d="M34.9041 97.5312C34.9041 97.5312 35.0162 100.276 36.5259 102.033C38.0355 103.791 38.9672 104.024 38.9672 104.024C38.9672 104.024 39.5711 101.678 39.088 100.449C38.4583 98.8645 34.9041 97.5312 34.9041 97.5312Z" fill="#82AF05"/>
<path d="M38.9672 104.026C38.9672 104.026 37.3885 101.749 40.0456 99.4811C42.185 97.6544 43.0305 96.9531 43.0305 96.9531C43.0305 96.9531 43.2375 100.78 42.2972 102.286C40.7789 104.719 38.9672 104.026 38.9672 104.026Z" fill="#708E02"/>
<path d="M44.3761 102.949C44.4106 102.914 44.2553 102.3 44.4106 101.356C44.5659 100.412 44.6349 99.9883 44.6349 99.9883C44.6349 99.9883 45.7564 101.019 46.0669 102.127C46.3775 103.235 46.1014 103.832 46.0928 103.815C46.0756 103.798 44.3761 102.949 44.3761 102.949Z" fill="#708E02"/>
<path d="M47.0244 102.066C47.0244 102.066 47.5334 101.434 48.2926 100.491C48.7843 99.8848 49.1466 99.2441 49.1466 99.2441C49.1466 99.2441 49.6038 101.322 49.207 102.318C48.8102 103.304 47.68 104.283 47.68 104.283L47.0244 102.066Z" fill="#82AF05"/>
<path d="M45.9721 105.65C45.9721 105.65 44.5487 104.447 45.0922 102.196C45.3165 101.252 46.2655 99.2871 46.2655 99.2871C46.2655 99.2871 47.3179 100.577 47.732 101.98C48.0598 103.07 47.4905 105.183 47.4905 105.183L45.9721 105.65Z" fill="#7A9B00"/>
<path d="M42.2108 101.41C42.2108 101.41 42.323 104.155 43.8327 105.912C45.3424 107.669 46.2741 107.903 46.2741 107.903C46.2741 107.903 46.8779 105.557 46.3948 104.328C45.7737 102.743 42.2108 101.41 42.2108 101.41Z" fill="#82AF05"/>
<path d="M46.2741 107.903C46.2741 107.903 44.6954 105.626 47.3525 103.358C49.4919 101.531 50.3373 100.83 50.3373 100.83C50.3373 100.83 50.5444 104.657 49.6041 106.163C48.0857 108.596 46.2741 107.903 46.2741 107.903Z" fill="#708E02"/>
<path d="M70.0322 128.88L92.1686 115.98V111.418L70.0322 124.309V128.88Z" fill="#873F1B"/>
<path d="M70.0323 124.309L52.218 113.938V118.509L70.0323 128.88V124.309Z" fill="#9D562C"/>
<path d="M74.3198 101.748L53.3912 113.851L56.7471 115.799L74.3198 105.644L87.5361 113.349L90.8919 111.418L74.3198 101.748Z" fill="#9D562C"/>
<path d="M55.1079 114.846L69.9719 123.503L89.1751 112.404L74.3198 103.738L55.1079 114.846Z" fill="#873F1B"/>
<path d="M74.3629 101.029L52.2094 113.938L70.0237 124.309L92.1686 111.418L74.3629 101.029ZM69.9719 123.504L56.747 115.808L53.3912 113.86L74.3198 101.757L90.8832 111.418L87.5361 113.357L69.9719 123.504Z" fill="#C6663C"/>
<path d="M75.0358 105.747C75.0358 105.747 75.1566 103.41 75.0358 102.094C74.9151 100.786 74.6649 100.535 74.4837 100.224C72.6203 100.354 71.1624 99.1588 71.1624 99.1588C71.1624 99.1588 72.4478 98.1978 73.5779 98.6047C74.337 98.8731 74.5268 99.4965 74.5268 99.4965C74.5268 99.4965 74.3974 98.5441 74.9323 97.8948C75.4672 97.2455 76.235 96.3711 76.235 96.3711C76.235 96.3711 76.6491 98.7173 76.235 99.1934C75.8209 99.6696 75.0962 100.042 75.0962 100.042C75.0962 100.042 75.4672 101.029 75.5276 102.449C75.588 103.868 75.5276 105.739 75.5276 105.739C75.5276 105.739 75.3637 106.102 75.0358 105.747Z" fill="#708E02"/>
<path d="M64.2523 112.102C64.2523 112.102 64.3731 109.756 64.2523 108.449C64.1316 107.142 63.8814 106.891 63.7002 106.579C61.8368 106.709 60.3789 105.514 60.3789 105.514C60.3789 105.514 61.6643 104.553 62.7944 104.96C63.5536 105.229 63.7434 105.852 63.7434 105.852C63.7434 105.852 63.614 104.9 64.1488 104.25C64.6837 103.601 65.4515 102.727 65.4515 102.727C65.4515 102.727 65.8655 105.073 65.4515 105.549C65.0374 106.025 64.3127 106.397 64.3127 106.397C64.3127 106.397 64.6837 107.384 64.7441 108.804C64.8045 110.224 64.7441 112.094 64.7441 112.094C64.7441 112.094 64.5888 112.449 64.2523 112.102Z" fill="#708E02"/>
<path d="M58.6535 115.278C58.6535 115.278 58.7742 112.932 58.6535 111.625C58.5327 110.318 58.2825 110.067 58.1013 109.755C56.238 109.885 54.78 108.69 54.78 108.69C54.78 108.69 56.0654 107.729 57.1955 108.136C57.9547 108.404 58.1445 109.028 58.1445 109.028C58.1445 109.028 58.0151 108.075 58.5499 107.426C59.0848 106.777 59.8526 105.902 59.8526 105.902C59.8526 105.902 60.2667 108.249 59.8526 108.725C59.4385 109.201 58.7138 109.573 58.7138 109.573C58.7138 109.573 59.0848 110.56 59.1452 111.98C59.2056 113.4 59.1452 115.27 59.1452 115.27C59.1452 115.27 58.9899 115.625 58.6535 115.278Z" fill="#82AF05"/>
<path d="M69.5145 108.925C69.5145 108.925 69.6353 106.579 69.5145 105.271C69.3938 103.964 69.1436 103.713 68.9624 103.401C67.099 103.531 65.6411 102.337 65.6411 102.337C65.6411 102.337 66.9265 101.376 68.0566 101.782C68.8158 102.051 69.0056 102.674 69.0056 102.674C69.0056 102.674 68.8762 101.722 69.411 101.073C69.9459 100.423 70.7137 99.5488 70.7137 99.5488C70.7137 99.5488 71.1278 101.895 70.7137 102.371C70.2996 102.847 69.5749 103.22 69.5749 103.22C69.5749 103.22 69.9459 104.207 70.0063 105.626C70.0667 107.046 70.0063 108.916 70.0063 108.916C70.0063 108.916 69.851 109.271 69.5145 108.925Z" fill="#82AF05"/>
<path d="M69.8511 115.306C69.8511 115.306 69.9719 112.959 69.8511 111.652C69.7303 110.345 69.4801 110.094 69.299 109.782C67.4356 109.912 65.9777 108.717 65.9777 108.717C65.9777 108.717 67.263 107.756 68.3932 108.163C69.1523 108.432 69.3421 109.055 69.3421 109.055C69.3421 109.055 69.2127 108.103 69.7476 107.453C70.2824 106.804 71.0502 105.93 71.0502 105.93C71.0502 105.93 71.4643 108.276 71.0502 108.752C70.6361 109.228 69.9115 109.6 69.9115 109.6C69.9115 109.6 70.2824 110.587 70.3428 112.007C70.4032 113.427 70.3428 115.297 70.3428 115.297C70.3428 115.297 70.1875 115.661 69.8511 115.306Z" fill="#708E02"/>
<path d="M64.2523 118.491C64.2523 118.491 64.3731 116.145 64.2523 114.838C64.1316 113.531 63.8814 113.279 63.7002 112.968C61.8368 113.098 60.3789 111.903 60.3789 111.903C60.3789 111.903 61.6643 110.942 62.7944 111.349C63.5536 111.617 63.7434 112.241 63.7434 112.241C63.7434 112.241 63.614 111.288 64.1488 110.639C64.6837 109.99 65.4515 109.115 65.4515 109.115C65.4515 109.115 65.8655 111.461 65.4515 111.938C65.0374 112.414 64.3127 112.786 64.3127 112.786C64.3127 112.786 64.6837 113.773 64.7441 115.193C64.8045 116.613 64.7441 118.483 64.7441 118.483C64.7441 118.483 64.5888 118.838 64.2523 118.491Z" fill="#82AF05"/>
<path d="M75.1135 112.128C75.1135 112.128 75.2343 109.782 75.1135 108.474C74.9928 107.167 74.7426 106.916 74.5614 106.604C72.698 106.734 71.2401 105.54 71.2401 105.54C71.2401 105.54 72.5255 104.579 73.6556 104.986C74.4148 105.254 74.6046 105.877 74.6046 105.877C74.6046 105.877 74.4752 104.925 75.01 104.276C75.5449 103.626 76.3127 102.752 76.3127 102.752C76.3127 102.752 76.7268 105.098 76.3127 105.574C75.8986 106.05 75.1739 106.423 75.1739 106.423C75.1739 106.423 75.5449 107.41 75.6053 108.829C75.6657 110.249 75.6053 112.119 75.6053 112.119C75.6053 112.119 75.45 112.483 75.1135 112.128Z" fill="#82AF05"/>
<path d="M75.286 118.741C75.286 118.741 75.4068 116.395 75.286 115.088C75.1652 113.781 74.9151 113.529 74.7339 113.218C72.8705 113.348 71.4126 112.153 71.4126 112.153C71.4126 112.153 72.698 111.192 73.8281 111.599C74.5873 111.867 74.777 112.491 74.777 112.491C74.777 112.491 74.6476 111.538 75.1825 110.889C75.7174 110.24 76.4852 109.365 76.4852 109.365C76.4852 109.365 76.8992 111.711 76.4852 112.188C76.0711 112.664 75.3464 113.036 75.3464 113.036C75.3464 113.036 75.7174 114.023 75.7777 115.443C75.8381 116.863 75.7777 118.733 75.7777 118.733C75.7777 118.733 75.6138 119.088 75.286 118.741Z" fill="#708E02"/>
<path d="M80.6347 108.96C80.6347 108.96 80.7554 106.614 80.6347 105.307C80.5139 103.999 80.2637 103.748 80.0825 103.437C78.2192 103.566 76.7612 102.372 76.7612 102.372C76.7612 102.372 78.0466 101.411 79.1767 101.818C79.9359 102.086 80.1257 102.709 80.1257 102.709C80.1257 102.709 79.9963 101.757 80.5311 101.108C81.066 100.458 81.8338 99.584 81.8338 99.584C81.8338 99.584 82.2479 101.93 81.8338 102.406C81.4197 102.882 80.695 103.255 80.695 103.255C80.695 103.255 81.066 104.242 81.1264 105.662C81.1868 107.081 81.1264 108.951 81.1264 108.951C81.1264 108.951 80.9625 109.306 80.6347 108.96Z" fill="#708E02"/>
<path d="M86.0609 112.396C86.0609 112.396 86.1817 110.049 86.0609 108.742C85.9402 107.435 85.69 107.184 85.5088 106.872C83.6454 107.002 82.1875 105.807 82.1875 105.807C82.1875 105.807 83.4729 104.846 84.603 105.253C85.3622 105.522 85.5519 106.145 85.5519 106.145C85.5519 106.145 85.4225 105.193 85.9574 104.543C86.4923 103.894 87.2601 103.02 87.2601 103.02C87.2601 103.02 87.6741 105.366 87.2601 105.842C86.846 106.318 86.1213 106.69 86.1213 106.69C86.1213 106.69 86.4923 107.677 86.5527 109.097C86.613 110.517 86.5527 112.387 86.5527 112.387C86.5527 112.387 86.3974 112.742 86.0609 112.396Z" fill="#708E02"/>
<path d="M69.6872 121.919C69.6872 121.919 69.8079 119.573 69.6872 118.266C69.5664 116.958 69.3162 116.707 69.135 116.396C67.2716 116.525 65.8137 115.331 65.8137 115.331C65.8137 115.331 67.0991 114.37 68.2292 114.777C68.9884 115.045 69.1782 115.668 69.1782 115.668C69.1782 115.668 69.0488 114.716 69.5836 114.067C70.1185 113.417 70.8863 112.543 70.8863 112.543C70.8863 112.543 71.3004 114.889 70.8863 115.365C70.4722 115.841 69.7475 116.214 69.7475 116.214C69.7475 116.214 70.1185 117.201 70.1789 118.62C70.2393 120.04 70.1789 121.91 70.1789 121.91C70.1789 121.91 70.015 122.274 69.6872 121.919Z" fill="#82AF05"/>
<path d="M80.5484 115.565C80.5484 115.565 80.6691 113.228 80.5484 111.912C80.4276 110.605 80.1774 110.354 79.9962 110.042C78.1329 110.172 76.6749 108.977 76.6749 108.977C76.6749 108.977 77.9603 108.016 79.0904 108.423C79.8496 108.691 80.0394 109.315 80.0394 109.315C80.0394 109.315 79.91 108.362 80.4448 107.713C80.9797 107.064 81.7475 106.189 81.7475 106.189C81.7475 106.189 82.1616 108.536 81.7475 109.012C81.3334 109.488 80.6087 109.86 80.6087 109.86C80.6087 109.86 80.9797 110.847 81.0401 112.267C81.1005 113.687 81.0401 115.557 81.0401 115.557C81.0401 115.557 80.8762 115.912 80.5484 115.565Z" fill="#82AF05"/>
<path opacity="0.5" d="M133.155 51.0061L63.8728 11.1992V56.0967L133.155 97.4359V51.0061Z" fill="#D3D3D3"/>
<path d="M63.6139 11.7715L133.431 52.0544V50.7299L63.8727 10.4902L63.6139 11.7715Z" fill="#708E02"/>
<path d="M31.5137 2.87947L63.0273 11.5196V9.67555L30.72 0.732422L0 44.5477L1.75987 44.8507L31.5137 2.87947Z" fill="#708E02"/>
<path d="M64.1575 54.2617L1.63046 90.3026L0 93.8348L64.1575 56.8416V54.2617Z" fill="#708E02"/>
<path d="M134 96.024L63.105 54.8926V57.4725L134 98.6039V96.024Z" fill="#647C00"/>
<path d="M63.0273 57.4742H64.6578V10.8539L63.0273 10.1094V57.4742Z" fill="#647C00"/>
<path d="M61.397 57.4742H63.0275V10.8539L61.397 10.1094V57.4742Z" fill="#708E02"/>
<path opacity="0.5" d="M128.97 49.0077L62.9151 9.87615L33.7307 1.85938L102.176 41.8307L128.97 49.0077Z" fill="#D3D3D3"/>
<path d="M134 50.8248L63.0273 9.69336V10.8535L134 52.0542V50.8248Z" fill="#007947"/>
<path d="M129.126 92.5092L82.7224 65.3594V69.9219L129.126 97.0803V92.5092Z" fill="#9D562C"/>
<path d="M116.557 104.362L129.126 97.0809V92.5098L116.557 99.7993V104.362Z" fill="#873F1B"/>
<path d="M70.2136 77.2115L82.7914 69.9219V65.3594L70.2136 72.6404V77.2115Z" fill="#873F1B"/>
<path d="M116.557 99.7981L70.1531 72.6484V77.2109L116.557 104.369V99.7981Z" fill="#9D562C"/>
<path d="M70.1531 72.6489L82.7913 65.3594L129.126 92.5091L116.557 99.7987L70.1531 72.6489Z" fill="#C6663C"/>
<path d="M126.607 93.3318L128.004 92.5093L82.7569 65.957L71.2401 72.6492L72.6376 73.4717L82.7569 67.5933L126.607 93.3318Z" fill="#9D562C"/>
<path d="M126.607 93.3322L82.7569 67.5938L72.6377 73.4721L116.557 99.2019L126.607 93.3322Z" fill="#873F1B"/>
<path d="M82.3515 70.753C82.3515 70.753 82.4722 68.4155 82.3515 67.0995C82.2307 65.7922 81.9805 65.5412 81.7993 65.2295C79.936 65.3594 78.478 64.1646 78.478 64.1646C78.478 64.1646 79.7634 63.2037 80.8935 63.6106C81.6527 63.879 81.8425 64.5023 81.8425 64.5023C81.8425 64.5023 81.7131 63.55 82.2479 62.9007C82.7828 62.2514 83.5506 61.377 83.5506 61.377C83.5506 61.377 83.9647 63.7231 83.5506 64.1993C83.1365 64.6754 82.4118 65.0477 82.4118 65.0477C82.4118 65.0477 82.7828 66.0347 82.8432 67.4545C82.9036 68.8743 82.8432 70.7443 82.8432 70.7443C82.8432 70.7443 82.6879 71.0993 82.3515 70.753Z" fill="#708E02"/>
<path d="M76.7526 73.9385C76.7526 73.9385 76.8734 71.5923 76.7526 70.2851C76.6318 68.9778 76.3816 68.7267 76.2005 68.4151C74.3371 68.5449 72.8792 67.3502 72.8792 67.3502C72.8792 67.3502 74.1645 66.3892 75.2946 66.7961C76.0538 67.0645 76.2436 67.6878 76.2436 67.6878C76.2436 67.6878 76.1142 66.7355 76.6491 66.0862C77.1839 65.4369 77.9517 64.5625 77.9517 64.5625C77.9517 64.5625 78.3658 66.9087 77.9517 67.3848C77.5376 67.861 76.813 68.2333 76.813 68.2333C76.813 68.2333 77.1839 69.2202 77.2443 70.64C77.3047 72.0598 77.2443 73.9299 77.2443 73.9299C77.2443 73.9299 77.089 74.2848 76.7526 73.9385Z" fill="#82AF05"/>
<path d="M87.7863 74.1905C87.7863 74.1905 87.907 71.8443 87.7863 70.537C87.6655 69.2297 87.4153 68.9787 87.2342 68.667C85.3708 68.7969 83.9128 67.6022 83.9128 67.6022C83.9128 67.6022 85.1982 66.6412 86.3283 67.0481C87.0875 67.3165 87.2773 67.9398 87.2773 67.9398C87.2773 67.9398 87.1479 66.9875 87.6827 66.3382C88.2176 65.6889 88.9854 64.8145 88.9854 64.8145C88.9854 64.8145 89.3995 67.1606 88.9854 67.6368C88.5713 68.1129 87.8467 68.4852 87.8467 68.4852C87.8467 68.4852 88.2176 69.4722 88.278 70.892C88.3384 72.3118 88.278 74.1818 88.278 74.1818C88.278 74.1818 88.1227 74.5368 87.7863 74.1905Z" fill="#708E02"/>
<path d="M82.1874 77.3683C82.1874 77.3683 82.3082 75.0221 82.1874 73.7148C82.0666 72.4075 81.8164 72.1564 81.6353 71.8448C79.7719 71.9746 78.314 70.7799 78.314 70.7799C78.314 70.7799 79.5994 69.8189 80.7295 70.2258C81.4886 70.4942 81.6784 71.1175 81.6784 71.1175C81.6784 71.1175 81.549 70.1652 82.0839 69.5159C82.6187 68.8666 83.3865 67.9922 83.3865 67.9922C83.3865 67.9922 83.8006 70.3384 83.3865 70.8145C82.9724 71.2907 82.2478 71.663 82.2478 71.663C82.2478 71.663 82.6187 72.6499 82.6791 74.0698C82.7395 75.4896 82.6791 77.3596 82.6791 77.3596C82.6791 77.3596 82.5238 77.7232 82.1874 77.3683Z" fill="#82AF05"/>
<path d="M87.8208 80.6923C87.8208 80.6923 87.9416 78.3462 87.8208 77.0389C87.7 75.7316 87.4499 75.4806 87.2687 75.1689C85.4053 75.2988 83.9474 74.1041 83.9474 74.1041C83.9474 74.1041 85.2328 73.1431 86.3629 73.55C87.122 73.8184 87.3118 74.4417 87.3118 74.4417C87.3118 74.4417 87.1824 73.4894 87.7173 72.8401C88.2522 72.1908 89.0199 71.3164 89.0199 71.3164C89.0199 71.3164 89.434 73.6625 89.0199 74.1387C88.6059 74.6149 87.8812 74.9871 87.8812 74.9871C87.8812 74.9871 88.2522 75.9741 88.3125 77.3939C88.3729 78.8137 88.3125 80.6836 88.3125 80.6836C88.3125 80.6836 88.1573 81.0386 87.8208 80.6923Z" fill="#82AF05"/>
<path d="M93.3419 77.5146C93.3419 77.5146 93.4627 75.1684 93.3419 73.8612C93.2212 72.5539 92.971 72.3028 92.7898 71.9912C90.9264 72.121 89.4685 70.9263 89.4685 70.9263C89.4685 70.9263 90.7539 69.9654 91.884 70.3723C92.6432 70.6406 92.833 71.264 92.833 71.264C92.833 71.264 92.7036 70.3117 93.2384 69.6624C93.7733 69.0131 94.5411 68.1387 94.5411 68.1387C94.5411 68.1387 94.9551 70.4848 94.5411 70.961C94.127 71.4371 93.4023 71.8094 93.4023 71.8094C93.4023 71.8094 93.7733 72.7963 93.8337 74.2161C93.8941 75.6359 93.8337 77.5059 93.8337 77.5059C93.8337 77.5059 93.6698 77.8609 93.3419 77.5146Z" fill="#708E02"/>
<path d="M98.7682 80.9521C98.7682 80.9521 98.889 78.6059 98.7682 77.2987C98.6474 75.9914 98.3973 75.7403 98.2161 75.4287C96.3527 75.5585 94.8948 74.3638 94.8948 74.3638C94.8948 74.3638 96.1802 73.4029 97.3103 73.8098C98.0694 74.0781 98.2592 74.7015 98.2592 74.7015C98.2592 74.7015 98.1298 73.7492 98.6647 73.0999C99.1995 72.4506 99.9673 71.5762 99.9673 71.5762C99.9673 71.5762 100.381 73.9223 99.9673 74.3985C99.5532 74.8746 98.8286 75.2469 98.8286 75.2469C98.8286 75.2469 99.1995 76.2338 99.2599 77.6536C99.3203 79.0734 99.2599 80.9434 99.2599 80.9434C99.2599 80.9434 99.1047 81.2984 98.7682 80.9521Z" fill="#708E02"/>
<path d="M93.2558 84.1202C93.2558 84.1202 93.3765 81.7827 93.2558 80.4667C93.135 79.1595 92.8848 78.9084 92.7036 78.5967C90.8402 78.7266 89.3823 77.5319 89.3823 77.5319C89.3823 77.5319 90.6677 76.5709 91.7978 76.9778C92.557 77.2462 92.7468 77.8695 92.7468 77.8695C92.7468 77.8695 92.6174 76.9172 93.1522 76.2679C93.6871 75.6185 94.4549 74.7441 94.4549 74.7441C94.4549 74.7441 94.869 77.0903 94.4549 77.5665C94.0408 78.0426 93.3161 78.4149 93.3161 78.4149C93.3161 78.4149 93.6871 79.4019 93.7475 80.8217C93.8079 82.2415 93.7475 84.1116 93.7475 84.1116C93.7475 84.1116 93.5836 84.4752 93.2558 84.1202Z" fill="#82AF05"/>
<path d="M98.9493 87.2979C98.9493 87.2979 99.0701 84.9517 98.9493 83.6444C98.8285 82.3372 98.5784 82.0861 98.3972 81.7744C96.5338 81.9043 95.0759 80.7096 95.0759 80.7096C95.0759 80.7096 96.3613 79.7486 97.4914 80.1555C98.2505 80.4239 98.4403 81.0472 98.4403 81.0472C98.4403 81.0472 98.3109 80.0949 98.8458 79.4456C99.3807 78.7963 100.148 77.9219 100.148 77.9219C100.148 77.9219 100.563 80.268 100.148 80.7442C99.7343 81.2204 99.0097 81.5926 99.0097 81.5926C99.0097 81.5926 99.3807 82.5796 99.441 83.9994C99.5014 85.4192 99.441 87.2892 99.441 87.2892C99.441 87.2892 99.2858 87.6442 98.9493 87.2979Z" fill="#82AF05"/>
<path d="M104.471 84.1202C104.471 84.1202 104.591 81.7827 104.471 80.4667C104.35 79.1595 104.1 78.9084 103.918 78.5967C102.055 78.7266 100.597 77.5319 100.597 77.5319C100.597 77.5319 101.883 76.5709 103.013 76.9778C103.772 77.2462 103.962 77.8695 103.962 77.8695C103.962 77.8695 103.832 76.9172 104.367 76.2679C104.902 75.6185 105.67 74.7441 105.67 74.7441C105.67 74.7441 106.084 77.0903 105.67 77.5665C105.256 78.0426 104.531 78.4149 104.531 78.4149C104.531 78.4149 104.902 79.4019 104.962 80.8217C105.023 82.2415 104.962 84.1116 104.962 84.1116C104.962 84.1116 104.798 84.4752 104.471 84.1202Z" fill="#708E02"/>
<path d="M109.897 87.5575C109.897 87.5575 110.017 85.2114 109.897 83.9041C109.776 82.5969 109.526 82.3458 109.345 82.0342C107.481 82.164 106.023 80.9693 106.023 80.9693C106.023 80.9693 107.309 80.0083 108.439 80.4152C109.198 80.6836 109.388 81.3069 109.388 81.3069C109.388 81.3069 109.258 80.3546 109.793 79.7053C110.328 79.056 111.096 78.1816 111.096 78.1816C111.096 78.1816 111.51 80.5278 111.096 81.0039C110.682 81.4801 109.957 81.8523 109.957 81.8523C109.957 81.8523 110.328 82.8393 110.388 84.2591C110.449 85.6789 110.388 87.5489 110.388 87.5489C110.388 87.5489 110.233 87.9038 109.897 87.5575Z" fill="#708E02"/>
<path d="M104.384 90.7256C104.384 90.7256 104.505 88.3794 104.384 87.0721C104.263 85.7649 104.013 85.5138 103.832 85.2021C101.969 85.332 100.511 84.1373 100.511 84.1373C100.511 84.1373 101.796 83.1763 102.926 83.5832C103.685 83.8516 103.875 84.4749 103.875 84.4749C103.875 84.4749 103.746 83.5226 104.281 82.8733C104.816 82.224 105.583 81.3496 105.583 81.3496C105.583 81.3496 105.997 83.6958 105.583 84.1719C105.169 84.6481 104.445 85.0203 104.445 85.0203C104.445 85.0203 104.816 86.0073 104.876 87.4271C104.936 88.8469 104.876 90.7169 104.876 90.7169C104.876 90.7169 104.721 91.0805 104.384 90.7256Z" fill="#82AF05"/>
<path d="M110.509 94.12C110.509 94.12 110.63 91.7739 110.509 90.4666C110.389 89.1594 110.138 88.9083 109.957 88.5967C108.094 88.7265 106.636 87.5318 106.636 87.5318C106.636 87.5318 107.921 86.5708 109.051 86.9777C109.811 87.2461 110 87.8694 110 87.8694C110 87.8694 109.871 86.9171 110.406 86.2678C110.941 85.6185 111.709 84.7441 111.709 84.7441C111.709 84.7441 112.123 87.0903 111.709 87.5664C111.294 88.0426 110.57 88.4148 110.57 88.4148C110.57 88.4148 110.941 89.4018 111.001 90.8216C111.062 92.2414 111.001 94.1114 111.001 94.1114C111.001 94.1114 110.846 94.4663 110.509 94.12Z" fill="#82AF05"/>
<path d="M116.022 90.9504C116.022 90.9504 116.143 88.6042 116.022 87.2969C115.901 85.9896 115.651 85.7385 115.47 85.4268C113.606 85.5567 112.148 84.362 112.148 84.362C112.148 84.362 113.434 83.401 114.564 83.8079C115.323 84.0763 115.513 84.6996 115.513 84.6996C115.513 84.6996 115.383 83.7473 115.918 83.098C116.453 82.4486 117.221 81.5742 117.221 81.5742C117.221 81.5742 117.635 83.9204 117.221 84.3966C116.807 84.8727 116.082 85.245 116.082 85.245C116.082 85.245 116.453 86.232 116.514 87.6518C116.574 89.0717 116.514 90.9417 116.514 90.9417C116.514 90.9417 116.358 91.2967 116.022 90.9504Z" fill="#708E02"/>
<path d="M121.457 94.3799C121.457 94.3799 121.577 92.0338 121.457 90.7265C121.336 89.4192 121.086 89.1681 120.905 88.8565C119.041 88.9863 117.583 87.7916 117.583 87.7916C117.583 87.7916 118.869 86.8306 119.999 87.2375C120.758 87.5059 120.948 88.1292 120.948 88.1292C120.948 88.1292 120.818 87.1769 121.353 86.5276C121.888 85.8783 122.656 85.0039 122.656 85.0039C122.656 85.0039 123.07 87.3501 122.656 87.8262C122.242 88.3024 121.517 88.6747 121.517 88.6747C121.517 88.6747 121.888 89.6616 121.948 91.0814C122.009 92.5013 121.948 94.3713 121.948 94.3713C121.948 94.3713 121.784 94.7262 121.457 94.3799Z" fill="#708E02"/>
<path d="M115.944 97.5556C115.944 97.5556 116.065 95.2094 115.944 93.9022C115.823 92.5949 115.573 92.3439 115.392 92.0322C113.529 92.1621 112.071 90.9674 112.071 90.9674C112.071 90.9674 113.356 90.0064 114.486 90.4133C115.245 90.6817 115.435 91.305 115.435 91.305C115.435 91.305 115.306 90.3527 115.841 89.7034C116.376 89.0541 117.143 88.1797 117.143 88.1797C117.143 88.1797 117.557 90.5258 117.143 91.002C116.729 91.4781 116.005 91.8504 116.005 91.8504C116.005 91.8504 116.376 92.8373 116.436 94.2571C116.496 95.6769 116.436 97.5469 116.436 97.5469C116.436 97.5469 116.272 97.9019 115.944 97.5556Z" fill="#82AF05"/>
<path opacity="0.5" d="M71.7836 133.442V86.1289L102.478 42.9023L133.18 51.5165V98.1368L71.7836 133.442Z" fill="#D3D3D3"/>
<path d="M58.4639 81.2219L80.6002 68.3223V63.7598L58.4639 76.6508V81.2219Z" fill="#873F1B"/>
<path d="M58.4637 76.651L40.6494 66.2793V70.8505L58.4637 81.2222V76.651Z" fill="#9D562C"/>
<path d="M62.7513 54.0898L41.8228 66.1929L45.1786 68.1409L62.7513 57.9857L75.9675 65.6908L79.3234 63.7602L62.7513 54.0898Z" fill="#9D562C"/>
<path d="M43.5393 67.1875L58.4033 75.845L77.6065 64.7462L62.7512 56.0801L43.5393 67.1875Z" fill="#873F1B"/>
<path d="M62.803 53.3711L40.6494 66.2794L58.4637 76.651L80.6087 63.76L62.803 53.3711ZM58.4033 75.8459L45.1785 68.1494L41.8227 66.2014L62.7512 54.0983L79.3147 63.76L75.9675 65.6993L58.4033 75.8459Z" fill="#C6663C"/>
<path d="M62.6997 59.3877C62.6738 57.89 62.1821 54.4876 62.346 52.86C62.415 52.1241 62.9067 50.6783 63.2173 50.0376C64.2094 47.9425 63.5624 47.4664 62.5099 46.2976C61.4574 45.1289 58.6968 44.8259 59.0247 42.8173C59.3525 40.8175 59.4733 39.389 59.4733 39.389C59.4733 39.389 62.3115 40.0383 62.4495 42.194C62.7169 46.1678 63.7521 46.6612 63.7521 46.6612C63.7521 46.6612 63.5451 44.5575 65.5293 42.9732C67.9879 41.0166 66.5904 40.2114 67.4358 39.389C68.2812 38.5665 69.7736 38.4453 69.7736 38.4453C69.7736 38.4453 69.5407 40.0643 68.5141 41.4321C67.7377 42.4537 65.4948 43.5878 65.4948 43.5878C65.4948 43.5878 67.2891 43.4753 68.1691 43.6917C69.765 44.09 70.5242 45.7868 70.5242 45.7868C70.5242 45.7868 68.3157 46.3929 67.4444 45.9946C66.3229 45.4925 66.4178 44.4449 65.8226 44.2891C65.3826 44.1765 64.6234 44.5488 64.4164 46.0292C64.3301 46.6266 64.6838 47.4577 64.5027 48.6438C64.2525 50.358 63.6486 50.8514 63.3812 52.0462C63.9592 51.2151 64.5199 50.0463 65.9002 49.7346C68.3416 49.1979 69.6529 48.2196 69.6529 48.2196C69.6529 48.2196 69.8513 51.3276 68.0138 52.2453C65.8657 53.3275 64.5889 51.8297 63.3812 52.9119C62.924 55.4486 63.64 57.6302 63.6055 59.1366C63.5882 59.8379 62.6997 59.6215 62.6997 59.3877Z" fill="#82AF05"/>
<path d="M57.4545 62.9365C57.4804 61.4388 57.9721 58.0364 57.8082 56.4088C57.7392 55.6729 57.2475 54.2271 56.9369 53.5865C55.9448 51.4914 56.5918 51.0152 57.6443 49.8465C58.6968 48.6777 61.4573 48.3747 61.1295 46.3662C60.8017 44.3663 60.6809 42.9378 60.6809 42.9378C60.6809 42.9378 57.8427 43.5871 57.7047 45.7428C57.4372 49.7166 56.402 50.2101 56.402 50.2101C56.402 50.2101 56.6091 48.1063 54.6249 46.522C52.1663 44.5654 53.5638 43.7603 52.7184 42.9378C51.873 42.1153 50.3805 41.9941 50.3805 41.9941C50.3805 41.9941 50.6135 43.6131 51.64 44.981C52.4165 46.0025 54.6594 47.1367 54.6594 47.1367C54.6594 47.1367 52.8651 47.0241 51.9851 47.2406C50.3892 47.6388 49.63 49.3357 49.63 49.3357C49.63 49.3357 51.8385 49.9417 52.7098 49.5434C53.8312 49.0413 53.7364 47.9938 54.3316 47.8379C54.7716 47.7254 55.5307 48.0976 55.7378 49.5781C55.824 50.1754 55.4703 51.0065 55.6515 52.1926C55.9017 53.9068 56.5056 54.4003 56.773 55.595C56.195 54.7639 55.6342 53.5951 54.254 53.2835C51.8126 52.7467 50.5013 51.7684 50.5013 51.7684C50.5013 51.7684 50.3029 54.8764 52.1404 55.7941C54.2885 56.8763 55.5652 55.3786 56.773 56.4607C57.2302 58.9974 56.5142 61.179 56.5487 62.6854C56.5659 63.3954 57.4545 63.1703 57.4545 62.9365Z" fill="#708E02"/>
<path d="M48.1118 67.6201C48.0859 66.1224 47.5942 62.72 47.7581 61.0924C47.8271 60.3565 48.3188 58.9107 48.6294 58.2701C49.6215 56.175 48.9745 55.6988 47.922 54.53C46.8695 53.3613 44.109 53.0583 44.4368 51.0497C44.7646 49.0499 44.8854 47.6214 44.8854 47.6214C44.8854 47.6214 47.7236 48.2707 47.8616 50.4264C48.129 54.4002 49.1643 54.8937 49.1643 54.8937C49.1643 54.8937 48.9572 52.7899 50.9414 51.2056C53.4 49.249 52.0025 48.4439 52.8479 47.6214C53.6933 46.7989 55.1858 46.6777 55.1858 46.6777C55.1858 46.6777 54.9528 48.2967 53.9262 49.6646C53.1498 50.6861 50.9069 51.8203 50.9069 51.8203C50.9069 51.8203 52.7012 51.7077 53.5812 51.9241C55.1771 52.3224 55.9363 54.0193 55.9363 54.0193C55.9363 54.0193 53.7278 54.6253 52.8565 54.227C51.735 53.7249 51.8299 52.6773 51.2347 52.5215C50.7947 52.409 50.0356 52.7812 49.8285 54.2617C49.7422 54.859 50.0959 55.6901 49.9148 56.8762C49.6646 58.5904 49.0607 59.0839 48.7933 60.2786C49.3713 59.4475 49.932 58.2787 51.3123 57.967C53.7537 57.4303 55.065 56.452 55.065 56.452C55.065 56.452 55.2634 59.56 53.4259 60.4777C51.2778 61.5599 50.001 60.0621 48.7933 61.1443C48.3361 63.681 49.0521 65.8626 49.0176 67.369C49.0003 68.0789 48.1204 67.8539 48.1118 67.6201Z" fill="#82AF05"/>
<path d="M72.353 64.8408C72.3271 63.3431 71.8354 59.9407 71.9993 58.3131C72.0683 57.5772 72.56 56.1314 72.8706 55.4908C73.8627 53.3957 73.2157 52.9195 72.1632 51.7508C71.1107 50.582 68.3502 50.279 68.678 48.2704C69.0058 46.2706 69.1266 44.8421 69.1266 44.8421C69.1266 44.8421 71.9648 45.4914 72.1028 47.6471C72.3703 51.6209 73.4055 52.1144 73.4055 52.1144C73.4055 52.1144 73.1984 50.0106 75.1826 48.4263C77.6412 46.4697 76.2437 45.6646 77.0891 44.8421C77.9345 44.0196 79.427 43.8984 79.427 43.8984C79.427 43.8984 79.194 45.5174 78.1674 46.8853C77.391 47.9068 75.1481 49.041 75.1481 49.041C75.1481 49.041 76.9424 48.9284 77.8224 49.1449C79.4183 49.5431 80.1775 51.24 80.1775 51.24C80.1775 51.24 77.969 51.846 77.0977 51.4477C75.9762 50.9456 76.0711 49.8981 75.4759 49.7422C75.0359 49.6297 74.2768 50.0019 74.0697 51.4824C73.9835 52.0797 74.3372 52.9108 74.156 54.0969C73.9058 55.8111 73.3019 56.3046 73.0345 57.4993C73.6125 56.6682 74.1732 55.4994 75.5535 55.1878C77.9949 54.651 79.3062 53.6727 79.3062 53.6727C79.3062 53.6727 79.5046 56.7807 77.6671 57.6984C75.519 58.7806 74.2423 57.2829 73.0345 58.365C72.5773 60.9017 73.2933 63.0834 73.2588 64.5898C73.2416 65.291 72.3616 65.0746 72.353 64.8408Z" fill="#82AF05"/>
<path d="M67.1077 68.3916C67.1336 66.8939 67.6253 63.4915 67.4614 61.8639C67.3924 61.128 66.9007 59.6822 66.5901 59.0415C65.598 56.9464 66.2451 56.4703 67.2975 55.3015C68.35 54.1328 71.1106 53.8298 70.7828 51.8212C70.4549 49.8214 70.3342 48.3929 70.3342 48.3929C70.3342 48.3929 67.4959 49.0422 67.3579 51.1979C67.0905 55.1717 66.0553 55.6651 66.0553 55.6651C66.0553 55.6651 66.2623 53.5614 64.2781 51.9771C61.8195 50.0205 63.217 49.2153 62.3716 48.3929C61.5262 47.5704 60.0337 47.4492 60.0337 47.4492C60.0337 47.4492 60.2667 49.0682 61.2933 50.436C62.0697 51.4576 64.3126 52.5917 64.3126 52.5917C64.3126 52.5917 62.5183 52.4792 61.6383 52.6956C60.0424 53.0939 59.2832 54.7907 59.2832 54.7907C59.2832 54.7907 61.4917 55.3968 62.363 54.9985C63.4845 54.4964 63.3896 53.4488 63.9848 53.293C64.4248 53.1804 65.184 53.5527 65.391 55.0331C65.4773 55.6305 65.1236 56.4616 65.3047 57.6477C65.5549 59.3619 66.1588 59.8553 66.4262 61.0501C65.8482 60.219 65.2875 59.0502 63.9072 58.7385C61.4658 58.2018 60.1545 57.2235 60.1545 57.2235C60.1545 57.2235 59.9561 60.3315 61.7936 61.2492C63.9417 62.3314 65.2185 60.8336 66.4262 61.9158C66.8834 64.4524 66.1674 66.6341 66.2019 68.1405C66.2192 68.8504 67.1077 68.6253 67.1077 68.3916Z" fill="#708E02"/>
<path d="M57.765 73.0752C57.7391 71.5774 57.2474 68.1751 57.4113 66.5475C57.4889 65.8116 57.972 64.3658 58.2826 63.7251C59.2747 61.63 58.6277 61.1539 57.5752 59.9851C56.5227 58.8164 53.7622 58.5134 54.09 56.5048C54.4178 54.505 54.5386 53.0765 54.5386 53.0765C54.5386 53.0765 57.3768 53.7258 57.5148 55.8815C57.7822 59.8553 58.8175 60.3487 58.8175 60.3487C58.8175 60.3487 58.6104 58.245 60.5946 56.6607C63.0532 54.7041 61.6557 53.8989 62.5011 53.0765C63.3465 52.254 64.839 52.1328 64.839 52.1328C64.839 52.1328 64.606 53.7518 63.5794 55.1196C62.803 56.1412 60.5601 57.2753 60.5601 57.2753C60.5601 57.2753 62.3544 57.1628 63.2344 57.3792C64.8303 57.7775 65.5895 59.4743 65.5895 59.4743C65.5895 59.4743 63.381 60.0803 62.5097 59.6821C61.3882 59.18 61.4831 58.1324 60.8879 57.9766C60.4479 57.864 59.6888 58.2363 59.4817 59.7167C59.3954 60.3141 59.7491 61.1452 59.568 62.3313C59.3178 64.0455 58.7139 64.5389 58.4465 65.7337C59.0245 64.9026 59.5852 63.7338 60.9655 63.4221C63.4069 62.8854 64.7182 61.9071 64.7182 61.9071C64.7182 61.9071 64.9166 65.0151 63.0791 65.9328C60.931 67.015 59.6543 65.5172 58.4465 66.5994C57.9893 69.136 58.7053 71.3177 58.6708 72.8241C58.6535 73.534 57.7736 73.3089 57.765 73.0752Z" fill="#82AF05"/>
<path d="M23.5078 101.677L45.6528 88.786V84.2148L23.5078 97.1144V101.677Z" fill="#873F1B"/>
<path d="M23.5079 97.1138L5.6936 86.7422V91.3047L23.5079 101.676V97.1138Z" fill="#9D562C"/>
<path d="M27.8041 74.5527L6.87549 86.6472L10.2313 88.6038L27.8041 78.4399L41.0203 86.1537L44.3675 84.2144L27.8041 74.5527Z" fill="#9D562C"/>
<path d="M8.59216 87.6513L23.4475 96.3L42.6594 85.2012L27.804 76.5352L8.59216 87.6513Z" fill="#873F1B"/>
<path d="M27.8472 73.8262L5.6936 86.743L23.5079 97.1146L45.653 84.2237L27.8472 73.8262ZM23.4476 96.3008L10.2227 88.6044L6.86685 86.6565L27.8041 74.5534L44.3676 84.2151L41.0204 86.1543L23.4476 96.3008Z" fill="#C6663C"/>
<path d="M27.7522 79.8437C27.7263 78.3459 27.2346 74.9436 27.3985 73.316C27.4761 72.5801 27.9592 71.1344 28.2698 70.4937C29.2619 68.3986 28.6149 67.9225 27.5624 66.7537C26.5099 65.585 23.7493 65.282 24.0772 63.2735C24.405 61.2736 24.5257 59.8452 24.5257 59.8452C24.5257 59.8452 27.364 60.4945 27.502 62.6588C27.7694 66.6325 28.8046 67.126 28.8046 67.126C28.8046 67.126 28.5976 65.0223 30.5818 63.438C33.0404 61.4814 31.6429 60.6763 32.4883 59.8538C33.3337 59.0314 34.8261 58.9102 34.8261 58.9102C34.8261 58.9102 34.5932 60.5291 33.558 61.897C32.7816 62.9185 30.5386 64.0526 30.5386 64.0526C30.5386 64.0526 32.333 63.9401 33.2129 64.1565C34.8089 64.5548 35.5681 66.2516 35.5681 66.2516C35.5681 66.2516 33.3596 66.8576 32.4883 66.4594C31.3668 65.9573 31.4617 64.9097 30.8664 64.7539C30.4265 64.6413 29.6673 65.0136 29.4603 66.494C29.374 67.0914 29.7277 67.9225 29.5465 69.1085C29.2964 70.8227 28.6925 71.3162 28.4251 72.5109C29.0031 71.6798 29.5638 70.511 30.9441 70.1994C33.3855 69.6626 34.6967 68.6843 34.6967 68.6843C34.6967 68.6843 34.8952 71.7923 33.0577 72.71C30.9096 73.7922 29.6328 72.2944 28.4251 73.3766C27.9678 75.9132 28.6839 78.0949 28.6494 79.6013C28.6407 80.3025 27.7522 80.0774 27.7522 79.8437Z" fill="#82AF05"/>
<path d="M22.5072 83.4025C22.5331 81.9048 23.0248 78.5024 22.8609 76.8748C22.7833 76.1389 22.3002 74.6931 21.9896 74.0525C20.9975 71.9574 21.6446 71.4812 22.697 70.3124C23.7495 69.1437 26.5101 68.8407 26.1822 66.8321C25.8544 64.8322 25.7337 63.4038 25.7337 63.4038C25.7337 63.4038 22.8954 64.0531 22.7574 66.2174C22.49 70.1912 21.4548 70.6847 21.4548 70.6847C21.4548 70.6847 21.6618 68.5809 19.6776 66.9966C17.219 65.04 18.6166 64.2349 17.7711 63.4124C16.9257 62.59 15.4333 62.4688 15.4333 62.4688C15.4333 62.4688 15.6662 64.0877 16.6928 65.4556C17.4692 66.4772 19.7122 67.6113 19.7122 67.6113C19.7122 67.6113 17.9178 67.4988 17.0379 67.7152C15.4419 68.1134 14.6827 69.8103 14.6827 69.8103C14.6827 69.8103 16.8912 70.4163 17.7625 70.0181C18.884 69.5159 18.7891 68.4684 19.3843 68.3125C19.8243 68.2 20.5835 68.5723 20.7905 70.0527C20.8768 70.6501 20.5231 71.4812 20.7042 72.6673C20.9544 74.3814 21.5583 74.8749 21.8257 76.0697C21.2477 75.2385 20.687 74.0698 19.3067 73.7581C16.8653 73.2213 15.554 72.243 15.554 72.243C15.554 72.243 15.3556 75.3511 17.1931 76.2688C19.3412 77.351 20.618 75.8532 21.8257 76.9354C22.2829 79.472 21.5669 81.6537 21.6014 83.1601C21.6187 83.8527 22.4986 83.6363 22.5072 83.4025Z" fill="#708E02"/>
<path d="M13.1644 88.0861C13.1385 86.5884 12.6468 83.186 12.8107 81.5584C12.8883 80.8225 13.3714 79.3767 13.682 78.7361C14.6741 76.6409 14.0271 76.1648 12.9746 74.996C11.9221 73.8273 9.16157 73.5243 9.48939 71.5157C9.8172 69.5158 9.93798 68.0874 9.93798 68.0874C9.93798 68.0874 12.7762 68.7367 12.9142 70.901C13.1817 74.8748 14.2169 75.3683 14.2169 75.3683C14.2169 75.3683 14.0098 73.2645 15.994 71.6802C18.4526 69.7236 17.0551 68.9185 17.9005 68.096C18.7459 67.2735 20.2384 67.1523 20.2384 67.1523C20.2384 67.1523 20.0054 68.7713 18.9788 70.1392C18.2024 71.1608 15.9595 72.2949 15.9595 72.2949C15.9595 72.2949 17.7538 72.1823 18.6338 72.3988C20.2297 72.797 20.9889 74.4939 20.9889 74.4939C20.9889 74.4939 18.7804 75.0999 17.9091 74.7017C16.7876 74.1995 16.8825 73.152 16.2873 72.9961C15.8473 72.8836 15.0882 73.2559 14.8811 74.7363C14.7949 75.3337 15.1486 76.1648 14.9674 77.3509C14.7172 79.065 14.1133 79.5585 13.8459 80.7532C14.4239 79.9221 14.9846 78.7534 16.3649 78.4417C18.8063 77.9049 20.1176 76.9266 20.1176 76.9266C20.1176 76.9266 20.316 80.0347 18.4785 80.9524C16.3304 82.0345 15.0537 80.5368 13.8459 81.619C13.3887 84.1556 14.1047 86.3373 14.0702 87.8437C14.053 88.5363 13.1644 88.3199 13.1644 88.0861Z" fill="#82AF05"/>
<path d="M37.4056 85.2978C37.3797 83.8001 36.888 80.3977 37.0519 78.7701C37.1296 78.0342 37.6127 76.5884 37.9232 75.9478C38.9153 73.8527 38.2683 73.3765 37.2158 72.2078C36.1634 71.039 33.4028 70.736 33.7306 68.7275C34.0584 66.7276 34.1792 65.2991 34.1792 65.2991C34.1792 65.2991 37.0174 65.9484 37.1554 68.1041C37.4229 72.0779 38.4581 72.5714 38.4581 72.5714C38.4581 72.5714 38.251 70.4676 40.2352 68.8833C42.6938 66.9267 41.2963 66.1216 42.1417 65.2991C42.9871 64.4767 44.4796 64.3555 44.4796 64.3555C44.4796 64.3555 44.2466 65.9744 43.2201 67.3423C42.4436 68.3639 40.2007 69.498 40.2007 69.498C40.2007 69.498 41.9951 69.3855 42.875 69.6019C44.4709 70.0001 45.2301 71.697 45.2301 71.697C45.2301 71.697 43.0216 72.303 42.1503 71.9048C41.0289 71.4026 41.1238 70.3551 40.5285 70.1992C40.0885 70.0867 39.3294 70.459 39.1223 71.9394C39.0361 72.5368 39.3898 73.3679 39.2086 74.5539C38.9584 76.2681 38.3546 76.7616 38.0871 77.9563C38.6651 77.1252 39.2259 75.9565 40.6061 75.6448C43.0475 75.108 44.3588 74.1297 44.3588 74.1297C44.3588 74.1297 44.5572 77.2378 42.7197 78.1554C40.5716 79.2376 39.2949 77.7399 38.0871 78.8221C37.6299 81.3587 38.3459 83.5404 38.3114 85.0468C38.2942 85.7567 37.4056 85.5316 37.4056 85.2978Z" fill="#82AF05"/>
<path d="M32.1607 88.8566C32.1866 87.3588 32.6783 83.9564 32.5144 82.3288C32.4367 81.5929 31.9536 80.1471 31.6431 79.5065C30.651 77.4113 31.298 76.9352 32.3505 75.7664C33.4029 74.5977 36.1635 74.2946 35.8357 72.2861C35.5079 70.2862 35.3871 68.8577 35.3871 68.8577C35.3871 68.8577 32.5489 69.507 32.4109 71.6628C32.1434 75.6366 31.1082 76.13 31.1082 76.13C31.1082 76.13 31.3153 74.0263 29.3311 72.4419C26.8725 70.4853 28.27 69.6802 27.4246 68.8577C26.5791 68.0353 25.0867 67.9141 25.0867 67.9141C25.0867 67.9141 25.3196 69.533 26.3462 70.9009C27.1226 71.9225 29.3656 73.0566 29.3656 73.0566C29.3656 73.0566 27.5712 72.9441 26.6913 73.1605C25.0953 73.5588 24.3362 75.2556 24.3362 75.2556C24.3362 75.2556 26.5446 75.8617 27.4159 75.4634C28.5374 74.9613 28.4425 73.9137 29.0378 73.7579C29.4777 73.6453 30.2369 74.0176 30.4439 75.498C30.5302 76.0954 30.1765 76.9265 30.3577 78.1126C30.6079 79.8268 31.2117 80.3203 31.4792 81.515C30.9012 80.6839 30.3404 79.5151 28.9601 79.2035C26.5188 78.6667 25.2075 77.6884 25.2075 77.6884C25.2075 77.6884 25.0091 80.7964 26.8466 81.7141C28.9946 82.7963 30.2714 81.2986 31.4792 82.3808C31.9364 84.9174 31.2204 87.0991 31.2549 88.6055C31.2721 89.3068 32.152 89.0903 32.1607 88.8566Z" fill="#708E02"/>
<path d="M22.8177 93.54C22.7918 92.0423 22.3001 88.6399 22.464 87.0123C22.5417 86.2764 23.0248 84.8306 23.3353 84.19C24.3274 82.0949 23.6804 81.6187 22.6279 80.45C21.5755 79.2812 18.8149 78.9782 19.1427 76.9697C19.4705 74.9698 19.5913 73.5413 19.5913 73.5413C19.5913 73.5413 22.4295 74.1906 22.5675 76.3463C22.835 80.3201 23.8702 80.8136 23.8702 80.8136C23.8702 80.8136 23.6631 78.7098 25.6473 77.1255C28.1059 75.1689 26.7084 74.3638 27.5538 73.5413C28.3992 72.7189 29.8917 72.5977 29.8917 72.5977C29.8917 72.5977 29.6588 74.2166 28.6322 75.5845C27.8558 76.6061 25.6128 77.7402 25.6128 77.7402C25.6128 77.7402 27.4072 77.6276 28.2871 77.8441C29.8831 78.2423 30.6422 79.9392 30.6422 79.9392C30.6422 79.9392 28.4338 80.5452 27.5625 80.147C26.441 79.6448 26.5359 78.5973 25.9406 78.4414C25.5006 78.3289 24.7415 78.7012 24.5344 80.1816C24.4482 80.7789 24.8019 81.6101 24.6207 82.7961C24.3705 84.5103 23.7667 85.0038 23.4992 86.1985C24.0772 85.3674 24.638 84.1987 26.0183 83.887C28.4596 83.3502 29.7709 82.3719 29.7709 82.3719C29.7709 82.3719 29.9693 85.4799 28.1318 86.3976C25.9837 87.4798 24.707 85.9821 23.4992 87.0643C23.042 89.6009 23.758 91.7826 23.7235 93.289C23.7063 93.9902 22.8177 93.7738 22.8177 93.54Z" fill="#82AF05"/>
<path d="M92.0479 67.5256V69.2051L115.099 55.7342V54.0547L92.0479 67.5256Z" fill="#389055"/>
<path d="M92.8674 68.7289L93.04 70.8413L114.426 58.4525V56.0977L92.8674 68.7289Z" fill="#007947"/>
<path d="M92.8674 97.9979L93.04 100.509L113.434 88.6047L113.494 86.1113L92.8674 97.9979Z" fill="#007947"/>
<path d="M92.8674 117.729L93.04 119.962L114.426 107.409V105.098L92.8674 117.729Z" fill="#007947"/>
<path opacity="0.5" d="M70.1531 86.1026L0.862793 46.0879V93.4354L70.1531 133.441V86.1026Z" fill="#D3D3D3"/>
<path opacity="0.7" d="M70.8863 115.374L1.39749 74.9355L0.854004 79.8616L70.869 120.378L70.8863 119.963V115.374Z" fill="white"/>
<path opacity="0.7" d="M70.4981 109.417L1.00931 68.9785L0.46582 70.5022L70.4809 111.019L70.4981 109.417Z" fill="white"/>
<path opacity="0.7" d="M70.4981 92.017L1.00931 51.5781L0.46582 53.1018L70.4809 93.6187L70.4981 92.017Z" fill="white"/>
<path opacity="0.5" d="M1.05237 44.548L70.8517 84.7445L101.382 41.6996L31.8155 2.0918L1.05237 44.548Z" fill="#D3D3D3"/>
<path opacity="0.7" d="M25.5613 9.81445L24.043 12.8099L93.0659 52.7554L95.352 50.4265L25.5613 9.81445Z" fill="white"/>
<path opacity="0.7" d="M21.6877 13.3809L21.9897 15.2682L91.0127 55.2136L91.6597 54.0968L21.6877 13.3809Z" fill="white"/>
<path opacity="0.7" d="M10.8956 30.4453L4.84827 39.3105L74.8633 79.8273L80.8762 71.1698L10.8956 30.4453Z" fill="white"/>
<path d="M134 96.0508L70.9639 132.343V134.931L134 98.6307V96.0508Z" fill="#007947"/>
<path d="M70.964 85.6784L0 44.5469V46.2264L70.964 87.3666V85.6784Z" fill="#389055"/>
<path d="M69.3335 132.507H70.964V87.0379L69.3335 86.1289V132.507Z" fill="#389055"/>
<path d="M70.9639 132.506H72.5944V85.1328L70.9639 85.6782V132.506Z" fill="#007947"/>
<path d="M51.6744 75.1523H50.0439V122.119H51.6744V75.1523Z" fill="#389055"/>
<path d="M33.3599 112.414H34.9903V65.7414L33.3599 65.1094V112.414Z" fill="#389055"/>
<path d="M92.8674 120.559L91.2369 121.91V58.91L92.8674 56.9707V120.559Z" fill="#389055"/>
<path d="M94.4979 118.811L92.8674 119.772V68.7277L94.4979 67.7754V118.811Z" fill="#007947"/>
<path d="M114.279 107.4L112.649 108.344V57.17L114.279 56.209V107.4Z" fill="#007947"/>
<path d="M115.918 109.019H114.279V46.0879L115.918 47.2393V109.019Z" fill="#389055"/>
<path d="M134 98.6041H132.361V51.9492L134 50.7285V98.6041Z" fill="#007947"/>
<path d="M18.306 55.8535H16.6755V102.716H18.306V55.8535Z" fill="#389055"/>
<path d="M0 93.0211H1.63049V46.4008L0 45.6562V93.0211Z" fill="#389055"/>
<path d="M102.245 44.348L132.361 52.2349L134 50.8064L101.684 41.8633L70.9639 85.6787L72.3442 86.3972L102.245 44.348Z" fill="#007947"/>
<path d="M100.243 41.041L69.7822 84.5879L71.3523 85.1333L101.684 41.8635L100.243 41.041Z" fill="#389055"/>
<path d="M80.6949 29.9512L50.5356 73.6019L52.1489 74.1647L82.1442 30.7736L80.6949 29.9512Z" fill="#389055"/>
<path d="M64.3386 20.3066L34.1793 63.9574L35.7925 64.5201L65.7792 21.1291L64.3386 20.3066Z" fill="#389055"/>
<path d="M47.7148 10.6719L17.5555 54.3313L19.1774 54.894L49.1641 11.503L47.7148 10.6719Z" fill="#389055"/>
<path d="M77.4858 34.2793L50.8635 73.1251L52.1317 73.5667L78.6246 35.5433C78.6246 35.5433 77.7533 34.868 77.4858 34.2793Z" fill="#389055"/>
<path d="M30.6855 0.828125L0 44.5482H1.65634L31.8156 2.09211C31.8156 2.09211 30.9529 1.41683 30.6855 0.828125Z" fill="#389055"/>
<path d="M101.382 41.6994L30.7286 0.732422L29.8918 1.92715L100.545 42.9028L101.382 41.6994Z" fill="#389055"/>
<path d="M71.8008 84.4842L0.862679 43.3613L0 44.5474L70.964 85.679L71.8008 84.4842Z" fill="#389055"/>
<path d="M70.964 132.343L0 91.2031V93.783L70.964 134.932V132.343Z" fill="#389055"/>
<path d="M30.7286 0.732422L101.684 41.8639L104.419 42.6257L34.1794 1.68474L30.7286 0.732422Z" fill="#007947"/>
<path d="M134 50.8065L101.684 41.8633L99.95 40.6426L130.213 48.8846L134 50.8065Z" fill="#007947"/>
<path d="M114.279 39.3711L81.9718 30.428L79.8668 29.2246L111.734 37.908L114.279 39.3711Z" fill="#007947"/>
<path d="M96.4648 29.527L65.9519 21.0081L63.8469 19.8047L93.9113 28.0725L96.4648 29.527Z" fill="#007947"/>
<path d="M80.1515 19.8317L49.6385 11.3128L47.5336 10.1094L77.6066 18.3686L80.1515 19.8317Z" fill="#007947"/>
<path d="M66.4694 11.7722L35.9565 3.25338L32.8508 1.35742L62.9238 9.62519L66.4694 11.7722Z" fill="#007947"/>
</svg>
