<svg width="108" height="135" viewBox="0 0 108 135" fill="none" xmlns="http://www.w3.org/2000/svg">
<path d="M85.8568 95.9133C85.8568 95.9133 88.4065 94.6015 88.8314 92.1292C89.3073 89.3878 90.2592 87.9582 91.653 87.891C94.7806 87.7564 94.6616 89.2365 96.7693 88.3955C98.5881 87.6724 101.682 86.4446 104.452 87.2855C107.699 88.2778 110.181 88.6815 105.081 92.1292C99.9819 95.5938 88.3045 103.397 88.3045 103.397L85.8568 95.9133Z" fill="#FFE36C"/>
<path d="M61.21 88.0089C61.21 88.0089 63.7596 86.6971 64.1846 84.2249C64.6605 81.4835 65.6123 80.054 67.0062 79.9867C70.1337 79.8522 70.0148 81.3321 72.1225 80.4912C73.9412 79.7681 77.0348 78.5403 79.8055 79.3812C83.052 80.3735 85.5337 80.7771 80.4344 84.2249C75.3351 87.6894 63.6576 95.493 63.6576 95.493L61.21 88.0089Z" fill="#FFE36C"/>
<path d="M35.6794 108.156C38.756 109.182 42.2916 108.543 50.8244 103.565C57.3345 99.7636 69.5559 91.9263 69.5559 91.9263L66.8192 82.9453C66.8192 82.9453 48.6487 86.2921 44.2803 88.5626C39.9119 90.8499 35.6794 108.156 35.6794 108.156Z" fill="#007947"/>
<path d="M64.2526 107.955C62.9948 110.949 66.2923 120.787 66.4453 120.703C66.5813 120.619 78.1567 114.968 82.6781 111.403C89.0523 106.357 93.3017 101.497 93.3017 101.497C93.3017 101.497 93.0297 97.3258 91.041 95.3244C87.2165 91.4899 85.0918 93.0371 85.0918 93.0371C85.0918 93.0371 66.7173 102.085 64.2526 107.955Z" fill="#007947"/>
<path d="M28.1836 50.5711C25.8549 52.0511 18.0359 56.3062 13.1066 59.1653C8.46623 61.8562 6.61347 65.8757 6.08654 67.6417C5.10068 70.938 7.05543 71.9975 8.94217 70.8707C9.26513 70.6857 10.387 68.9198 11.6448 66.1448C11.8148 65.758 12.6817 66.1448 12.4097 67.0362C11.7978 68.9871 12.2567 70.3325 12.8006 69.5084C13.3956 68.6003 13.7695 65.3207 16.0812 63.7734C21.1635 60.393 30.0703 58.1225 32.0421 56.3566C35.2886 53.4639 42.8016 42.7675 42.8016 42.7675L36.7164 35.418L28.1836 50.5711Z" fill="#FFC5B3"/>
<path d="M50.0764 25.7814C50.0764 25.7814 47.6288 24.1332 43.3113 25.7814C38.9939 27.4295 34.5405 36.9823 34.5405 37.3186C34.5405 37.6382 38.8919 42.4818 42.0365 42.8014C45.1641 43.1041 50.0764 25.7814 50.0764 25.7814Z" fill="#FEBA2A"/>
<path d="M71.0515 36.393C70.3376 33.5676 61.6007 27.6476 61.6007 27.6476C61.6007 27.6476 56.7224 31.4989 55.0056 32.8276C53.3568 34.1058 50.6202 37.3853 50.3822 37.6544C50.3652 37.6544 50.3483 37.6544 50.3483 37.6544C50.3822 37.1162 50.7052 32.794 52.422 28.2026C52.9659 26.7562 52.15 22.518 52.15 22.518C52.15 22.518 51.4701 22.3498 50.4842 22.1816C49.0054 23.813 46.0818 28.1353 44.501 29.918C42.9712 31.6503 38.1779 37.7049 39.8607 43.2885C40.3536 44.9535 39.8267 45.7104 40.7105 47.7622C41.7134 50.0663 41.6454 54.4558 41.5094 56.844C41.3564 59.5854 38.7898 66.8004 38.7898 66.8004C38.7898 66.8004 45.1299 74.0827 51.946 73.78C59.884 73.4268 65.5272 67.8768 65.5272 67.8768C65.5272 67.8768 63.6235 55.9863 63.8784 51.0754C63.8614 51.0586 73.4311 45.7272 71.0515 36.393Z" fill="#FFE36C"/>
<path d="M41.0846 34.4265L48.4616 23.6797L50.8243 24.3861C50.8243 24.3861 48.3426 27.8506 46.2859 31.2984C45.402 32.7952 43.5493 36.1757 43.5493 36.1757L41.0846 34.4265Z" fill="#007947"/>
<path d="M53.646 40.0611C53.646 40.0611 58.2354 32.4761 59.2552 30.357C60.1731 28.406 60.921 26.001 60.921 26.001C60.921 26.001 62.2128 26.0347 62.2808 26.001C62.3488 25.9674 63.3517 26.7578 62.6378 29.146C61.6859 32.3079 56.4676 40.8684 56.4676 40.8684L53.646 40.0611Z" fill="#007947"/>
<path d="M41.9856 12.041C41.9856 12.041 41.5776 14.7151 42.3255 18.6505C42.6995 20.6182 43.9743 22.9728 43.9743 22.9728L52.6601 18.9869L41.9856 12.041Z" fill="#723114"/>
<path d="M51.6233 23.1573C51.6233 23.1573 51.6913 28.0177 50.8244 30.6077C50.0935 31.7346 49.3626 35.2664 49.8045 38.361C51.4193 37.4528 53.952 34.5769 55.5838 33.2819C59.2723 30.3555 60.751 27.4964 60.751 27.4964L61.3799 13.7559L51.6233 23.1573Z" fill="#FFA08D"/>
<path d="M56.6377 5.81786C53.3061 3.54741 45.6572 3.14377 43.2775 11.0483C40.7618 19.3397 48.7167 29.1615 52.6092 27.2442C54.7849 26.1678 59.2893 22.5015 60.4112 18.1456C61.635 13.2515 59.2213 7.58377 56.6377 5.81786Z" fill="#FFC5B3"/>
<path d="M63.3686 7.70172C61.9238 5.34718 58.6263 2.16855 56.2806 1.34445C51.5892 -0.303727 48.4956 1.46217 44.3482 5.61626C41.8496 8.12217 40.7957 10.9813 41.0167 15.4213C41.0167 15.4213 47.9517 19.8276 52.0311 20.4667C53.9179 20.7526 56.4506 19.5417 57.9293 18.7344C58.2013 20.7694 58.5073 23.0736 58.5583 24.1667C58.6603 26.3699 58.0993 29.599 58.0993 29.599C58.0993 29.599 64.0825 28.1694 65.7313 25.5122C67.3801 22.8213 65.9862 11.9735 63.3686 7.70172Z" fill="#723114"/>
<path d="M70.3379 72.5357C68.6381 64.0425 65.8675 58.9634 65.8675 58.9634C65.8675 58.9634 62.9779 58.5262 61.3461 58.2739C58.4565 57.8198 57.7426 56.1379 57.0967 50.2011C56.7738 47.1738 56.4508 43.3225 56.6888 40.4634C50.2126 38.1593 45.3173 36.7129 41.4248 33.9043C38.4502 38.4116 37.7533 41.3716 38.4162 44.8698C39.0451 48.2334 39.6401 50.4198 40.184 55.9025C40.4729 58.8457 34.6597 80.2048 32.943 87.7057C31.2262 95.2067 29.1185 101.295 32.807 106.206C34.3708 108.291 36.5805 108.796 38.7562 108.392C41.7138 107.854 44.6374 105.668 45.9462 103.548C47.221 101.463 49.6007 93.7939 51.7424 87.1676C51.9634 96.468 52.7623 107.686 53.6292 112.109C55.176 119.946 58.3885 121.494 62.8759 121.494C70.3379 121.494 70.9498 113.454 71.4258 110.444C71.9017 107.45 71.6807 79.263 70.3379 72.5357Z" fill="#389055"/>
<path d="M41.6455 40.2285C41.1016 42.9867 41.3736 51.6648 46.3369 52.9766C50.8413 54.1539 52.0142 48.9066 53.051 44.8366C47.2208 43.5416 41.6455 40.2285 41.6455 40.2285Z" fill="#007947"/>
<path d="M58.2695 67.5566L57.1816 69.3562C57.1816 69.3562 59.8333 73.2076 62.8929 75.5622C65.9525 77.9 67.0913 78.7408 67.0913 78.7408L68.0942 75.5622C68.0942 75.5622 66.9553 73.8467 63.9128 71.3912C61.2441 69.2553 58.2695 67.5566 58.2695 67.5566Z" fill="#007947"/>
<path d="M13.1064 104.994L17.9678 129.397H37.8211L42.6824 104.994H13.1064Z" fill="#873F1B"/>
<path d="M37.8211 129.398C37.8211 132.459 33.3677 134.932 27.8944 134.932C22.4042 134.932 17.9678 132.459 17.9678 129.398C17.9678 126.338 22.4212 123.865 27.8944 123.865C33.3847 123.882 37.8211 126.354 37.8211 129.398Z" fill="#873F1B"/>
<path d="M42.6824 104.995C42.6824 109.553 36.0533 113.236 27.8944 113.236C19.7185 113.236 13.1064 109.553 13.1064 104.995C13.1064 100.437 19.7355 96.7539 27.8944 96.7539C36.0703 96.7539 42.6824 100.454 42.6824 104.995Z" fill="#C6663C"/>
<path d="M27.8946 100.454C33.9798 100.454 39.0621 102.859 40.2349 106.055C40.4049 105.601 40.4899 105.13 40.4899 104.642C40.4899 100.774 34.8467 97.6289 27.8946 97.6289C20.9426 97.6289 15.2993 100.774 15.2993 104.642C15.2993 105.13 15.3843 105.601 15.5543 106.055C16.7271 102.859 21.8094 100.454 27.8946 100.454Z" fill="#873F1B"/>
<path d="M27.8948 111.674C33.98 111.674 39.0623 109.269 40.2351 106.073C39.0623 102.878 33.98 100.473 27.8948 100.473C21.8096 100.473 16.7273 102.878 15.5544 106.073C16.7273 109.269 21.8096 111.674 27.8948 111.674Z" fill="#9D562C"/>
<path d="M14.7043 72.7207C14.7043 72.7207 16.846 75.1089 18.7838 79.3303C20.7215 83.5516 25.9398 107.854 25.9398 107.854C25.9398 107.854 27.3676 106.845 28.1665 106.727C28.9824 106.609 30.1552 105.567 30.1552 105.567C30.1552 105.567 26.4837 87.5376 23.9171 82.5594C19.4297 73.8644 14.7043 72.7207 14.7043 72.7207Z" fill="#708E02"/>
<path d="M16.8121 67.3391C16.8121 67.3391 14.6534 65.5227 14.1775 65.0855C12.6307 63.6391 10.8629 61.6378 9.21411 60.2755C12.6137 59.9559 19.1578 64.6146 19.1578 64.6146L16.8121 67.3391Z" fill="#FEBA2A"/>
<path d="M18.8008 63.2372C18.8008 63.2372 19.7187 57.2163 23.1182 54.8281C23.0502 58.6458 21.8094 64.5826 21.8094 64.5826L18.8008 63.2372Z" fill="#FEBA2A"/>
<path d="M15.1122 69.2232C13.4125 67.3227 7.03833 65.0691 7.03833 65.0691C7.03833 65.0691 9.12906 63.9591 11.9337 63.9591C14.9083 63.9591 16.71 65.0691 16.71 65.0691C16.71 65.0691 15.4862 62.9332 15.1122 61.0832C14.4663 57.955 16.4211 53.3301 16.4211 53.3301C16.4211 53.3301 18.7498 57.1141 19.0387 58.6614C19.3107 60.2087 20.1946 63.0173 20.1946 63.0173C20.1946 63.0173 20.9425 61.201 22.9652 59.1155C24.393 57.6355 27.2146 56.206 27.2146 56.206C27.2146 56.206 25.1579 58.1905 24.767 61.0832C24.24 65.0691 26.8747 69.7782 23.7811 72.2C20.2966 74.9582 16.744 71.0395 15.1122 69.2232Z" fill="#FFE36C"/>
<path d="M23.798 72.1999C23.798 72.1999 22.5571 71.3926 22.2002 73.0071C22.7611 74.3021 25.8207 80.2726 26.3647 85.234C26.9086 90.2122 28.2174 105.197 28.2174 105.197L29.6792 104.911C29.6792 104.911 28.4214 88.4967 27.2145 82.5094C26.0077 76.5222 23.798 72.1999 23.798 72.1999Z" fill="#82AF05"/>
<path d="M17.5767 85.7895C17.5767 85.7895 19.6164 87.5218 21.2142 90.3977C22.812 93.2736 26.9254 109.755 26.9254 109.755L28.1662 109.739C28.1662 109.739 24.2058 93.9295 22.9139 90.7173C21.6221 87.505 18.7665 84.4609 18.7665 84.4609L17.5767 85.7895Z" fill="#82AF05"/>
<path d="M9.99585 83.5682C9.99585 83.5682 14.4323 87.5372 16.353 87.2682C18.2737 86.9991 19.5655 85.6873 19.4126 84.0223C19.2426 82.3573 13.3784 77.8164 13.3784 77.8164L9.99585 83.5682Z" fill="#FEBA2A"/>
<path d="M9.21391 77.6313C9.21391 77.6313 8.43201 74.8732 9.21391 72.0478C9.9958 69.2223 12.5455 67.6582 12.5455 67.6582C12.5455 67.6582 12.7834 70.1809 13.3784 72.6532C13.9733 75.1255 14.3472 77.6482 14.3472 77.6482C14.3472 77.6482 15.996 76.8073 18.1717 76.8073C20.3474 76.8073 23.169 78.7414 23.169 78.7414C23.169 78.7414 21.6223 80.1709 19.4295 80.7427C17.2368 81.2977 14.8232 81.9705 14.8232 81.9705C14.8232 81.9705 15.792 84.5268 16.37 86.4945C16.9479 88.4623 17.2368 92.1791 17.2368 92.1791C17.2368 92.1791 13.5483 89.5386 12.5625 88.0082C11.5766 86.4777 10.0128 84.4763 10.0128 84.4763C10.0128 84.4763 8.22804 85.0481 6.42629 87.3018C4.62453 89.5554 4.25058 91.9436 4.25058 91.9436C4.25058 91.9436 2.21086 87.8736 3.3497 85.9059C4.48855 83.9382 7.66714 81.9032 7.66714 81.9032C7.66714 81.9032 5.72938 81.2641 4.25058 80.7091C2.77178 80.1541 0.800049 79.1282 0.800049 79.1282C0.800049 79.1282 1.9049 76.7904 4.25058 76.7904C6.59626 76.7904 9.21391 77.6313 9.21391 77.6313Z" fill="#FFE36C"/>
<path d="M9.92778 79.6662C9.92778 79.6662 8.51696 79.128 7.17414 78.9767C5.83132 78.8253 5.11743 79.1449 5.11743 79.1449C5.11743 79.1449 6.42624 79.9017 7.54809 80.5576C8.10901 80.8771 9.87677 81.4153 9.87677 81.4153C9.87677 81.4153 8.38097 82.2562 7.88804 82.6094C7.39511 82.9626 6.42624 84.0053 6.42624 84.0053C6.42624 84.0053 9.58781 82.8112 9.85978 82.7439C10.1487 82.6767 10.9136 82.2058 10.9136 82.2058C10.9136 82.2058 11.6275 83.9717 12.3244 84.8967C13.0383 85.8217 14.0242 86.7299 14.0242 86.7299C14.0242 86.7299 13.6333 84.409 13.3613 83.5681C13.1063 82.7272 12.8684 81.6676 12.8684 81.6676C12.8684 81.6676 13.6843 80.6081 14.9421 80.2044C16.5909 79.6662 18.1547 79.2121 18.1547 79.2121C18.1547 79.2121 15.996 78.5226 14.8911 78.6403C14.2112 78.7076 12.3924 79.683 12.3924 79.683C12.3924 79.683 11.3726 77.2949 11.0496 74.5703C10.3357 76.1344 9.92778 79.6662 9.92778 79.6662Z" fill="#FEBA2A"/>
<path d="M5.10059 97.5446C5.10059 97.5446 7.20831 94.45 11.5937 94.3659C15.9791 94.2818 23.1351 101.934 25.3108 105.987C25.5998 106.526 28.1665 109.721 28.1665 109.721C28.1665 109.721 26.6197 110.797 24.036 107.669C21.4524 104.541 13.1065 95.6105 5.10059 97.5446Z" fill="#82AF05"/>
<path d="M28.1832 107.182C28.1832 107.182 28.0472 101.296 29.0501 95.4094C30.053 89.523 33.3675 81.6184 36.5461 78.2716C39.7076 74.9416 44.9769 73.8652 44.9769 73.8652C44.9769 73.8652 38.8577 82.4762 37.7189 85.3017C36.5801 88.1271 33.4015 100.001 32.9766 101.884C32.5516 103.768 31.8037 106.728 31.8037 106.728C31.8037 106.728 30.2399 108.359 28.1832 107.182Z" fill="#82AF05"/>
<path d="M39.5887 79.3301C39.5887 79.3301 34.6764 86.4274 33.4525 91.5906C32.2287 96.7707 29.696 107.585 29.696 107.585L30.8009 107.366C30.8009 107.366 33.3676 95.6607 34.4894 91.5906C35.6113 87.5206 39.5887 79.3301 39.5887 79.3301Z" fill="#708E02"/>
<path d="M11.2537 97.1073C11.2537 97.1073 13.2424 97.3427 15.0781 98.6713C16.9139 99.9999 22.7951 107.686 26.2116 109.569C26.5346 109.754 27.2145 109.906 27.2145 109.906C27.2145 109.906 22.0642 105.651 20.3134 103.128C17.9678 99.7477 14.8742 96.0309 11.2537 97.1073Z" fill="#708E02"/>
<path d="M64.3206 41.1523L55.8047 61.2332C53.765 62.7805 48.1557 69.4405 44.2293 74.7214C43.3454 75.9155 42.5125 76.0332 40.0138 76.8069C36.4443 77.9337 35.9684 79.0942 34.9655 79.4473C33.9456 79.8005 34.0476 80.4059 35.1695 80.5741C37.0222 80.8432 38.382 79.111 38.569 80.2042C38.705 81.0115 38.2631 81.2973 37.1242 83.366C35.9854 85.4346 35.3904 87.3687 37.4302 88.1087C39.4699 88.8487 41.8156 88.176 43.5494 85.5355C44.8412 83.5678 47.0509 80.1705 48.3427 78.7242C50.2464 76.5714 57.9294 70.6851 62.1278 65.1519C64.7455 61.7042 71.0176 47.9637 71.0176 47.9637L64.3206 41.1523Z" fill="#FFC5B3"/>
<path d="M70.0318 33.4167C72.0885 35.1826 74.9102 41.1531 72.8364 46.6863C70.7627 52.2363 69.5729 54.9945 69.5729 54.9945C69.5729 54.9945 66.4623 55.1459 63.9126 53.9686C61.312 52.7745 59.0343 50.6386 59.0343 50.6386C59.0343 50.6386 63.6407 27.9339 70.0318 33.4167Z" fill="#FEBA2A"/>
</svg>
