<svg width="20" height="19" viewBox="0 0 20 19" fill="none" xmlns="http://www.w3.org/2000/svg">
<path fill-rule="evenodd" clip-rule="evenodd" d="M14.298 10.8961C14.0584 10.7858 12.9126 10.2436 12.6969 10.1746C12.4812 10.1011 12.323 10.0643 12.1744 10.2849C12.0162 10.5055 11.5704 11.0064 11.4265 11.1535C11.2923 11.3051 11.1629 11.3189 10.9232 11.2086C10.6931 11.0983 9.94525 10.8686 9.0488 10.1103C8.3537 9.52207 7.8887 8.79136 7.74968 8.57078C7.61545 8.35019 7.74009 8.23069 7.85514 8.1158C7.95582 8.0193 8.08525 7.86306 8.20509 7.72519C8.23865 7.69302 8.26262 7.65166 8.28659 7.62409C8.34411 7.53677 8.37767 7.46324 8.43519 7.36213C8.5119 7.21048 8.47834 7.0818 8.42081 6.97151C8.36329 6.86121 7.8887 5.76286 7.70174 5.31709C7.5004 4.87132 7.31344 4.94945 7.16962 4.94945C7.0354 4.94026 6.8772 4.92648 6.7238 4.92648C6.57519 4.92648 6.31632 4.98162 6.1006 5.2068C5.89447 5.42739 5.29044 5.96967 5.29044 7.05882C5.29044 7.32077 5.33359 7.57354 5.4055 7.81251C5.64519 8.59835 6.15333 9.24173 6.24442 9.35662C6.35947 9.50827 7.85993 11.8198 10.2329 12.7114C12.6058 13.6029 12.6058 13.3088 13.0325 13.2675C13.4639 13.2353 14.4179 12.7344 14.6097 12.2105C14.811 11.6958 14.811 11.25 14.7487 11.1535C14.6768 11.0662 14.5282 11.0064 14.298 10.8961ZM19.4514 8.83731C19.3172 3.94301 15.1082 0 9.92608 0C4.81106 0 0.635629 3.84651 0.410319 8.67188C0.410319 8.80056 0.400736 8.93382 0.400736 9.06709C0.400736 10.7767 0.89929 12.3805 1.76697 13.75L0.0507812 18.6075L5.324 17.0037C6.69024 17.7252 8.25782 18.1342 9.92608 18.1342C15.1897 18.1342 19.4514 14.0809 19.4514 9.07629C19.4514 8.98898 19.4514 8.91084 19.4514 8.83731Z" fill="#007947"/>
</svg>
