<svg width="160" height="48" viewBox="0 0 160 48" fill="none" xmlns="http://www.w3.org/2000/svg">
<g clip-path="url(#clip0)">
<path d="M28.6812 10.4934L38.5251 20.4772V17.1085C38.5251 16.5994 38.3267 16.1129 37.9715 15.7535L33.1121 10.8252L30.1655 9.09849L28.8796 8.34738L27.8583 7.75103C27.6892 7.6512 27.4762 7.67866 27.3317 7.81089C25.7322 9.24572 23.6478 10.0717 21.441 10.0717C19.2342 10.0717 17.1474 9.24572 15.5504 7.8084C15.4034 7.67617 15.1928 7.6512 15.0189 7.74854L13.9975 8.34489L12.7116 9.096L9.76996 10.8203L4.90804 15.7535C4.55532 16.1129 4.35449 16.5994 4.35449 17.1085V20.4747L14.1983 10.4909C14.649 10.8477 15.1266 11.1696 15.6263 11.4566L11.651 21.1883H14.7911L18.3059 12.5844C18.8545 12.7367 19.4179 12.849 19.9886 12.9213V21.1883H22.891V12.9213C23.4641 12.8514 24.0251 12.7367 24.5737 12.5844L28.0885 21.1883H31.2285L27.2557 11.4566C27.7529 11.1721 28.2306 10.8502 28.6812 10.4934Z" fill="#FCC670"/>
<path d="M39.346 9.3774L24.9734 0.958204C22.7935 -0.319402 20.0869 -0.319402 17.907 0.958204L3.53193 9.3774C1.35448 10.65 0 13.0306 0 15.5808V32.4192C0 34.9694 1.35448 37.3475 3.53193 38.6251L17.907 47.0418C18.997 47.6806 20.2192 48 21.439 48C22.6612 48 23.8834 47.6806 24.9709 47.0418L39.3485 38.6251C41.5259 37.3475 42.878 34.9694 42.878 32.4192V15.5808C42.8804 13.0306 41.5259 10.65 39.346 9.3774ZM3.16698 32.4192V25.4723H9.90264L5.56242 36.1048L5.11665 35.8428C3.91403 35.1366 3.16698 33.8266 3.16698 32.4192ZM8.0975 37.587L13.0451 25.4723H19.989V44.5041C19.8175 44.4367 19.651 44.3544 19.4893 44.2595L8.0975 37.587ZM23.3886 44.2595C23.227 44.3544 23.0604 44.4367 22.889 44.5041V25.4723H29.8328L34.7805 37.587L23.3886 44.2595ZM39.7134 32.4192C39.7134 33.8266 38.9664 35.1391 37.7638 35.8428L37.318 36.1023L32.9778 25.4723H39.7134V32.4192ZM39.7134 22.5277H3.16698V15.5808C3.16698 14.1734 3.91403 12.8609 5.11665 12.1572L11.9527 8.15469H11.9552L13.0157 7.53088L13.1284 7.46349L14.4878 6.66748L19.4893 3.73799C20.0918 3.38365 20.7654 3.21148 21.439 3.21148C22.1125 3.21148 22.7861 3.38615 23.3886 3.73799L28.3926 6.66748L29.7496 7.46349L29.8622 7.53088L30.9252 8.15469L37.7613 12.1572C38.9639 12.8609 39.711 14.1734 39.711 15.5808V22.5277H39.7134Z" fill="#007947"/>
<path d="M68.0865 26.7246C68.0865 30.5949 65.1815 33.5992 61.6275 33.5992C59.9523 33.5992 58.5218 32.8257 57.5369 31.8001L57.2921 33.3697H54.4756V14.7695H57.8066V21.4395C58.7666 20.4838 60.0869 19.845 61.6275 19.845C65.1593 19.8475 68.0865 22.8319 68.0865 26.7246ZM64.6893 26.7246C64.6893 24.6759 63.1926 23.1738 61.226 23.1738C59.281 23.1738 57.7844 24.6759 57.7844 26.7246C57.7844 28.7508 59.2588 30.2755 61.226 30.2755C63.1926 30.2755 64.6893 28.7733 64.6893 26.7246Z" fill="#007947"/>
<path d="M70.3447 16.7508C70.3447 15.6579 71.2168 14.7695 72.2897 14.7695C73.3843 14.7695 74.2563 15.6579 74.2563 16.7508C74.2563 17.8213 73.3843 18.7096 72.2897 18.7096C71.2168 18.7096 70.3447 17.8213 70.3447 16.7508ZM70.6362 33.3896V20.0945H73.9672V33.3896H70.6362Z" fill="#007947"/>
<path d="M76.4932 26.7242C76.4932 22.8315 79.5105 19.8496 83.3315 19.8496C87.1746 19.8496 90.192 22.8539 90.192 26.7242C90.192 30.5945 87.1746 33.5988 83.3315 33.5988C79.486 33.5988 76.4932 30.5945 76.4932 26.7242ZM86.7948 26.7242C86.7948 24.6755 85.2986 23.1734 83.3315 23.1734C81.3648 23.1734 79.8681 24.6755 79.8681 26.7242C79.8681 28.7729 81.3648 30.275 83.3315 30.275C85.3204 30.275 86.7948 28.7504 86.7948 26.7242Z" fill="#007947"/>
<path d="M104.669 20.0303V23.4688C104.245 23.4014 103.819 23.354 103.439 23.354C101.316 23.354 100.243 24.6516 100.243 26.6329V33.3728H96.9121V20.0777H99.7042L99.9711 21.7844C100.956 20.669 102.274 19.9629 103.861 19.9629C104.133 19.9629 104.402 19.9853 104.669 20.0303Z" fill="#007947"/>
<path d="M118.616 27.8177H108.939C109.363 29.5245 110.793 30.6175 112.782 30.6175C114.078 30.6175 115.172 30.2082 116 29.4097L117.967 31.6181C116.449 33.008 114.905 33.5994 112.76 33.5994C108.559 33.5994 105.63 30.8221 105.63 26.8146C105.63 22.8296 108.557 19.8477 112.446 19.8477C116.089 19.8477 118.705 22.5127 118.705 26.2456C118.705 27.0891 118.682 27.5432 118.616 27.8177ZM115.51 25.245C115.444 23.8102 114.193 22.8321 112.427 22.8321C110.683 22.8321 109.478 23.7429 109.008 25.245H115.51Z" fill="#007947"/>
<path d="M129.366 32.5982C128.562 33.2595 127.443 33.5988 126.081 33.5988C123.333 33.5988 121.702 31.9145 121.702 29.1596L121.724 23.1933H119.848V20.0742H121.724V17.2969H125.077V20.0742H128.541V23.1933H125.055V28.9525C125.055 29.9082 125.57 30.4772 126.463 30.4772C127.112 30.4772 127.47 30.3175 127.894 29.9756L129.366 32.5982Z" fill="#007947"/>
<path d="M141.056 20.0761H143.895V33.3712H141.056L140.812 31.8016C139.829 32.8497 138.421 33.6008 136.743 33.6008C133.189 33.6008 130.284 30.5964 130.284 26.7262C130.284 22.8335 133.189 19.8516 136.743 19.8516C138.418 19.8516 139.827 20.6026 140.812 21.6507L141.056 20.0761ZM140.586 26.7237C140.586 24.675 139.09 23.1728 137.123 23.1728C135.156 23.1728 133.66 24.675 133.66 26.7237C133.66 28.7723 135.156 30.2745 137.123 30.2745C139.09 30.2745 140.586 28.7499 140.586 26.7237Z" fill="#007947"/>
<path d="M146.154 16.7508C146.154 15.6579 147.026 14.7695 148.099 14.7695C149.194 14.7695 150.065 15.6579 150.065 16.7508C150.065 17.8213 149.194 18.7096 148.099 18.7096C147.026 18.7096 146.154 17.8213 146.154 16.7508ZM146.446 33.3547V20.0596H149.777V33.3547H146.446Z" fill="#007947"/>
<path d="M152.323 29.1775V14.7695H155.676L155.654 29.0403C155.654 30.0883 155.946 30.5899 156.749 30.5899C157.173 30.5899 157.486 30.4526 157.91 30.1806L159.095 32.7982C158.336 33.3896 157.263 33.6167 156.169 33.6167C153.663 33.6167 152.323 32.0471 152.323 29.1775Z" fill="#007947"/>
</g>
<defs>
<clipPath id="clip0">
<rect width="160" height="48" fill="white"/>
</clipPath>
</defs>
</svg>
