<svg width="94" height="29" viewBox="0 0 94 29" fill="none" xmlns="http://www.w3.org/2000/svg">
<g clip-path="url(#clip0)">
<path d="M16.8506 6.1283L22.6338 11.9539V9.98823C22.6338 9.69118 22.5173 9.40728 22.3086 9.19759L19.4537 6.32193L17.7226 5.31437L16.9671 4.87609L16.3671 4.52812C16.2678 4.46987 16.1426 4.48589 16.0577 4.56305C15.118 5.40028 13.8934 5.88223 12.5969 5.88223C11.3004 5.88223 10.0744 5.40028 9.13619 4.56159C9.04983 4.48444 8.92609 4.46987 8.82391 4.52666L8.22386 4.87464L7.46839 5.31291L5.74018 6.31903L2.8838 9.19759C2.67658 9.40728 2.55859 9.69118 2.55859 9.98823V11.9524L8.34185 6.12682C8.60662 6.33505 8.88724 6.52287 9.18079 6.69032L6.8453 12.3688H8.6901L10.755 7.34843C11.0774 7.43725 11.4083 7.50277 11.7436 7.545V12.3688H13.4488V7.545C13.7855 7.50423 14.115 7.43725 14.4374 7.34843L16.5023 12.3688H18.3471L16.0131 6.69032C16.3052 6.52432 16.5858 6.3365 16.8506 6.1283Z" fill="#FCC670"/>
<path d="M23.1158 5.47761L14.6719 0.564975C13.3912 -0.180513 11.8011 -0.180513 10.5204 0.564975L2.07501 5.47761C0.795757 6.2202 0 7.60924 0 9.09731V18.9226C0 20.4106 0.795757 21.7982 2.07501 22.5437L10.5204 27.4549C11.1607 27.8277 11.8788 28.014 12.5954 28.014C13.3135 28.014 14.0315 27.8277 14.6704 27.4549L23.1172 22.5437C24.3965 21.7982 25.1908 20.4106 25.1908 18.9226V9.09731C25.1922 7.60924 24.3965 6.2202 23.1158 5.47761ZM1.8606 18.9226V14.869H5.8178L3.26792 21.0731L3.00603 20.9203C2.29949 20.5082 1.8606 19.7438 1.8606 18.9226ZM4.75728 21.938L7.66401 14.869H11.7435V25.9741C11.6428 25.9348 11.545 25.8868 11.45 25.8314L4.75728 21.938ZM13.7408 25.8314C13.6459 25.8868 13.548 25.9348 13.4473 25.9741V14.869H17.5268L20.4335 21.938L13.7408 25.8314ZM23.3316 18.9226C23.3316 19.7438 22.8928 20.5096 22.1862 20.9203L21.9243 21.0717L19.3744 14.869H23.3316V18.9226ZM23.3316 13.1509H1.8606V9.09731C1.8606 8.27611 2.29949 7.51024 3.00603 7.09963L7.02223 4.76415H7.02366L7.64675 4.40015L7.71293 4.36083L8.51158 3.89636L11.45 2.18699C11.8039 1.98023 12.1997 1.87977 12.5954 1.87977C12.9911 1.87977 13.3869 1.98169 13.7408 2.18699L16.6807 3.89636L17.4779 4.36083L17.544 4.40015L18.1686 4.76415L22.1848 7.09963C22.8913 7.51024 23.3302 8.27611 23.3302 9.09731V13.1509H23.3316Z" fill="#FCC670"/>
<path d="M40.0013 15.5989C40.0013 17.8572 38.2946 19.6102 36.2067 19.6102C35.2225 19.6102 34.382 19.1589 33.8034 18.5604L33.6596 19.4763H32.0049V8.62305H33.9618V12.515C34.5258 11.9574 35.3015 11.5846 36.2067 11.5846C38.2816 11.5861 40.0013 13.3275 40.0013 15.5989ZM38.0054 15.5989C38.0054 14.4035 37.1262 13.527 35.9707 13.527C34.8281 13.527 33.9488 14.4035 33.9488 15.5989C33.9488 16.7812 34.815 17.6708 35.9707 17.6708C37.1262 17.6708 38.0054 16.7943 38.0054 15.5989Z" fill="#FCC670"/>
<path d="M41.3271 9.77914C41.3271 9.14139 41.8395 8.62305 42.4698 8.62305C43.1129 8.62305 43.6252 9.14139 43.6252 9.77914C43.6252 10.4038 43.1129 10.9221 42.4698 10.9221C41.8395 10.9221 41.3271 10.4038 41.3271 9.77914ZM41.4984 19.4879V11.7302H43.4553V19.4879H41.4984Z" fill="#FCC670"/>
<path d="M44.9395 15.5993C44.9395 13.3278 46.7121 11.5879 48.957 11.5879C51.2148 11.5879 52.9875 13.3409 52.9875 15.5993C52.9875 17.8575 51.2148 19.6106 48.957 19.6106C46.6978 19.6106 44.9395 17.8575 44.9395 15.5993ZM50.9917 15.5993C50.9917 14.4038 50.1127 13.5273 48.957 13.5273C47.8015 13.5273 46.9222 14.4038 46.9222 15.5993C46.9222 16.7946 47.8015 17.6712 48.957 17.6712C50.1254 17.6712 50.9917 16.7815 50.9917 15.5993Z" fill="#FCC670"/>
<path d="M61.4938 11.6917V13.6981C61.2448 13.6588 60.9945 13.6311 60.7714 13.6311C59.5238 13.6311 58.8935 14.3882 58.8935 15.5443V19.477H56.9365V11.7193H58.5769L58.7337 12.7152C59.3124 12.0644 60.0865 11.6523 61.019 11.6523C61.1785 11.6523 61.337 11.6654 61.4938 11.6917Z" fill="#FCC670"/>
<path d="M69.6861 16.2365H64.0008C64.2498 17.2324 65.0899 17.8702 66.2584 17.8702C67.0197 17.8702 67.6628 17.6314 68.1493 17.1654L69.3047 18.454C68.4127 19.265 67.506 19.6101 66.2456 19.6101C63.7777 19.6101 62.0566 17.9895 62.0566 15.6512C62.0566 13.3259 63.7763 11.5859 66.0613 11.5859C68.2012 11.5859 69.738 13.141 69.738 15.3192C69.738 15.8113 69.7249 16.0763 69.6861 16.2365ZM67.8615 14.7353C67.8226 13.8981 67.0874 13.3273 66.0499 13.3273C65.0252 13.3273 64.3174 13.8588 64.041 14.7353H67.8615Z" fill="#FCC670"/>
<path d="M76.0022 19.028C75.5301 19.4138 74.8726 19.6119 74.0724 19.6119C72.4579 19.6119 71.4995 18.629 71.4995 17.0216L71.5126 13.5402H70.4102V11.7202H71.5126V10.0996H73.4826V11.7202H75.5173V13.5402H73.4696V16.9007C73.4696 17.4584 73.7718 17.7904 74.2969 17.7904C74.6782 17.7904 74.8883 17.6972 75.1373 17.4977L76.0022 19.028Z" fill="#FCC670"/>
<path d="M82.8706 11.7209H84.5384V19.4786H82.8706L82.7268 18.5627C82.1498 19.1743 81.3224 19.6126 80.3366 19.6126C78.2486 19.6126 76.542 17.8595 76.542 15.6012C76.542 13.3298 78.2486 11.5898 80.3366 11.5898C81.3208 11.5898 82.1482 12.0281 82.7268 12.6396L82.8706 11.7209ZM82.5945 15.5998C82.5945 14.4043 81.7152 13.5278 80.5598 13.5278C79.4041 13.5278 78.525 14.4043 78.525 15.5998C78.525 16.7951 79.4041 17.6717 80.5598 17.6717C81.7152 17.6717 82.5945 16.782 82.5945 15.5998Z" fill="#FCC670"/>
<path d="M85.8652 9.77914C85.8652 9.14139 86.3773 8.62305 87.0076 8.62305C87.651 8.62305 88.163 9.14139 88.163 9.77914C88.163 10.4038 87.651 10.9221 87.0076 10.9221C86.3773 10.9221 85.8652 10.4038 85.8652 9.77914ZM86.0365 19.4675V11.7098H87.9934V19.4675H86.0365Z" fill="#FCC670"/>
<path d="M89.4902 17.0302V8.62305H91.4602L91.4472 16.9501C91.4472 17.5616 91.6184 17.8543 92.0903 17.8543C92.3393 17.8543 92.5235 17.7742 92.7725 17.6155L93.4689 19.1429C93.0228 19.4879 92.3925 19.6204 91.7494 19.6204C90.2774 19.6204 89.4902 18.7046 89.4902 17.0302Z" fill="#FCC670"/>
</g>
<defs>
<clipPath id="clip0">
<rect width="94" height="28.0082" fill="white" transform="translate(0 0.00585938)"/>
</clipPath>
</defs>
</svg>
